<svg xmlns="http://www.w3.org/2000/svg" width="300" height="186" viewBox="0 0 300 186" preserveAspectRatio="xMidYMid meet">
  <g transform="translate(0,186) scale(0.1,-0.1)" fill="#000000" stroke="none">
    <path d="M685 1561 c-78 -36 -115 -95 -115 -182 0 -61 28 -119 72 -152 132 -100 318 -11 318 152 0 63 -13 97 -53 140 -59 62 -144 78 -222 42z"/>
    <path d="M1511 1558 c-30 -17 -91 -84 -229 -253 -488 -601 -679 -840 -696 -872 -29 -56 -19 -151 20 -200 60 -76 157 -102 239 -64 43 19 73 52 250 271 103 128 139 172 365 450 338 418 340 420 340 498 0 142 -163 237 -289 170z"/>
    <path d="M2355 1562 c-105 -50 -143 -163 -89 -270 61 -122 213 -146 310 -48 91 90 79 227 -24 300 -55 39 -138 46 -197 18z"/>
    <path d="M2010 1108 c-19 -5 -47 -18 -62 -29 -30 -22 -465 -552 -512 -625 -67 -102 -18 -249 96 -291 73 -26 152 -9 206 45 67 68 493 601 507 637 50 118 -29 250 -160 268 -22 3 -56 1 -75 -5z"/>
  </g>
</svg>