<?xml version="1.0" standalone="no"?>
<!DOCTYPE svg PUBLIC "-//W3C//DTD SVG 20010904//EN"
 "http://www.w3.org/TR/2001/REC-SVG-20010904/DTD/svg10.dtd">
<svg version="1.0" xmlns="http://www.w3.org/2000/svg"
 width="132.000000pt" height="118.000000pt" viewBox="0 0 132.000000 118.000000"
 preserveAspectRatio="xMidYMid meet">
<metadata>
Created by potrace 1.10, written by Peter Selinger 2001-2011
</metadata>
<g transform="translate(0.000000,118.000000) scale(0.100000,-0.100000)"
fill="#000000" stroke="none">
<path d="M180 947 l-25 -13 -3 -273 c-2 -193 1 -278 9 -287 9 -12 90 -14 445
-14 378 0 434 2 434 15 0 13 -57 15 -428 17 l-427 3 0 260 0 260 460 0 460 0
0 -348 0 -349 -452 0 c-248 0 -457 3 -463 7 -6 4 -8 14 -6 23 7 22 -8 47 -23
38 -16 -11 -13 -72 5 -90 13 -14 48 -16 230 -16 l214 0 0 -35 0 -34 -77 -3
c-61 -2 -78 -6 -78 -18 0 -13 26 -15 175 -15 149 0 175 2 175 15 0 12 -17 16
-77 18 l-78 3 0 34 0 35 237 2 237 3 13 25 c10 19 13 111 13 363 l0 338 -25
24 -24 25 -448 0 c-341 0 -454 -3 -473 -13z"/>
</g>
</svg>
