<svg width="25" height="25" viewBox="0 0 25 25" fill="none" xmlns="http://www.w3.org/2000/svg">
<g id="svg-2022045483_4522">
<path id="Vector" d="M13.095 9.40267L11.8919 7.30995L11.5911 6.7868C11.5685 6.75338 11.5484 6.71838 11.5309 6.68213L11.5133 6.61702L11.4232 6.42511L11.31 6.1949L11.2434 6.06658L11.2546 6.10805C11.2315 6.23479 11.2148 6.38517 11.1943 6.56838L11.1842 6.67261L11.1717 6.88544L11.1354 7.76468L11.0554 9.51892L10.9203 11.9415L7.403 13.8276L5.8499 14.6589L5.07039 15.0753L4.68145 15.2865L4.4937 15.3935L4.39263 15.4203L4.35101 15.4314L4.29567 15.3445C4.26396 15.3065 4.23756 15.2644 4.21721 15.2194C4.19799 15.1483 4.13121 15.0898 4.08226 15.0266L4.01342 14.937C4.01342 14.937 4.01342 14.937 4.0022 14.8955L3.92164 14.2441L7.29533 13.9006L9.0511 13.701L11.191 13.4376C11.595 14.1301 12.0016 14.8092 12.3829 15.4888C13.5669 17.5104 14.8589 19.4843 15.8772 21.6007C16.5152 22.923 14.2151 22.0991 12.8345 19.7742L11.3434 17.2058L10.6119 15.9146L10.2477 15.275L10.1407 15.3034L9.28501 15.3909L7.56012 15.5632L4.1002 15.8471L4.02886 15.866C3.94078 15.8723 3.85223 15.8636 3.76702 15.8403C3.65099 15.8083 3.54172 15.7556 3.44456 15.6847C3.26802 15.5505 3.14575 15.3577 3.1001 15.1414C3.05905 14.9576 3.07374 14.7659 3.14233 14.5907C3.17904 14.5084 3.22688 14.4317 3.28454 14.3625C3.32992 14.3108 3.37841 14.2619 3.42974 14.216L3.47136 14.205L3.51296 14.1939L3.54866 14.1844L3.60217 14.1702L3.70323 14.1434L3.88228 14.0514L4.22848 13.8706L4.93002 13.5193C5.73653 13.1084 6.54419 12.6781 7.35615 12.2404L9.41137 11.098C9.45061 10.1354 9.49577 9.17126 9.5393 8.2012L9.71202 5.14014L9.77343 4.16533C9.77278 3.89009 9.81724 3.61671 9.90506 3.35595C10.0932 3.22116 10.2648 3.06482 10.4163 2.89012L10.4646 2.83288C10.4277 2.69666 10.5494 3.14677 10.3813 2.5249L10.4297 2.56282L10.6134 2.72353L10.9942 3.04773L11.3631 3.37508L11.4617 3.45682C11.4617 3.45682 11.4617 3.45682 11.5074 3.50815L11.5378 3.62067L11.792 4.04198L13.3976 6.75147L15.1026 9.6631L17.085 9.68897L19.4903 9.72327L20.7366 9.76049C21.034 9.78392 21.3282 9.83767 21.6147 9.92093C21.8295 9.98452 21.9951 10.0548 22.1634 10.1117C22.2503 10.1336 22.3322 10.1723 22.4044 10.2254L22.1321 10.4437L21.0357 11.3379L18.4669 12.6547L17.1534 13.3589L16.5383 13.7L16.2191 13.8863C16.2378 14.0971 16.2481 14.9831 16.2628 15.6266L16.3016 17.6794C16.3109 18.1847 16.332 18.687 16.3352 19.1939C16.3341 21.0985 16.2075 21.6908 15.7623 22.0946C15.6727 22.1917 15.572 22.278 15.4623 22.352C15.122 22.5312 14.8539 21.7518 14.7719 20.3644C14.7128 19.2502 14.6693 18.1233 14.6416 16.9839C14.6282 16.4161 14.6192 15.8408 14.6103 15.2656L14.599 14.399C14.6032 13.8964 14.6016 13.3953 14.6058 12.8927L17.2906 11.4626L17.4253 11.3951L17.4907 11.3777L17.3622 11.3738L16.8513 11.3697L14.1954 11.3513L13.0499 9.47174L13.095 9.40267Z" fill="#FF7C00"/>
<path id="Vector_2" d="M13.1704 18.301C13.0713 17.934 12.9365 17.5765 12.8049 17.2309C12.7681 17.0947 12.681 16.9847 12.634 16.8576C12.4942 16.3969 12.3215 15.9467 12.1171 15.5105C12.026 15.3158 11.9103 15.1333 11.7731 14.9675C11.5867 14.7752 11.4259 14.56 11.2945 14.3271C11.22 14.1692 11.8732 13.8308 12.1496 14.0999C12.5848 14.5198 12.9208 15.0309 13.1331 15.5958C13.2572 15.9371 13.4817 16.2264 13.6264 16.5496C13.771 16.8727 13.9289 17.2685 14.0712 17.6303L14.3264 18.2921C14.454 18.6247 14.5993 18.9503 14.7619 19.2675C14.9049 19.5003 15.0724 19.7174 15.2615 19.915C15.2759 19.9683 15.3481 19.9998 15.3803 20.0484C15.4924 20.2279 15.4571 20.3325 15.2099 20.525L15.0483 20.6567C14.9716 20.7239 14.8754 20.7649 14.7735 20.7737C14.6717 20.7825 14.5697 20.7586 14.4823 20.7056C14.0753 20.3547 13.7639 19.9071 13.577 19.4046C13.4184 19.0534 13.2863 18.6826 13.1455 18.3266L13.1704 18.301Z" fill="#FF7C00"/>
<path id="Vector_3" d="M9.85856 14.1373C9.60237 14.1169 9.3453 14.111 9.08851 14.1194C8.99927 14.1431 8.90411 14.1683 8.81487 14.1921C8.4803 14.2047 8.12584 14.1908 7.77503 14.2141C7.62204 14.2357 7.4722 14.2755 7.32883 14.3326C7.14432 14.4356 6.93052 14.4745 6.72106 14.4432C6.58878 14.4021 6.52095 13.4669 6.72709 13.3803C7.11052 13.2161 7.52704 13.1424 7.94427 13.1651C8.19845 13.1505 8.45046 13.1112 8.69688 13.0478C8.98177 13.0166 9.26389 12.9988 9.54927 12.9929L10.0843 12.9906C10.3518 12.9894 10.6213 13.0195 10.8873 13.0124C11.1531 13.0054 11.309 12.9449 11.5079 12.9493C11.5554 12.9366 11.609 12.9224 11.6559 12.9544C11.8259 13.0173 11.852 13.1375 11.8209 13.3999L11.8031 13.5699C11.7678 13.7425 11.6714 13.8967 11.5316 14.0043C11.2584 14.1965 10.925 14.285 10.5916 14.2539C10.3554 14.2531 10.1144 14.2345 9.86198 14.2444L9.85856 14.1373Z" fill="#FF7C00"/>
</g>
</svg>
