<?xml version="1.0" standalone="no"?>
<!DOCTYPE svg PUBLIC "-//W3C//DTD SVG 20010904//EN"
 "http://www.w3.org/TR/2001/REC-SVG-20010904/DTD/svg10.dtd">
<svg version="1.0" xmlns="http://www.w3.org/2000/svg"
 width="300.000000pt" height="149.000000pt" viewBox="0 0 300.000000 149.000000"
 preserveAspectRatio="xMidYMid meet">
<metadata>
Created by potrace 1.10, written by Peter Selinger 2001-2011
</metadata>
<g transform="translate(0.000000,149.000000) scale(0.100000,-0.100000)"
fill="#000000" stroke="none">
<path d="M1153 1280 c-104 -52 -191 -168 -178 -236 7 -42 -4 -44 -27 -4 -22
38 -75 70 -113 69 -29 -1 -29 -1 5 -8 46 -9 84 -35 98 -67 17 -37 15 -40 -9
-10 -42 54 -114 72 -153 39 l-20 -18 18 30 19 30 -21 -19 c-17 -15 -22 -30
-22 -68 0 -84 43 -138 108 -138 44 0 102 55 102 96 l0 29 24 -30 c24 -29 26
-30 113 -30 76 0 97 4 151 29 63 29 125 86 142 132 15 40 12 127 -6 152 -42
60 -137 69 -231 22z m208 -18 c16 -18 29 -38 29 -44 0 -7 -7 -3 -15 9 -34 49
-134 49 -227 2 -57 -29 -128 -97 -149 -144 -10 -22 -19 -34 -19 -26 0 32 44
102 95 150 75 71 124 93 199 88 51 -3 63 -8 87 -35z"/>
<path d="M2409 1167 c-140 -39 -224 -147 -186 -240 30 -71 108 -88 245 -53 54
14 108 23 120 19 32 -8 52 -53 52 -114 0 -41 3 -50 15 -45 14 5 45 -17 45 -33
0 -23 -44 -61 -71 -61 -25 0 -32 -7 -55 -52 -14 -29 -33 -60 -41 -69 -13 -15
-10 -19 31 -34 65 -25 143 -17 197 21 49 34 110 122 135 197 26 76 25 200 -2
252 -22 43 -88 85 -132 85 -14 0 -44 18 -73 44 -87 78 -188 108 -280 83z"/>
<path d="M1648 1081 c-94 -31 -160 -144 -128 -220 42 -102 263 -60 336 64 35
60 28 144 -13 159 -9 4 -11 2 -7 -6 5 -8 2 -9 -12 -4 -29 12 -146 17 -176 7z"/>
<path d="M1922 1078 c-58 -29 -32 -190 37 -231 60 -35 159 -9 181 49 12 29 13
95 2 78 -4 -8 -15 1 -30 25 -43 68 -135 107 -190 79z"/>
<path d="M386 966 c-52 -20 -86 -45 -111 -84 -19 -30 -23 -31 -84 -32 -128 0
-191 -68 -191 -202 1 -87 27 -161 86 -239 74 -97 137 -113 221 -56 l50 33 34
-18 c18 -10 44 -18 57 -18 28 0 82 27 82 40 0 6 20 10 45 10 95 0 135 46 135
155 0 71 -15 116 -54 167 -22 29 -24 40 -20 93 6 70 -14 113 -67 141 -45 23
-135 28 -183 10z m61 -286 l32 0 -24 -25 c-14 -13 -25 -35 -25 -47 0 -27 26
-68 42 -68 6 0 2 10 -10 23 -12 13 -22 33 -22 45 0 25 33 62 55 62 8 0 15 5
15 10 0 6 6 10 14 10 33 0 34 -235 2 -285 -24 -37 -62 -49 -108 -36 -66 20
-131 125 -144 233 -10 87 -6 92 74 84 37 -3 81 -6 99 -6z m163 -49 c0 -11 -4
-23 -10 -26 -6 -4 -10 5 -10 19 0 14 5 26 10 26 6 0 10 -9 10 -19z m-390 -57
c13 -33 13 -34 -4 -34 -20 0 -39 27 -32 45 8 23 25 18 36 -11z"/>
<path d="M323 653 c-7 -2 -13 -9 -13 -15 0 -6 6 -5 15 2 9 8 28 10 48 6 23 -4
28 -3 17 4 -16 10 -47 12 -67 3z"/>
<path d="M477 623 c-25 -4 -26 -5 -10 -21 20 -21 25 -20 35 7 4 12 6 20 5 20
-1 -1 -14 -4 -30 -6z"/>
<path d="M362 579 c2 -6 8 -10 13 -10 5 0 11 4 13 10 2 6 -4 11 -13 11 -9 0
-15 -5 -13 -11z"/>
<path d="M480 470 c0 -7 3 -10 7 -7 3 4 3 10 0 14 -4 3 -7 0 -7 -7z"/>
<path d="M455 460 c3 -5 8 -10 11 -10 3 0 2 5 -1 10 -3 6 -8 10 -11 10 -3 0
-2 -4 1 -10z"/>
<path d="M1245 889 c-4 -11 -1 -58 5 -103 25 -163 0 -239 -81 -244 -90 -6
-164 86 -205 253 -18 73 -34 107 -26 55 3 -24 1 -29 -11 -25 -20 8 -47 -21
-47 -50 0 -27 36 -65 59 -64 14 0 14 1 1 6 -48 18 -67 73 -32 92 26 14 38 2
52 -49 43 -162 155 -263 247 -225 54 23 67 67 58 195 -4 58 -8 122 -7 143 0
42 -4 47 -13 16z"/>
<path d="M1179 883 c-13 -15 -12 -15 6 -6 11 6 27 13 35 16 10 4 8 6 -6 6 -12
1 -28 -6 -35 -16z"/>
<path d="M1033 868 c-13 -6 -23 -15 -23 -19 0 -4 12 -1 27 6 15 8 39 12 53 9
19 -4 22 -3 10 5 -19 13 -38 13 -67 -1z"/>
<path d="M2384 838 c-5 -8 0 -9 15 -5 15 3 29 -1 41 -13 26 -26 11 -75 -35
-117 -19 -18 -29 -33 -22 -33 27 0 87 90 87 130 0 33 -70 65 -86 38z"/>
<path d="M1220 815 c0 -30 -16 -33 -25 -4 -4 11 -9 18 -12 16 -9 -9 17 -47 32
-47 10 0 15 10 15 30 0 17 -2 30 -5 30 -3 0 -5 -11 -5 -25z"/>
<path d="M2516 822 c-3 -5 9 -6 26 -4 22 3 35 0 45 -14 11 -15 13 -15 13 -2 0
24 -71 41 -84 20z"/>
<path d="M1106 788 c5 -21 2 -28 -10 -28 -8 0 -20 9 -26 21 -7 11 -14 18 -17
15 -9 -8 28 -46 44 -46 19 0 27 25 14 47 -9 15 -10 13 -5 -9z"/>
<path d="M1730 800 c-10 -6 -3 -8 22 -3 25 4 44 1 55 -8 16 -13 17 -12 4 4
-15 18 -57 22 -81 7z"/>
<path d="M1894 798 c-22 -10 -44 -47 -44 -73 0 -21 22 -65 32 -65 5 0 2 10 -6
22 -32 45 -10 101 47 117 19 5 24 9 12 9 -11 1 -30 -4 -41 -10z"/>
<path d="M1985 788 c-2 -7 -6 -42 -10 -78 -12 -127 -38 -198 -80 -226 -32 -21
-64 -13 -110 28 -45 39 -69 85 -96 185 -24 90 -35 108 -24 43 12 -74 55 -176
91 -218 37 -44 91 -68 130 -58 51 13 88 106 103 260 7 71 5 92 -4 64z"/>
<path d="M1185 756 c10 -14 19 -26 22 -26 7 0 -17 39 -28 46 -6 3 -3 -5 6 -20z"/>
<path d="M2381 753 c0 -18 3 -33 7 -33 13 0 46 39 39 46 -3 3 -11 -5 -18 -18
l-13 -23 -7 30 -7 30 -1 -32z"/>
<path d="M2007 763 c-14 -13 -7 -25 8 -13 8 6 19 9 25 5 17 -11 11 -35 -16
-61 -14 -15 -20 -24 -13 -22 25 8 51 55 44 77 -6 20 -34 28 -48 14z"/>
<path d="M1607 753 c-26 -26 14 -104 52 -102 10 0 8 3 -6 9 -25 10 -43 39 -43
71 0 16 5 20 20 16 11 -3 18 -1 14 4 -6 11 -28 12 -37 2z"/>
<path d="M1810 730 c0 -34 -23 -41 -39 -12 -6 9 -11 12 -11 7 0 -17 22 -35 42
-35 14 0 18 8 18 35 0 19 -2 35 -5 35 -3 0 -5 -13 -5 -30z"/>
<path d="M1891 734 c-1 -24 23 -49 37 -40 5 3 12 16 15 28 6 23 6 23 -12 -1
l-18 -24 -11 29 c-9 24 -11 25 -11 8z"/>
<path d="M2481 728 c-1 -21 4 -28 18 -28 10 0 22 7 25 16 9 24 7 31 -5 12 -14
-24 -27 -22 -32 5 -4 19 -4 18 -6 -5z"/>
<path d="M1168 693 c7 -3 16 -2 19 1 4 3 -2 6 -13 5 -11 0 -14 -3 -6 -6z"/>
<path d="M1203 693 c4 -3 10 -3 14 0 3 4 0 7 -7 7 -7 0 -10 -3 -7 -7z"/>
<path d="M1200 642 c0 -7 -10 -13 -22 -13 -19 -1 -20 -2 -4 -6 20 -5 44 12 33
24 -4 3 -7 1 -7 -5z"/>
<path d="M2380 601 c0 -21 31 -24 48 -5 16 17 16 17 0 5 -15 -11 -21 -11 -33
-1 -11 9 -15 9 -15 1z"/>
<path d="M1863 593 c4 -3 10 -3 14 0 3 4 0 7 -7 7 -7 0 -10 -3 -7 -7z"/>
<path d="M1063 475 c-18 -8 -51 -40 -78 -75 -46 -63 -105 -177 -105 -201 0 -8
20 27 45 77 49 102 115 180 160 193 43 12 95 -8 120 -45 12 -18 32 -70 44
-115 31 -113 31 -113 36 -107 9 8 -35 159 -61 210 -36 71 -93 93 -161 63z"/>
<path d="M1673 391 c-21 -15 -56 -48 -77 -72 -41 -48 -101 -147 -94 -155 3 -2
22 24 42 58 72 123 149 188 223 188 60 0 122 -34 217 -119 43 -39 83 -71 89
-71 7 0 7 3 2 8 -199 174 -227 191 -311 192 -40 0 -59 -6 -91 -29z"/>
<path d="M2431 371 c-38 -41 -137 -198 -130 -206 3 -2 37 45 76 104 59 91 77
111 107 121 58 19 111 -11 180 -104 32 -42 60 -76 62 -76 12 0 -2 24 -52 89
-61 78 -111 111 -170 111 -30 0 -44 -7 -73 -39z"/>
<path d="M390 283 c0 -23 75 -32 111 -12 27 14 74 -16 133 -84 25 -29 46 -47
46 -42 0 13 -71 87 -117 122 -31 24 -38 25 -67 15 -42 -15 -79 -15 -94 0 -8 8
-12 8 -12 1z"/>
<path d="M325 238 c-51 -45 -105 -121 -105 -147 1 -9 12 5 25 31 14 26 50 72
82 103 67 65 66 73 -2 13z"/>
</g>
</svg>
