<svg width="200" height="198" viewBox="0 0 200 198" fill="none" xmlns="http://www.w3.org/2000/svg">
<g id="iOe9N7d4bKdbvbAHuQf2nYXx7OQ.svg" clip-path="url(#clip0_1_2038)">
<path id="Vector" d="M32.1435 45.2488C32.1435 43.4122 30.3061 41.758 28.6771 41.2565C27.9336 41.0168 28.2343 39.8366 29 40.0763C31.1473 40.7633 33.3611 42.8664 33.3611 45.2672C33.3479 45.4196 33.2782 45.5615 33.1656 45.6651C33.0529 45.7687 32.9057 45.8263 32.7527 45.8267C32.5993 45.8268 32.4516 45.7693 32.3387 45.6655C32.2258 45.5617 32.1562 45.4192 32.1435 45.2664V45.2488ZM98.6183 71.0893C98.891 70.772 99.187 70.4755 99.5038 70.2023C99.6229 70.1046 99.7557 70.029 99.8756 69.9404C100.288 69.6121 100.76 69.3667 101.266 69.2175C101.485 69.1733 101.711 69.1733 101.93 69.2175C102.195 69.2985 102.454 69.398 102.705 69.5152C102.793 69.5366 102.904 69.3908 102.934 69.1908C102.959 69.0832 102.949 68.9705 102.905 68.8691C102.861 68.7677 102.786 68.683 102.691 68.6275C102.322 68.4512 101.912 68.3761 101.505 68.4099C101.126 68.4434 100.758 68.5552 100.424 68.7381C100.039 68.9465 99.6405 69.1198 99.2863 69.3595C98.906 69.6259 98.5478 69.9225 98.2153 70.2465C98.0145 70.4418 97.8183 70.6416 97.6267 70.8458C97.3298 71.1511 97.0641 71.4794 96.7855 71.7946C96.5725 72.0389 96.316 72.2382 96.1076 72.5046C96.0572 72.5569 96.0112 72.6133 95.9702 72.6733C95.8336 72.9084 95.8466 73.0282 95.9702 73.1794C96.0008 73.2137 96.0336 73.2465 96.0679 73.2763C96.1349 73.3212 96.2151 73.3421 96.2954 73.3357C96.3758 73.3293 96.4516 73.296 96.5107 73.2412C96.9719 72.9079 97.3847 72.5122 97.7374 72.0656C98.016 71.7458 98.2901 71.4175 98.587 71.116L98.6183 71.0893ZM109.624 89.358C109.617 88.9809 109.577 88.6052 109.505 88.2351C109.42 87.7954 109.221 87.3856 108.929 87.0465C108.701 86.7838 108.408 86.5851 108.079 86.4702C107.825 86.4016 107.563 86.3641 107.3 86.3588H106.671L105.387 86.2878C105.006 86.258 104.625 86.2196 104.245 86.1725C103.749 86.0771 103.24 86.0771 102.744 86.1725C102.576 86.2168 102.634 86.4481 102.766 86.6786C102.826 86.799 102.91 86.9053 103.014 86.9903C103.118 87.0752 103.239 87.1368 103.369 87.171C104.33 87.3145 105.301 87.3916 106.273 87.4015C106.581 87.403 106.889 87.4236 107.194 87.4633C107.421 87.4824 107.644 87.5443 107.849 87.6458C108.04 87.7519 108.188 87.9236 108.265 88.129C108.371 88.3969 108.434 88.6801 108.451 88.9672C108.471 89.3661 108.471 89.7659 108.451 90.1649C108.451 90.7862 108.415 91.4298 108.451 92.0817C108.432 92.6242 108.53 93.1644 108.739 93.6656C108.792 93.7847 108.859 93.8977 108.938 94.0023C109.261 94.384 109.474 94.3885 109.691 94.2107C109.744 94.1748 109.792 94.1328 109.837 94.087C109.895 94.0004 109.925 93.8985 109.925 93.7943C109.925 93.69 109.895 93.5882 109.837 93.5015C109.707 93.2062 109.628 92.8911 109.602 92.5695C109.561 92.1849 109.547 91.7979 109.562 91.4114C109.562 90.7908 109.624 90.1206 109.628 89.4023L109.624 89.358ZM164.482 195.985C163.345 196.021 162.198 195.985 161.056 195.985C160.613 195.985 160.224 195.915 159.803 195.902C158.334 195.839 156.859 195.75 155.376 195.591C155.053 195.551 154.73 195.507 154.428 195.449C154.133 195.376 153.847 195.272 153.574 195.138C152.878 194.763 152.222 194.317 151.617 193.808C151.44 193.648 151.325 193.741 151.325 194.034C151.331 194.254 151.381 194.471 151.473 194.671C151.563 194.872 151.694 195.052 151.856 195.201C152.203 195.521 152.594 195.789 153.016 195.999C153.449 196.224 153.913 196.382 154.393 196.469C155.26 196.611 156.136 196.693 157.014 196.718C158.054 196.753 159.126 196.908 160.189 196.966C161.353 197.037 162.526 197.055 163.695 197.068C164.412 197.068 165.134 197.068 165.855 197.033C166.4 197.033 166.944 196.989 167.489 196.953C168.034 196.918 168.578 196.869 169.118 196.828C169.959 196.796 170.796 196.702 171.624 196.549C171.81 196.514 171.992 196.492 172.173 196.447C172.846 196.238 173.058 196.11 173.107 195.848C173.127 195.791 173.143 195.731 173.151 195.671C173.151 195.489 172.841 195.422 172.363 195.48C172.009 195.537 171.641 195.555 171.274 195.578L170.721 195.622H170.163C169.424 195.711 168.662 195.76 167.901 195.821C166.763 195.888 165.616 195.954 164.465 195.95L164.482 195.985ZM186.88 188.018C186.489 188.754 186.078 189.479 185.645 190.192C185.485 190.45 185.295 190.689 185.136 190.942C184.588 191.854 183.981 192.729 183.321 193.563C183.033 193.917 182.701 194.233 182.334 194.504C181.994 194.822 181.567 195.031 181.107 195.103C181.005 195.103 180.819 195.231 180.877 195.547C180.902 195.643 180.948 195.733 181.011 195.809C181.075 195.886 181.154 195.948 181.244 195.99C181.472 196.108 181.735 196.14 181.984 196.079C182.365 195.975 182.727 195.81 183.055 195.591C183.325 195.372 183.58 195.135 183.817 194.881C184.258 194.391 184.651 193.859 184.99 193.293C185.397 192.627 185.911 192.015 186.318 191.35C186.725 190.685 187.203 189.882 187.646 189.132L188.403 187.743C188.784 187.042 189.134 186.324 189.514 185.631C189.811 185.09 190.143 184.58 190.44 184.044C190.511 183.931 190.573 183.811 190.626 183.689C190.821 183.223 190.803 183.037 190.626 182.837C190.585 182.789 190.54 182.745 190.493 182.704C190.338 182.584 190.098 182.704 189.869 182.988C189.525 183.419 189.21 183.872 188.925 184.345C188.62 184.811 188.354 185.308 188.085 185.8C187.677 186.532 187.283 187.277 186.863 188.018H186.88ZM81.5473 191.256C81.4496 191.199 86.7672 188.364 91.3359 183.973C94.0672 181.35 97.0336 178.711 98.8359 176.875C99.4153 176.285 110.391 186.718 126.174 193.16C127.227 193.603 124.713 194.282 124.018 194.322C123.323 194.362 110.595 194.46 99.2916 193.75C90.2824 193.191 82.0962 191.611 81.5473 191.256ZM144.598 179.319C146.618 180.534 150.146 183.396 153.896 185.463C157.646 187.531 163.313 191.23 164.641 189.753C165.336 188.976 169.395 185.658 171.003 180.543C171.003 180.543 152.554 180.015 149.358 179.137C147.446 178.605 143.886 178.889 144.598 179.319Z" fill="#1C1917"/>
<path id="Vector_2" d="M54.3855 170.056C54.3855 170.056 50.2947 172.132 46.2176 171.387C46.2176 171.387 49.8389 186.936 57.1038 191.31C64.3695 195.684 73.5382 196.522 88.3076 184.478L99.2916 174.231C99.2916 174.231 102.102 176.138 106.751 179.31C115.526 185.29 130.707 194.499 134.324 194.969C137.282 195.277 140.264 195.277 143.223 194.969C148.894 194.344 155.376 192.485 157.624 189.953C157.624 189.953 107.45 157.569 103.962 155.723C100.473 153.877 95.1786 151.757 90.6275 153.948C86.0756 156.14 66.1618 170.322 60.2649 170.202C54.3679 170.082 56.9405 171.418 54.3679 170.079M33.8618 66.4137C33.9634 66.4404 34.3351 69.284 35.9199 71.5023C37.5054 73.7206 36.4825 78.7733 30.758 76.7366C30.758 76.7366 28.3718 73.042 25.2015 75.0153C22.0321 76.9901 24.5374 80.7824 26.3221 82.1137C28.1061 83.4443 32.9321 84.7351 35.2611 83.4443C35.2611 83.4443 37.8771 89.8504 32.0992 91.4298C26.3221 93.0084 21.9962 84.4733 20.6641 81.5282C20.6641 81.5282 11.1275 79.7046 5.61069 72.6557C5.61069 72.6557 -0.365641 64.3374 3.46871 56.384C11.4863 39.7527 30.1252 42.9824 34.1275 46.903C33.6046 46.4908 37.0931 32.0557 43.9908 28.7862C47.6702 27.0427 54.5496 26.8122 57.516 32.3359C60.3542 37.5878 58.4321 46.3313 50.1496 49.7519C47.1038 50.7595 43.9992 51.5763 40.8519 52.1962C37.4916 52.8298 32.9939 58.3717 33.8527 63.784C34.7115 69.1954 33.8618 66.4137 33.8618 66.4137Z" fill="#1C1917"/>
<path id="Vector_3" d="M34.1481 69.3641C34.4321 70.171 34.7374 70.9076 34.9939 71.6443C35.2589 72.3416 35.4533 73.0638 35.574 73.8C35.6908 74.4183 35.6122 75.0572 35.3481 75.6282C35.3175 75.6908 35.2817 75.7519 35.242 75.8099L35.1092 75.9695C35.0153 76.0832 34.9069 76.1832 34.7863 76.2672C34.6634 76.3673 34.5298 76.4533 34.3878 76.5237C34.2558 76.603 34.1145 76.6658 33.9672 76.7107C33.5465 76.8474 33.0945 76.8551 32.6695 76.7328C32.1744 76.5841 31.6999 76.3738 31.2572 76.1069C30.3533 75.5343 29.4112 75.0244 28.4374 74.5809L28.0252 74.4305L27.5824 74.3191C27.273 74.2428 26.9542 74.2114 26.6359 74.226C25.9824 74.2476 25.3491 74.457 24.8114 74.829C24.2711 75.2061 23.8624 75.7429 23.6427 76.3641C23.4282 76.9511 23.3613 77.5818 23.4481 78.2008C23.6735 79.3423 24.2312 80.3919 25.0511 81.2176C25.3779 81.5771 25.7275 81.9092 26.0817 82.229C26.2634 82.384 26.458 82.5397 26.6443 82.6725C26.8305 82.8053 27.0427 82.9565 27.2374 83.116C28.0556 83.6599 28.9512 84.0774 29.8939 84.3542C31.1058 84.7275 32.3868 84.8199 33.6397 84.6244C34.9046 84.4295 36.0891 83.8822 37.0572 83.045C37.6504 82.5214 37.274 82.313 36.5656 82.371C35.6046 82.4878 34.6511 82.6611 33.7107 82.8901C32.6809 83.0967 31.6192 83.085 30.5943 82.8556C29.5693 82.6263 28.6039 82.1845 27.7603 81.5588C27.5439 81.4015 27.3326 81.2373 27.1267 81.0664C26.9136 80.8892 26.7098 80.7012 26.516 80.503C26.1297 80.1371 25.7851 79.7295 25.4885 79.2878C25.2196 78.896 25.0329 78.4538 24.9397 77.9878C24.8702 77.5492 24.9209 77.0999 25.0863 76.6878C25.1901 76.453 25.3456 76.2446 25.541 76.0781C25.7365 75.9116 25.9669 75.7912 26.2153 75.7259C26.4785 75.6534 26.7535 75.6337 27.0244 75.6679C27.3298 75.7191 27.6259 75.8053 27.9099 75.9252C28.5511 76.2114 29.1656 76.5527 29.7481 76.9458C30.3918 77.3955 31.082 77.7745 31.8069 78.0763C32.2622 78.2427 32.7427 78.3297 33.2275 78.3336C33.3512 78.3427 33.4755 78.3427 33.5992 78.3336L33.971 78.2718C34.213 78.2267 34.4488 78.155 34.6756 78.0588C35.1203 77.8721 35.5326 77.616 35.8969 77.3C36.0821 77.1329 36.2513 76.9489 36.4023 76.7504C36.5443 76.542 36.671 76.3244 36.7824 76.0977C37.1103 75.2176 37.181 74.2623 36.9863 73.3435C36.8302 72.5081 36.599 71.6885 36.2954 70.8947C35.9458 69.9275 35.5649 69.0359 35.3175 68.1C35.0458 67.1603 34.8402 66.2028 34.7023 65.2343C34.4822 63.7877 34.5269 62.3131 34.8343 60.8824C35.1941 59.4622 35.7689 58.1053 36.5389 56.8588C37.6763 54.9491 39.3977 53.4557 41.4488 52.5992C41.6646 52.5021 41.8884 52.4237 42.1175 52.3649C42.3435 52.3023 42.5603 52.2092 42.7992 52.1649C43.658 51.9389 44.242 51.8763 44.6458 51.7214C44.9674 51.6703 45.2631 51.5143 45.487 51.2779C45.584 51.1878 45.6725 51.0901 45.7519 50.9847C45.845 50.8206 45.6946 50.6832 45.3359 50.5809C45.1061 50.524 44.8723 50.4842 44.6366 50.4618C44.3102 50.4494 43.9833 50.4581 43.658 50.4878C42.5316 50.6014 41.4319 50.9014 40.4038 51.3756C39.3447 51.8643 38.3691 52.5169 37.513 53.3092C35.828 54.9336 34.5469 56.9302 33.7725 59.1389C33.1803 60.7996 32.9477 62.5671 33.0901 64.3244C33.155 65.1855 33.2794 66.0405 33.4626 66.884C33.5466 67.3015 33.6481 67.7137 33.7542 68.1221C33.8611 68.5298 33.971 68.9252 34.113 69.3595L34.1481 69.3641Z" fill="#1C1917"/>
<path id="Vector_4" d="M0.758774 56.8855C-0.0492534 59.5153 -0.215212 62.3005 0.274805 65.0076C0.54198 66.3534 0.980148 67.6588 1.57709 68.8931C2.18067 70.1028 2.89952 71.2513 3.72366 72.3229C4.91297 73.8705 6.27524 75.2771 7.78396 76.5153C10.4302 78.6715 13.4248 80.3606 16.6389 81.5099C17.4458 81.7886 18.2679 82.0237 19.1 82.2153L19.4145 82.2909L19.6618 82.3534C19.7885 82.387 19.9084 82.4428 20.016 82.5176C20.2382 82.7512 20.4092 83.029 20.5168 83.3336C21.2693 84.8626 22.1676 86.3154 23.1992 87.6718C24.1119 88.901 25.1839 90.0036 26.387 90.9504C26.6985 91.1863 27.0237 91.4023 27.3611 91.5977L27.8702 91.8954L28.4145 92.1351C28.7824 92.2886 29.1618 92.4145 29.5481 92.5122C29.7427 92.5565 29.9466 92.5786 30.1412 92.6092C30.3397 92.6473 30.5412 92.6649 30.7435 92.6626C31.7996 92.7134 32.8483 92.4627 33.7672 91.9397C34.6714 91.4144 35.4318 90.6739 35.9809 89.784C36.546 88.8939 36.8722 87.8734 36.9282 86.8206C36.9863 85.7501 36.7026 84.6889 36.1183 83.7901C35.729 83.2626 35.4626 83.1252 35.3656 83.2359C35.2679 83.3466 35.2901 83.7191 35.3962 84.2031C35.4939 84.8221 35.5206 85.4496 35.4763 86.0748C35.3924 86.8819 35.1692 87.6683 34.8168 88.3992C34.4975 89.1104 33.9992 89.7267 33.3707 90.1879C32.7421 90.649 32.0048 90.9394 31.2305 91.0305C29.6855 91.1588 28.0962 90.4 26.7542 89.2557C25.3796 88.0445 24.1867 86.6415 23.2122 85.0901C22.71 84.3058 22.2463 83.4974 21.8229 82.6679C21.7032 82.417 21.5702 82.1726 21.4244 81.9359C21.2168 81.6079 20.9267 81.3402 20.5832 81.1595C20.3027 81.0213 20.0048 80.9215 19.6977 80.8626L19.0198 80.7076C16.7954 80.1671 14.6644 79.2966 12.6977 78.1252C10.6883 76.9614 8.82846 75.5566 7.15954 73.942C5.32083 72.2105 3.81957 70.1528 2.73206 67.8733C1.7114 65.5738 1.30578 63.0485 1.55496 60.545C1.90753 57.4277 3.03349 54.4479 4.83053 51.8763C6.16495 49.9031 7.83074 48.1755 9.75419 46.7702C11.6451 45.3411 13.8038 44.3063 16.1023 43.7275C19.6164 42.7922 23.3048 42.7223 26.8519 43.5237C27.229 43.6107 27.6 43.7221 27.9634 43.8557C28.3397 43.9626 28.6847 44.1305 29.0473 44.2733C29.3504 44.4054 29.6458 44.5534 29.9328 44.716L30.3183 44.9115C30.4382 44.9741 30.5443 45.0489 30.6542 45.1115C30.8641 45.2412 31.0588 45.3573 31.2389 45.4573C31.416 45.5595 31.558 45.6748 31.6817 45.7634C32.0794 46.0357 32.5151 46.248 32.9748 46.3931C33.1405 46.4466 33.3107 46.4855 33.484 46.5084C33.7053 46.5084 33.6481 46.2473 33.3244 45.7504C33.2327 45.6073 33.1351 45.468 33.0321 45.3328C32.9176 45.1825 32.7664 45.0496 32.5893 44.8901C32.4122 44.7298 32.2534 44.5618 32.0542 44.3886L31.3718 43.8962C29.8817 42.918 28.2182 42.2342 26.471 41.8817C24.7179 41.5165 22.9247 41.3807 21.1366 41.4779C19.3443 41.5649 17.5641 41.8275 15.8237 42.2634C14.0245 42.6971 12.2996 43.3952 10.7053 44.3351C8.33533 45.7218 6.24298 47.536 4.53435 49.6855C3.68829 50.7592 2.93567 51.9033 2.28473 53.1054C1.63874 54.3183 1.10546 55.588 0.691599 56.8985L0.758011 56.8847L0.758774 56.8855ZM66.5298 85.8802C66.838 84.1298 66.8277 82.3382 66.4992 80.5916C66.1932 78.8896 65.7183 77.2223 65.0817 75.6145C64.6369 74.4446 64.1285 73.2999 63.5588 72.1855C61.5148 68.3232 59.0309 64.7104 56.1565 61.4191C54.8901 59.9641 53.5606 58.5653 52.1718 57.2267C51.2863 56.3794 50.3656 55.5405 49.3962 54.7733C48.4449 53.9831 47.4239 53.2807 46.3458 52.6748C45.6725 52.2893 45.6374 52.5512 46.0229 53.1183C46.6534 54.0115 47.4122 54.8054 48.2763 55.4741C52.1116 58.5815 55.5333 62.1671 58.458 66.1435C60.2502 68.5998 61.8009 71.2234 63.0885 73.9779C63.7987 75.4817 64.3809 77.0427 64.829 78.6443C65.287 80.2313 65.5275 81.8725 65.5466 83.5244C65.55 84.5267 65.4112 85.5245 65.1343 86.4878C64.8594 87.4397 64.4089 88.3319 63.8061 89.1183C63.3432 89.7129 62.7924 90.2334 62.1725 90.6618C61.8704 90.8923 61.5506 91.0986 61.216 91.2786C60.8882 91.4726 60.5463 91.6418 60.1931 91.7847C58.7696 92.3793 57.2538 92.7228 55.713 92.8C54.5298 92.8588 53.3443 92.8046 52.171 92.6405C51.0057 92.4648 49.8536 92.21 48.7229 91.8779C48.2267 91.7313 47.7489 91.5534 47.2481 91.4031C46.3321 91.097 45.7389 90.8573 45.2962 90.7466C44.9864 90.6523 44.6634 90.6087 44.3397 90.6176C44.2319 90.6122 44.1238 90.6122 44.016 90.6176C43.8924 90.6489 43.9939 90.7817 44.2817 91.0214C44.4282 91.1412 44.6183 91.2878 44.8534 91.4649C45.1313 91.6405 45.4198 91.7985 45.716 91.9397C46.7215 92.4289 47.769 92.8267 48.8458 93.1283C49.9453 93.4465 51.0674 93.681 52.2023 93.8298C54.555 94.1595 56.9489 94.0084 59.242 93.3855C61.0093 92.8887 62.6321 91.9763 63.9748 90.7244C65.3051 89.406 66.2047 87.7155 66.555 85.8756L66.5298 85.8802Z" fill="#1C1917"/>
<path id="Vector_5" d="M48.8733 27.5351C50.4767 27.1946 52.1314 27.172 53.7435 27.4687C54.529 27.6328 55.2886 27.9038 56.0008 28.2764C57.2386 28.8795 58.2381 29.8809 58.8389 31.1199C59.087 31.6535 59.2855 32.2084 59.4321 32.7786C59.9502 34.8597 59.9089 37.0408 59.3122 39.1008C59.0007 40.1371 58.5623 41.1309 58.0069 42.0596C57.4575 43.0071 56.8168 43.8986 56.0939 44.7214C54.8155 46.192 53.2958 47.434 51.6 48.3939C50.5207 49.0055 49.3775 49.4965 48.1908 49.858L47.3053 50.0977C47.0076 50.1893 46.7053 50.2626 46.3985 50.3153L45.4817 50.5061L44.5519 50.626C43.7817 50.7321 43.8794 50.887 44.5519 51.0336C44.7244 51.0733 44.9328 51.1092 45.1763 51.1443C45.4435 51.1916 45.7153 51.213 45.9863 51.2069C46.6733 51.2382 47.3618 51.1741 48.0321 51.0161C48.6901 50.8634 49.3389 50.6725 49.9756 50.4435C50.2939 50.3237 50.6038 50.1863 50.9145 50.058L51.3832 49.858L51.826 49.6229C53.0411 49.0169 54.1747 48.2598 55.2 47.3695C56.23 46.4839 57.1539 45.4821 57.9534 44.384C58.7705 43.2889 59.4484 42.0965 59.9718 40.8344C60.6086 39.2824 60.9698 37.6311 61.0389 35.955C61.1461 34.2505 60.8644 32.5439 60.2153 30.9641C59.8474 30.0812 59.3174 29.2749 58.6527 28.587C58.3194 28.2451 57.9515 27.9386 57.555 27.6725C57.3603 27.5443 57.1695 27.3977 56.9657 27.2825L56.342 26.9588C56.1373 26.847 55.9239 26.7521 55.7038 26.6748C55.4824 26.5947 55.2611 26.5015 55.0489 26.426C54.6125 26.2933 54.1691 26.1852 53.7206 26.1023L53.0389 25.9878L52.3481 25.9344C51.9053 25.8809 51.4366 25.9344 50.9756 25.9077C49.8574 25.9658 48.748 26.1367 47.6641 26.4176C46.5878 26.7092 45.5412 27.1031 44.5389 27.5932C43.0268 28.3498 41.648 29.3476 40.4565 30.5473C39.2732 31.7287 38.2251 33.038 37.3313 34.4512C35.9543 36.6106 34.8857 38.9518 34.1565 41.4069C34.0725 41.6779 33.9977 41.9443 33.9267 42.2145C33.8573 42.4788 33.7893 42.7434 33.7229 43.0084C33.5055 43.708 33.3572 44.4272 33.2802 45.1557C33.2336 45.5046 33.2725 45.8596 33.3947 46.1893C33.4328 46.3061 33.4832 46.4176 33.5458 46.5222C33.6473 46.629 33.7718 46.5222 33.9618 46.1764C34.226 45.6626 34.455 45.1321 34.6489 44.5886C34.8389 44.0512 34.9977 43.5321 35.1618 42.9466L35.3832 42.1435L35.6267 41.3496C35.972 40.2858 36.3754 39.2418 36.8351 38.2222C37.7527 36.1564 38.9719 34.2383 40.4527 32.5306C41.5362 31.2661 42.8137 30.1819 44.2374 29.3183C45.6733 28.4734 47.2401 27.8738 48.8733 27.5443V27.5351ZM66.5069 64.3244C66.5947 64.0557 66.6336 63.7733 66.6214 63.4909C66.6081 63.1793 66.5218 62.8752 66.3695 62.6031C66.0937 62.1505 65.6793 61.799 65.1878 61.6008C64.9058 61.4599 64.6087 61.3513 64.3023 61.2771C63.3136 61.0861 62.299 61.0696 61.3046 61.2283C60.8618 61.2855 60.4458 61.3351 60.0168 61.4008C59.4476 61.4482 58.9038 61.6575 58.4496 62.0038C58.3076 62.1244 58.4496 62.3412 58.6886 62.5367C58.9115 62.7504 59.2038 62.8756 59.5115 62.8916C59.9855 62.8473 60.4458 62.7145 60.9328 62.6519C61.4198 62.5901 61.9023 62.5099 62.4069 62.4481C63.0073 62.4073 63.6098 62.4888 64.1779 62.6878C64.4504 62.7588 64.7084 62.8771 64.9397 63.0382C65.0231 63.0944 65.0922 63.1694 65.1414 63.2572C65.1906 63.345 65.2185 63.443 65.2229 63.5435C65.2076 63.8947 65.0824 64.2313 64.8641 64.5061C64.5015 65.032 64.0419 65.4838 63.5099 65.8374C63.0882 66.0795 62.6433 66.2785 62.1817 66.4313L61.8802 66.5245C61.5176 66.6619 61.4374 66.7687 61.4374 67.097V67.3237C61.4374 67.5626 61.6817 67.7229 62.0351 67.7008C62.5642 67.6604 63.084 67.5391 63.5763 67.3412C64.0693 67.1129 64.5317 66.8237 64.9527 66.4802C65.6735 65.9336 66.2334 65.2025 66.5733 64.3641L66.5069 64.3244ZM92.3397 152.427C89.7834 153.095 87.348 154.161 85.1229 155.586C82.9092 156.916 80.8374 158.429 78.7657 159.879C77.7252 160.603 76.6893 161.317 75.6359 161.992C74.5741 162.668 73.498 163.322 72.4084 163.952C70.2603 165.241 68.0433 166.41 65.7672 167.457C64.1259 168.209 62.4206 168.813 60.6718 169.262C59.0015 169.735 57.2489 169.838 55.5359 169.564C54.8298 169.424 54.1586 169.144 53.5611 168.743L52.5824 168.073C52.2595 167.847 51.9588 167.589 51.6435 167.35C50.4022 166.357 49.2526 165.253 48.2084 164.054C46.1163 161.621 44.3319 158.939 42.8954 156.069C39.9428 150.324 38.026 144.065 36.5695 137.734C35.9229 134.918 35.4008 132.065 34.9229 129.208C34.6924 127.784 34.4397 126.337 34.2588 124.936C34.0864 123.534 34.0284 122.12 34.0855 120.708C34.1389 118.918 34.487 117.15 35.1176 115.473C35.7292 113.822 36.7263 112.341 38.026 111.153C39.3195 109.99 40.9075 109.204 42.6168 108.882C44.309 108.529 46.07 108.743 47.629 109.489L47.9519 109.653L48.2176 109.818C48.3855 109.906 48.5183 109.99 48.6206 110.057C48.8328 110.176 48.9611 110.202 49.0053 110.137C49.0809 110.026 48.8641 109.449 48.0664 108.775C46.913 107.878 45.5075 107.364 44.0473 107.307C41.9018 107.172 39.7733 107.763 38.0038 108.983C37.147 109.573 36.3753 110.277 35.7107 111.077C35.3803 111.473 35.0729 111.888 34.7901 112.319C34.5179 112.75 34.2682 113.194 34.042 113.65C33.1743 115.475 32.649 117.443 32.4924 119.457C32.3293 121.42 32.3841 123.394 32.6557 125.344C32.7267 125.823 32.7931 126.315 32.8679 126.782L33.1344 128.205L33.6168 131.009C34.945 138.484 36.7595 145.976 39.8366 153.057C41.6832 157.271 43.9893 161.45 47.1328 165.034C48.7024 166.853 50.4999 168.462 52.4809 169.821L52.8527 170.079C52.9771 170.163 53.1321 170.243 53.2954 170.322C53.5802 170.482 53.8756 170.622 54.1809 170.74C54.784 170.96 55.4115 171.109 56.0496 171.183C57.2786 171.308 58.5199 171.251 59.7328 171.015C62.2969 170.485 64.7839 169.634 67.1351 168.482C69.4633 167.37 71.7344 166.143 73.9397 164.804C75.0374 164.147 76.1534 163.473 77.2252 162.768C78.2961 162.057 79.3558 161.329 80.4038 160.585C82.5023 159.121 84.5786 157.648 86.7611 156.393C89.4176 154.858 92.3481 153.642 95.3809 153.553C96.8947 153.508 98.4046 153.733 99.8389 154.219C101.281 154.73 102.65 155.426 103.912 156.291C111.882 161.557 119.93 166.724 127.895 171.844C134.093 175.815 140.127 179.763 146.29 183.631C147.649 184.482 148.947 185.33 150.35 186.169C155.467 189.274 157.198 190.13 158.527 190.392C158.818 190.469 159.114 190.524 159.412 190.56C160.063 190.56 158.044 189.185 154.334 186.874C148.831 183.44 143.204 179.847 137.511 176.205L120.244 165.115C115.949 162.333 111.662 159.538 107.383 156.73L105.785 155.674L104.984 155.142C104.71 154.961 104.434 154.783 104.156 154.609C103.013 153.875 101.787 153.28 100.503 152.835C99.2029 152.375 97.8431 152.104 96.4657 152.032C95.0944 151.969 93.721 152.094 92.384 152.405L92.3397 152.427Z" fill="#1C1917"/>
<path id="Vector_6" d="M56.8214 146.571C56.3091 145.457 55.7824 144.349 55.2412 143.248C55.0458 142.845 54.8779 142.428 54.6695 142.028C53.9258 140.633 53.1298 139.266 52.2832 137.93C51.9023 137.34 51.5656 136.723 51.2122 136.124C50.9863 135.738 50.7695 135.339 50.5435 134.962C50.3045 134.58 50.027 134.223 49.7153 133.897C49.3214 133.502 48.5069 134.94 49.0466 135.765C50.0076 137.25 50.9641 138.728 51.987 140.201C52.5687 141.134 53.082 142.108 53.5229 143.115C54.0666 144.202 54.5891 145.3 55.0901 146.407C55.4 147.09 55.7099 147.778 56.0023 148.469C56.445 149.517 56.9145 150.568 57.3305 151.628C57.6405 152.453 57.8664 153.296 58.1359 154.131C58.1939 154.312 58.2428 154.498 58.3084 154.68C58.5657 155.355 58.7511 155.524 59.1939 155.505C59.2931 155.512 59.3924 155.512 59.4908 155.505C59.8092 155.444 59.9336 155.062 59.8229 154.557C59.4243 152.982 58.9078 151.44 58.2779 149.943C57.8351 148.807 57.3389 147.671 56.8565 146.54L56.8214 146.571ZM90.7824 144.553C88.2195 144.538 85.6732 144.965 83.2557 145.817L82.5962 146.034C82.3794 146.11 82.1534 146.203 81.9504 146.283C81.5076 146.456 81.087 146.611 80.6702 146.811C79.1916 147.53 77.8412 148.297 76.4473 149.029C75.0527 149.761 73.6534 150.493 72.2458 151.202C70.9969 151.837 69.7176 152.427 68.4519 153.004C66.7955 153.689 65.1823 154.474 63.6214 155.355C62.6649 155.936 64.5817 156.646 66.4374 155.772C69.7305 154.215 73.0069 152.605 76.226 150.781C77.204 150.236 78.1927 149.711 79.1916 149.206C79.7008 148.936 80.1969 148.705 80.6969 148.47L81.445 148.115L82.2069 147.805C84.4205 146.858 86.7749 146.282 89.1756 146.101C89.5443 146.066 89.916 146.052 90.2863 146.061H91.3931L92.5 146.163C92.6863 146.163 92.8718 146.194 93.0534 146.221L93.6023 146.323C95.8294 146.712 97.9784 147.461 99.9649 148.54C101.466 149.406 102.878 150.418 104.179 151.562C104.472 151.81 104.746 152.063 105.043 152.303C106.092 153.269 106.495 153.492 107.004 153.394C107.121 153.385 107.237 153.363 107.349 153.328C107.673 153.19 107.407 152.605 106.659 151.815C106.102 151.22 105.511 150.659 104.888 150.134C104.254 149.586 103.59 149.073 102.9 148.599C102.558 148.346 102.202 148.113 101.833 147.902L100.731 147.241C100.35 147.037 99.9557 146.855 99.5702 146.66C99.1841 146.461 98.7881 146.282 98.384 146.123C95.9759 145.121 93.4028 144.575 90.7954 144.513L90.7824 144.553Z" fill="#1C1917"/>
<path id="Vector_7" d="M79.2229 151.65C79.6549 152.126 80.043 152.64 80.3825 153.186C80.5069 153.385 80.5863 153.629 80.7015 153.815C81.1308 154.532 81.4656 155.302 81.6977 156.105C81.7886 156.452 81.8183 156.811 81.7863 157.169C81.7466 157.613 81.5825 157.981 81.5512 158.327C81.5512 158.438 81.8527 158.695 82.2596 158.77C82.4701 158.81 82.6877 158.785 82.884 158.699C82.9799 158.66 83.0658 158.6 83.1355 158.523C83.2052 158.446 83.257 158.355 83.287 158.256C83.439 157.637 83.4526 156.991 83.3267 156.366C83.2192 155.802 83.0283 155.256 82.7603 154.747C82.4504 154.153 82.2596 153.501 81.9412 152.915C81.5893 152.275 81.1835 151.667 80.7283 151.096C80.4535 150.741 80.1527 150.413 79.8428 150.085C79.3637 149.608 78.8534 149.163 78.3153 148.753C77.9092 148.399 77.4769 148.076 77.0222 147.786C76.9206 147.715 76.8125 147.655 76.6993 147.605C76.2565 147.418 76.0886 147.516 75.916 147.884C75.8725 147.968 75.8344 148.053 75.8008 148.141C75.7512 148.272 75.7445 148.415 75.7819 148.55C75.8192 148.685 75.8986 148.805 76.0084 148.892C76.6374 149.379 77.2573 149.805 77.8817 150.35C78.355 150.755 78.7916 151.201 79.187 151.682L79.2229 151.65ZM67.5214 117.137C67.3292 117.305 67.0952 117.417 66.8443 117.461C66.6888 117.5 66.5302 117.525 66.3702 117.537L65.8657 117.589H64.8473C64.5061 117.589 64.1657 117.501 63.829 117.417L63.0985 117.204L62.3771 116.929C60.6637 116.202 59.0435 115.273 57.5512 114.16C56.8695 113.673 56.2229 113.149 55.5458 112.634C54.7245 111.92 53.8257 111.299 52.8664 110.785C52.5611 110.634 52.5 110.834 52.6237 111.166C52.7038 111.369 52.8115 111.56 52.9428 111.734C53.1015 111.966 53.297 112.169 53.5229 112.337C55.2443 113.628 56.9351 115.056 58.8748 116.215C60.0433 116.967 61.2813 117.606 62.5718 118.122C64.0557 118.681 65.6664 118.81 67.2206 118.495C67.7633 118.367 68.2377 118.039 68.5489 117.576C68.8255 117.093 68.9167 116.525 68.8054 115.979C68.6567 115.242 68.3416 114.549 67.884 113.952C67.4671 113.389 67.0331 112.838 66.5825 112.302C65.916 111.492 65.2881 110.651 64.7008 109.782C64.5687 109.595 64.4664 109.401 64.3382 109.215C63.8954 108.505 63.7183 108.296 63.3909 108.256C63.3194 108.241 63.2469 108.232 63.1741 108.229C62.9565 108.229 62.9481 108.65 63.2222 109.263C63.6463 110.172 64.1753 111.028 64.7985 111.814C65.4092 112.608 66.0557 113.357 66.6313 114.13C66.8443 114.409 67.0741 114.715 67.2244 114.968C67.3893 115.232 67.5214 115.515 67.6191 115.811C67.7084 116.065 67.7466 116.335 67.729 116.605C67.7168 116.805 67.6298 116.993 67.4855 117.133L67.5214 117.137ZM87.4206 115.522C85.6949 114.963 83.9798 114.372 82.2764 113.748C81.6565 113.513 81.0496 113.237 80.4298 113.002C78.2355 112.171 76.0471 111.324 73.8649 110.461C72.8954 110.079 71.9428 109.649 70.987 109.232C69.7924 108.661 68.5654 108.16 67.3122 107.733C66.9313 107.613 66.7939 107.986 66.9535 108.491C67.0671 108.803 67.2436 109.09 67.4721 109.331C67.7005 109.573 67.976 109.766 68.2817 109.897C69.5527 110.425 70.7832 110.9 72.0451 111.405C73.3128 111.911 74.5942 112.381 75.8878 112.816C77.4458 113.344 78.987 114.072 80.5588 114.679C82.2764 115.35 84.0206 115.975 85.7741 116.574C86.8496 116.942 87.9389 117.279 89.0237 117.625C90.6748 118.118 92.3435 118.588 94.0038 119.014C95.2924 119.36 96.5451 119.75 97.8336 120.056C98.1168 120.127 98.3916 120.216 98.6794 120.269C99.7504 120.464 100.114 120.415 100.402 120.047C100.472 119.968 100.535 119.884 100.592 119.795C100.734 119.492 100.34 119.164 99.587 118.952C97.3733 118.313 95.0046 117.745 92.6489 117.084C90.894 116.597 89.1522 116.065 87.4252 115.487L87.4206 115.522ZM96.2443 60.4031C96.2817 59.9819 96.3558 59.5648 96.4657 59.1565C96.4696 59.1152 96.4823 59.0752 96.503 59.0393C96.5237 59.0033 96.5518 58.9723 96.5855 58.9481C96.6298 58.9481 96.6557 58.9832 96.6779 59.0145L96.7092 59.0718V59.1031C96.7222 59.1275 96.7321 59.1527 96.7405 59.1786C96.8817 59.6221 97.0015 60.0657 97.1077 60.5092C97.2672 61.1794 97.3687 61.8672 97.4931 62.5504C97.6168 63.2328 97.7542 64.0099 97.8649 64.7412L98.0244 65.8458L98.0993 66.3962L98.2145 67.1634C98.229 67.2481 98.2557 67.3313 98.2939 67.4076C98.3237 67.4847 98.3573 67.5603 98.3962 67.6336C98.5367 67.7328 98.7023 67.7878 98.8741 67.7939H99.826C100.281 67.7802 100.736 67.8217 101.181 67.9176C101.631 67.999 102.034 68.244 102.314 68.6054C102.551 68.9963 102.65 69.456 102.593 69.9099C102.52 70.5633 102.348 71.2018 102.084 71.8038L101.69 72.7443C101.561 73.0634 101.437 73.3832 101.309 73.7069C101.15 74.1061 101.362 74.1504 101.752 73.9641C102.006 73.826 102.24 73.6527 102.447 73.4496C102.584 73.3252 102.708 73.1863 102.819 73.0374C102.935 72.87 103.034 72.6916 103.115 72.5046C103.441 71.784 103.665 71.0206 103.779 70.2374C103.839 69.7945 103.824 69.3448 103.735 68.9069C103.627 68.4061 103.382 67.9454 103.027 67.5763C102.685 67.2421 102.27 66.9929 101.814 66.8489C101.413 66.7211 100.998 66.6436 100.579 66.6183H99.4763C99.4183 66.6183 99.2901 66.6847 99.2901 66.5733L99.268 66.4985L99.2237 66.1832L99.1305 65.5267L98.958 64.1962C98.8459 63.3055 98.7103 62.4179 98.5512 61.5344C98.4581 61.0488 98.3548 60.5652 98.2412 60.084C98.1826 59.8419 98.1205 59.6006 98.055 59.3603L97.9489 58.997L97.8916 58.8145L97.8115 58.5794C97.701 58.2317 97.5302 57.9061 97.3069 57.6176C97.205 57.5024 97.0798 57.41 96.9397 57.3466C96.866 57.316 96.787 57.3002 96.7073 57.3002C96.6275 57.3002 96.5485 57.316 96.4748 57.3466C96.3222 57.4 96.1802 57.4771 96.0542 57.5771L95.8771 57.7588L95.7886 57.8519L95.713 57.9672C95.6107 58.1168 95.5259 58.2776 95.4603 58.4466L95.3542 58.6992C95.3306 58.7661 95.3114 58.8344 95.297 58.9038C95.14 59.5133 95.0479 60.1376 95.0222 60.7664C94.9861 61.3751 94.9744 61.985 94.987 62.5947C95.0183 64.4267 95.1909 66.245 95.3145 68.042C95.416 69.4351 95.4603 70.8054 95.5183 72.1809C95.5183 72.4824 95.5183 72.7802 95.5451 73.0679C95.5931 74.1901 95.6909 74.5412 95.9878 74.7809C96.0435 74.8405 96.1061 74.8939 96.1733 74.9405C96.368 75.0512 96.5855 74.5809 96.616 73.729C96.6596 71.1607 96.5694 68.5918 96.3458 66.0328C96.2886 65.0695 96.2313 64.1115 96.2092 63.158C96.1711 62.2213 96.1961 61.283 96.284 60.3496L96.2443 60.4031Z" fill="#1C1917"/>
<path id="Vector_8" d="M100.469 96.7351C100.172 93.432 99.8325 90.1327 99.4512 86.8382C99.3137 85.6359 99.216 84.429 99.0702 83.2359L98.9679 82.4466C98.9237 82.171 98.884 81.8519 98.813 81.5588C98.6733 81.0065 98.4929 80.4654 98.2733 79.9397C97.8527 78.9199 97.3878 77.9832 97.0908 77.0428C96.7626 76.1861 96.7626 75.2384 97.0908 74.3817C97.1328 74.2772 97.1802 74.1751 97.2328 74.0756L97.4229 73.7871C97.479 73.6895 97.5442 73.5975 97.6176 73.5122C97.6977 73.4166 97.7804 73.3232 97.8656 73.2321C98.2115 72.8596 98.5832 72.4916 98.9641 72.1405C99.4888 71.6549 100.05 71.2101 100.642 70.8099C100.785 70.7123 100.933 70.6221 101.085 70.5397C101.17 70.4914 101.259 70.4498 101.35 70.4153C101.433 70.3823 101.523 70.3687 101.611 70.3756C101.655 70.3843 101.695 70.4044 101.727 70.434C101.76 70.4636 101.784 70.5014 101.797 70.5435C101.881 70.7183 101.897 70.9176 101.841 71.1031C101.68 71.6157 101.441 72.1005 101.133 72.5405C100.819 73.029 100.469 73.5252 100.141 74.0573C99.783 74.6075 99.503 75.2048 99.3092 75.8321C99.2129 76.1799 99.1681 76.54 99.1763 76.9008C99.1886 77.2779 99.2794 77.6481 99.442 77.9878C99.5046 78.1443 99.6107 78.2802 99.7473 78.3787C99.7812 78.4039 99.8223 78.4175 99.8645 78.4175C99.9067 78.4175 99.9478 78.4039 99.9817 78.3787C100.111 78.2809 100.141 78.0099 100.217 77.6733C100.292 77.3008 100.424 76.9412 100.606 76.6084C100.801 76.2359 101.071 75.8099 101.381 75.2779C101.771 74.5855 102.266 73.8886 102.753 73.0596C103.025 72.6055 103.237 72.1179 103.382 71.6092C103.431 71.4359 103.463 71.2596 103.479 71.0809C103.502 70.8685 103.502 70.6544 103.479 70.442C103.421 70.0358 103.27 69.6485 103.037 69.3107C102.928 69.1765 102.805 69.0547 102.669 68.9474C102.524 68.8504 102.364 68.7794 102.195 68.739C101.846 68.6632 101.482 68.683 101.142 68.7962C100.959 68.8522 100.782 68.9235 100.611 69.0092C100.527 69.0474 100.446 69.0901 100.367 69.1374C100.315 69.1637 100.265 69.1935 100.217 69.2267C100.013 69.3466 99.8313 69.471 99.6542 69.5947C98.9784 70.0925 98.338 70.6366 97.7374 71.2229C97.4405 71.5115 97.1527 71.8038 96.8519 72.1099C96.7107 72.2703 96.5733 72.4206 96.4092 72.6115C96.2458 72.8023 96.1389 73.0153 96.0061 73.2191C95.5085 74.0597 95.2914 75.0369 95.3863 76.0092C95.4861 76.8288 95.6994 77.6307 96.0199 78.3916C96.3076 79.1237 96.6221 79.8161 96.9053 80.4985C97.1771 81.1428 97.3618 81.8199 97.4542 82.513L97.7061 84.7794C98.087 88.0848 98.4504 91.3939 98.7557 94.7038C98.942 96.7443 99.1145 98.7848 99.2519 100.825C99.4512 103.931 99.6237 107.036 99.6099 110.102C99.5939 112.455 99.4313 114.805 99.1229 117.137C99.0482 117.639 98.9642 118.139 98.871 118.637C98.716 119.573 98.5832 120.167 98.5389 120.602C98.4908 120.923 98.5328 121.252 98.658 121.551C98.7008 121.676 98.7527 121.798 98.813 121.915C98.9237 122.07 99.1145 121.99 99.3626 121.68C99.6936 121.204 99.9364 120.672 100.079 120.109C100.628 117.956 100.947 115.751 101.031 113.531C101.16 111.312 101.147 109.037 101.093 106.779C101 103.43 100.775 100.076 100.513 96.7351H100.469Z" fill="#1C1917"/>
<path id="Vector_9" d="M105.33 72.1985C105.299 72.8587 105.203 73.5141 105.042 74.155C104.984 74.3947 104.887 74.6252 104.825 74.8695C104.714 75.3123 104.612 75.7565 104.506 76.2C104.431 76.6135 104.305 77.0158 104.13 77.3978C104.095 77.4657 104.055 77.531 104.011 77.5932C103.98 77.6337 103.943 77.6684 103.9 77.6955C103.862 77.7229 103.815 77.7351 103.769 77.7298C103.722 77.725 103.679 77.7033 103.647 77.6688C103.466 77.3119 103.318 76.9391 103.205 76.555C103.143 76.4176 102.948 76.4665 102.762 76.639C102.657 76.7409 102.58 76.8676 102.537 77.0073C102.495 77.1471 102.488 77.2953 102.518 77.4382L102.589 77.655C102.613 77.742 102.647 77.8252 102.691 77.9039C102.737 78.0046 102.791 78.1023 102.85 78.1962C102.93 78.2894 103.01 78.3871 103.098 78.4756C103.283 78.6344 103.519 78.7217 103.763 78.7217C104.006 78.7217 104.242 78.6344 104.427 78.4756C104.715 78.2394 104.938 77.9343 105.077 77.5886C105.194 77.3234 105.283 77.0468 105.343 76.7634C105.467 76.1466 105.741 75.5657 105.923 74.9405C106.138 74.2474 106.296 73.5382 106.397 72.8199C106.46 72.3672 106.485 71.91 106.472 71.4535C106.464 71.092 106.41 70.7329 106.312 70.3848C106.211 69.9936 105.993 69.6423 105.689 69.3772C105.558 69.2652 105.408 69.178 105.246 69.1199C105.089 69.0641 104.927 69.0257 104.763 69.0054C104.615 68.9973 104.468 68.9973 104.321 69.0054C104.179 69.0054 104.028 69.0443 103.878 69.0756C103.727 69.1062 103.634 69.1336 103.514 69.1779C103.072 69.355 103.018 69.5191 103.103 69.8428C103.12 69.9184 103.143 69.9924 103.169 70.0649C103.221 70.1793 103.312 70.2708 103.426 70.3223C103.541 70.3738 103.67 70.3816 103.789 70.3443C104.118 70.2604 104.458 70.2222 104.798 70.2291C104.892 70.2642 104.944 70.2688 104.976 70.313C105.006 70.3581 105.064 70.4245 105.131 70.5306C105.22 70.7726 105.278 71.0245 105.303 71.2802C105.33 71.5886 105.33 71.8985 105.303 72.2077L105.33 72.1985Z" fill="#1C1917"/>
<path id="Vector_10" d="M108.044 74.7008C108.002 75.2565 107.909 75.8077 107.765 76.3466C107.712 76.5458 107.624 76.7328 107.562 76.9321C107.377 77.6348 107.099 78.3094 106.734 78.9374C106.703 78.9855 106.669 79.0313 106.632 79.0748C106.604 79.1076 106.571 79.1359 106.534 79.1588C106.506 79.1839 106.469 79.1977 106.431 79.1977C106.392 79.1977 106.355 79.1839 106.327 79.1588C106.267 79.0821 106.232 78.9898 106.224 78.8931L106.172 78.6397C106.172 78.5466 106.127 78.4496 106.101 78.3519C106.074 78.2542 105.866 78.2367 105.658 78.3519C105.539 78.4181 105.442 78.5177 105.379 78.6383C105.316 78.7588 105.29 78.8952 105.304 79.0306C105.337 79.2237 105.392 79.413 105.467 79.5939C105.548 79.7618 105.661 79.913 105.799 80.0374C105.935 80.1466 106.1 80.2122 106.273 80.2283C106.447 80.2428 106.622 80.2138 106.782 80.1435L107.056 79.9573C107.147 79.887 107.228 79.8069 107.3 79.7183C107.336 79.6825 107.38 79.6206 107.411 79.6069L107.473 79.5229C107.514 79.4672 107.553 79.4092 107.588 79.3496C107.73 79.1275 107.851 78.8931 107.951 78.6489C108.163 78.1252 108.456 77.6328 108.637 77.0962C108.836 76.5061 108.984 75.9008 109.08 75.2863C109.143 74.9 109.178 74.5107 109.186 74.1199C109.227 73.4634 109.036 72.8135 108.647 72.2832C108.455 72.0811 108.225 71.9204 107.969 71.8113C107.713 71.7021 107.437 71.6469 107.159 71.6489C107.049 71.6355 106.937 71.6355 106.827 71.6489C106.419 71.7061 106.335 71.8481 106.384 72.1809C106.379 72.2562 106.379 72.3316 106.384 72.4069C106.402 72.5239 106.459 72.6313 106.546 72.7119C106.633 72.7925 106.744 72.8416 106.862 72.8512C107.127 72.8588 107.388 72.9077 107.637 72.997C107.765 73.0771 107.801 73.0901 107.894 73.3168C108.023 73.7694 108.054 74.2443 107.986 74.7099L108.044 74.7008ZM109.385 130.047C110.051 128.975 110.569 127.818 110.926 126.608C111.285 125.434 111.558 124.234 111.74 123.019C112.096 120.624 112.277 118.206 112.281 115.784C112.281 114.01 112.281 112.266 112.192 110.518C111.798 104.363 111.067 98.2329 110.001 92.1573C109.895 91.487 109.779 90.826 109.691 90.1473C109.691 90.068 109.691 89.9878 109.664 89.9168V89.8855V89.7702L109.718 89.2733C109.757 88.9367 109.797 88.5901 109.819 88.2267C109.831 88.0391 109.831 87.851 109.819 87.6634C109.803 87.4502 109.76 87.2398 109.691 87.0374C109.529 86.6399 109.255 86.2979 108.903 86.0527C108.273 85.6471 107.563 85.3797 106.822 85.268C105.05 84.997 103.246 84.997 101.474 85.268C100.594 85.3779 99.7212 85.5436 98.8618 85.7641C98.4191 85.8802 98.0076 85.9993 97.5824 86.1412C97.1603 86.2977 96.7481 86.4786 96.3473 86.6825C95.8336 86.9313 95.6519 87.1267 95.7229 87.2237C95.7939 87.3214 96.0901 87.2947 96.555 87.2687C98.0697 87.2398 99.5811 87.1151 101.08 86.8954C101.923 86.7568 102.773 86.6608 103.625 86.6077C104.457 86.535 105.293 86.5246 106.127 86.5764C106.519 86.597 106.909 86.6535 107.292 86.7451C107.622 86.8176 107.935 86.9542 108.212 87.1489C108.304 87.2108 108.382 87.2913 108.441 87.3852C108.499 87.4791 108.538 87.5842 108.553 87.6939C108.572 88.0791 108.556 88.4651 108.505 88.8473L108.438 89.5176C108.438 89.6458 108.416 89.7305 108.411 89.9214C108.407 90.1122 108.411 90.1031 108.411 90.1786L108.438 90.3649C108.505 90.8084 108.579 91.2519 108.65 91.6954L109.093 94.326C109.389 96.0771 109.67 97.8351 109.939 99.6008C110.571 103.909 110.952 108.251 111.081 112.603C111.162 114.991 111.116 117.381 110.944 119.763C110.8 122.131 110.369 124.473 109.66 126.737C109.234 128.1 108.542 129.365 107.624 130.459C107.163 130.977 106.615 131.41 106.003 131.737C105.372 132.041 104.701 132.256 104.011 132.376C102.934 132.553 101.84 132.597 100.753 132.504C99.6493 132.425 98.552 132.276 97.4672 132.06C95.2975 131.599 93.1615 130.991 91.074 130.241C87.8244 129.102 84.7344 127.718 81.6221 126.315L79.5725 125.393C76.987 124.27 76.0702 124.062 75.3969 124.169C75.2485 124.178 75.1007 124.195 74.9542 124.221C74.8 124.275 74.9855 124.421 75.4237 124.688C76.0954 125.076 76.7878 125.43 77.4962 125.747C83.0122 128.311 88.9092 131.071 95.2802 132.744C96.4702 133.055 97.6763 133.301 98.8931 133.48C100.131 133.674 101.385 133.75 102.638 133.706C103.955 133.673 105.25 133.371 106.446 132.819C107.053 132.513 107.613 132.12 108.106 131.652C108.577 131.188 108.997 130.675 109.359 130.122L109.385 130.047ZM77.1099 138.089C76.8598 137.337 76.6309 136.579 76.4237 135.814C76.3527 135.534 76.3305 135.246 76.2595 134.97C76.0024 133.993 75.8147 132.998 75.6977 131.994C75.6629 131.551 75.6703 131.105 75.7199 130.663C75.7595 130.383 75.8168 130.104 75.8481 129.829C75.9092 129.553 75.9244 129.268 75.8924 128.986C75.8702 128.805 75.4763 128.742 75.0733 128.827C74.6702 128.911 74.2542 129.155 74.1878 129.523C74.01 130.792 74.09 132.083 74.4229 133.321C74.6214 134.052 74.6664 134.824 74.8344 135.565C75.0114 136.377 75.2504 137.171 75.4809 137.96L75.9237 139.407C76.145 140.134 76.4015 140.853 76.5832 141.58C76.7061 142.145 76.7947 142.718 76.8489 143.293C76.8489 143.421 76.8489 143.546 76.8931 143.67C76.9725 144.114 77.1053 144.242 77.5305 144.256H77.8183C77.9751 144.242 78.1198 144.166 78.221 144.045C78.3221 143.925 78.3714 143.769 78.358 143.612C78.3394 142.518 78.1591 141.433 77.8229 140.392L77.1321 138.072L77.1099 138.089ZM77.9733 190.724C76.1781 191.766 74.2751 192.609 72.2977 193.24C70.3449 193.861 68.304 194.161 66.255 194.127C64.7792 194.077 63.3213 193.788 61.9382 193.271C60.71 192.82 59.5462 192.21 58.4763 191.457C57.3957 190.684 56.3971 189.802 55.4962 188.826C53.6774 186.823 52.1363 184.585 50.9145 182.172C49.809 180.023 48.8822 177.787 48.1435 175.486C47.1779 172.55 46.5 169.524 45.7298 166.53C45.4908 165.593 45.1237 165.793 44.9069 166.676C44.6433 168.082 44.7052 169.529 45.0878 170.908C45.861 174.056 46.8978 177.134 48.187 180.108C49.4776 183.124 51.1824 185.944 53.2519 188.489C54.5366 190.043 56.0004 191.439 57.613 192.65C59.2819 193.868 61.172 194.749 63.1779 195.245C65.3771 195.721 67.6489 195.758 69.8626 195.356C72.037 194.956 74.1503 194.276 76.1496 193.333C78.5829 192.185 80.9015 190.808 83.0741 189.221C86.3278 186.825 89.427 184.226 92.3534 181.44C94.6336 179.332 96.8649 177.252 99.1267 175.229L100.632 173.898C102.523 172.279 103.094 171.849 103.346 171.237C103.42 171.094 103.48 170.946 103.527 170.792C103.567 170.593 103.337 170.553 102.846 170.686C102.55 170.786 102.262 170.911 101.987 171.059C101.618 171.267 101.261 171.498 100.92 171.751C98.6882 173.491 96.5539 175.353 94.5267 177.327C92.4504 179.279 90.3611 181.253 88.2008 183.147C84.9954 185.951 81.6397 188.613 77.9603 190.689L77.9733 190.724Z" fill="#1C1917"/>
<path id="Vector_11" d="M133.527 193.95C130.535 192.446 127.566 190.899 124.619 189.309C123.544 188.724 122.494 188.099 121.423 187.512C117.65 185.437 113.896 183.321 110.24 181.053C108.619 180.042 107.012 178.991 105.476 177.882C104.98 177.531 104.484 177.181 103.997 176.817L102.54 175.717C101.553 175.007 100.61 174.248 99.6008 173.57C98.9763 173.126 98.7992 173.512 99.0649 174.208C99.2481 174.656 99.4939 175.074 99.7954 175.45C100.186 175.97 100.652 176.429 101.177 176.812C105.226 179.803 109.474 182.514 113.892 184.926C116.548 186.386 119.205 188.031 121.905 189.513C124.865 191.16 127.854 192.754 130.87 194.295L133.66 195.715L134.425 196.101C134.594 196.148 134.769 196.173 134.944 196.172L135.342 196.194C137.461 196.298 139.584 196.244 141.695 196.034C142.488 195.977 143.276 195.853 144.063 195.764C144.851 195.669 145.634 195.539 146.41 195.373C148.824 194.961 151.195 194.33 153.494 193.488C154.002 193.311 154.502 193.108 154.99 192.88C155.433 192.667 155.836 192.499 156.137 192.321C156.388 192.17 156.63 192.006 156.863 191.829C157.154 191.634 157.373 191.347 157.482 191.013C157.533 190.89 157.567 190.762 157.585 190.631C157.585 190.272 156.747 190.441 155.477 191.048C153.508 191.89 151.485 192.597 149.421 193.164C147.286 193.718 145.116 194.124 142.926 194.379C141.285 194.576 139.634 194.685 137.981 194.704C137.157 194.704 136.324 194.704 135.51 194.66L134.961 194.624L134.705 194.495L133.58 193.918L133.527 193.95Z" fill="#1C1917"/>
<path id="Vector_12" d="M177.986 194.078L178.14 194.1C178.188 194.105 178.232 194.123 178.269 194.153C178.291 194.247 178.18 194.283 178.092 194.331H178.043L177.853 194.393L177.41 194.531C177.095 194.619 176.777 194.699 176.453 194.775C175.811 194.925 175.156 195.054 174.502 195.17C173.536 195.338 172.562 195.436 171.592 195.56C168.153 196 164.687 196.203 161.22 196.167C159.683 196.142 158.149 196.034 156.624 195.844C155.654 195.719 154.689 195.555 153.728 195.4C153.348 195.298 152.993 195.12 152.684 194.876C152.375 194.675 152.119 194.401 151.94 194.078C151.919 194.012 151.879 193.954 151.826 193.91C151.773 193.866 151.708 193.838 151.639 193.83C151.497 193.83 151.25 193.905 151.13 194.273C151.081 194.516 151.082 194.767 151.133 195.009C151.184 195.252 151.284 195.481 151.427 195.684C151.643 196.05 151.938 196.364 152.29 196.602C152.642 196.841 153.042 196.998 153.463 197.063L153.848 197.131L154.614 197.246C155.123 197.321 155.637 197.388 156.146 197.441C157.173 197.552 158.195 197.623 159.223 197.667C161.277 197.749 163.335 197.714 165.386 197.56C167.838 197.379 170.393 197.276 172.912 196.94C174.284 196.749 175.653 196.495 177.016 196.194C177.357 196.115 177.698 196.021 178.039 195.928L178.574 195.764L178.928 195.64C179.058 195.595 179.182 195.547 179.3 195.493C179.716 195.328 180.091 195.073 180.398 194.748C180.537 194.609 180.636 194.436 180.686 194.247C180.709 194.144 180.71 194.038 180.688 193.936C180.667 193.833 180.624 193.736 180.562 193.652C180.416 193.45 180.223 193.285 180 193.173C179.883 193.097 179.758 193.031 179.628 192.978L179.186 192.818C178.893 192.716 178.588 192.659 178.3 192.574L177.653 192.454C176.795 192.312 175.944 192.228 175.095 192.153C173.815 192.047 172.527 191.998 171.265 191.909L167.453 191.594C165.483 191.443 163.544 191.257 161.574 191.195C161.131 191.195 160.719 191.159 160.281 191.163C158.656 191.186 158.138 191.345 157.828 191.78C157.75 191.87 157.681 191.968 157.624 192.073C157.501 192.405 158.165 192.601 159.32 192.641C162.756 192.765 166.373 192.987 170.012 193.328C171.393 193.475 172.788 193.528 174.129 193.626C174.802 193.674 175.457 193.728 176.135 193.808C176.463 193.843 176.795 193.883 177.113 193.936L177.592 194.021L177.973 194.096L177.986 194.078ZM159.215 180.663L165.369 180.792C166.117 180.792 166.86 180.872 167.582 180.894C168.242 180.916 168.91 180.934 169.539 180.973H169.928C169.982 180.973 170.07 180.973 170.088 181.027L170.053 181.186C170.038 181.25 170.019 181.312 169.995 181.373L169.96 181.475V181.528L169.906 181.634C169.769 181.914 169.645 182.198 169.463 182.473C169.156 183.037 168.821 183.585 168.459 184.115C167.804 185.065 167.089 185.973 166.321 186.834C165.823 187.379 165.315 187.914 164.797 188.44L163.31 190.01C163.049 190.267 163.244 190.618 163.823 190.662C164.199 190.664 164.572 190.588 164.918 190.44C165.263 190.293 165.575 190.075 165.834 189.802C166.919 188.677 167.928 187.481 168.853 186.221C169.295 185.587 169.76 184.944 170.181 184.257C170.389 183.924 170.584 183.573 170.769 183.214C170.863 183.037 170.956 182.854 171.035 182.664L171.163 182.384L171.226 182.247C171.253 182.191 171.276 182.133 171.296 182.074C171.434 181.657 171.593 181.276 171.739 180.841V180.264C171.741 180.232 171.741 180.199 171.739 180.166C171.727 180.134 171.709 180.104 171.686 180.078C171.498 179.879 171.254 179.741 170.986 179.683C170.664 179.608 170.338 179.556 170.008 179.528L169.326 179.47C168.514 179.403 167.701 179.355 166.887 179.328L160.689 179.168C159.418 179.133 158.147 179.102 156.882 179.044C154.964 178.96 153.034 178.879 151.126 178.676C149.678 178.513 148.241 178.264 146.823 177.931C146.517 177.86 146.221 177.771 145.915 177.695C144.786 177.407 144.485 177.358 144.086 177.633C143.992 177.688 143.901 177.747 143.812 177.811C143.537 178.019 143.927 178.565 144.821 178.906C146.13 179.378 147.485 179.712 148.863 179.9C150.243 180.113 151.632 180.261 153.025 180.344C155.102 180.508 157.182 180.583 159.254 180.667L159.215 180.663Z" fill="#1C1917"/>
<path id="Vector_13" d="M192.516 179.488C192.656 178.695 192.697 177.886 192.635 177.083C192.591 176.56 192.461 176.047 192.25 175.566C192.224 175.489 192.193 175.413 192.157 175.34L192.029 175.153C191.94 175.035 191.832 174.932 191.71 174.847C191.468 174.669 191.173 174.579 190.873 174.59C190.562 174.602 190.258 174.691 189.988 174.847C189.845 174.923 189.708 175.011 189.58 175.109C189.444 175.202 189.368 175.273 189.257 175.362C188.963 175.631 188.687 175.919 188.429 176.223C187.929 176.799 187.486 177.394 187.053 177.997C186.428 178.884 185.804 179.731 185.233 180.627C184.259 182.145 183.334 183.684 182.391 185.201C181.917 185.96 181.444 186.714 180.952 187.446C180.71 187.805 180.456 188.156 180.19 188.498L179.995 188.733C179.929 188.808 179.853 188.883 179.827 188.91C179.797 188.951 179.755 188.983 179.708 189.004C179.66 189.024 179.608 189.031 179.557 189.025H179.221C177.53 189.025 175.892 189.092 174.258 189.11H168.033C167.444 189.088 167.409 189.482 167.936 189.939C168.755 190.522 169.742 190.823 170.747 190.795C172.244 190.795 173.718 190.747 175.174 190.685L177.388 190.592L178.477 190.551H179.982C180.021 190.547 180.06 190.539 180.097 190.529C180.246 190.482 180.386 190.411 180.514 190.321C180.64 190.23 180.76 190.131 180.872 190.024C180.979 189.917 181.027 189.859 181.098 189.779C181.336 189.495 181.559 189.199 181.766 188.892C182.165 188.311 182.527 187.73 182.882 187.144C184.21 184.926 185.693 182.659 187.15 180.49C187.92 179.295 188.769 178.152 189.691 177.069C189.806 176.946 189.921 176.821 190.041 176.706L190.218 176.537L190.351 176.422C190.403 176.368 190.466 176.325 190.535 176.295C190.604 176.265 190.678 176.249 190.753 176.249C190.918 176.289 190.962 176.466 191.006 176.608C191.023 176.666 191.037 176.726 191.046 176.786L191.086 176.999C191.108 177.15 191.117 177.318 191.13 177.478C191.15 178.325 191.056 179.171 190.851 179.993C190.652 180.844 190.399 181.681 190.094 182.5C189.141 185.01 187.977 187.434 186.615 189.748C186.088 190.638 185.537 191.514 184.963 192.375L184.104 193.63C183.839 194.045 183.543 194.439 183.218 194.81C182.961 195.097 182.663 195.343 182.333 195.542C182.167 195.655 181.972 195.717 181.771 195.72C181.74 195.718 181.709 195.718 181.678 195.72C181.65 195.707 181.62 195.698 181.589 195.693C181.54 195.678 181.493 195.659 181.447 195.635C181.215 195.525 180.967 195.45 180.713 195.414C180.593 195.414 180.456 195.365 180.345 195.369C180.163 195.369 180.111 195.564 180.212 195.924C180.24 196.028 180.285 196.127 180.345 196.216C180.41 196.34 180.491 196.455 180.584 196.558C180.706 196.693 180.847 196.811 181.001 196.908C181.093 196.962 181.191 197.011 181.292 197.06C181.406 197.1 181.524 197.13 181.643 197.148C181.823 197.184 182.008 197.192 182.192 197.17C182.364 197.146 182.534 197.108 182.701 197.055C182.993 196.945 183.268 196.796 183.52 196.611C183.963 196.286 184.36 195.901 184.697 195.466C184.866 195.263 185.016 195.045 185.166 194.827L185.556 194.242L186.353 193.031C187.423 191.377 188.417 189.675 189.333 187.93C190.015 186.598 190.661 185.268 191.21 183.879C191.796 182.466 192.241 180.997 192.538 179.496L192.516 179.488ZM47.8817 172.124C48.4618 172.083 49.0328 172.013 49.5954 171.924C49.8038 171.893 50.0115 171.924 50.2153 171.862C50.9328 171.711 51.6321 171.498 52.3267 171.281C52.6366 171.179 52.9512 171.117 53.2702 171.046C53.7182 171.013 54.1428 170.833 54.4786 170.535C54.5855 170.415 54.3412 170.092 54.071 169.803C53.8015 169.515 53.5183 169.24 53.3405 169.302C52.63 169.532 51.9326 169.8 51.2512 170.105C50.7956 170.263 50.3203 170.357 49.8389 170.385C49.3168 170.469 48.7893 170.544 48.2626 170.584C47.9387 170.612 47.6136 170.623 47.2886 170.62C46.8036 170.627 46.3198 170.57 45.8496 170.451C45.5205 170.338 45.2189 170.156 44.9641 169.919C44.9208 169.867 44.8736 169.818 44.8229 169.772C44.6458 169.617 44.5527 169.653 44.2122 169.896L43.9771 170.056C43.914 170.094 43.8593 170.144 43.8167 170.203C43.774 170.263 43.7442 170.331 43.7291 170.403C43.7141 170.474 43.7142 170.548 43.7295 170.62C43.7447 170.692 43.7747 170.76 43.8176 170.819C44.0908 171.192 44.4557 171.489 44.8756 171.68C45.2648 171.858 45.6757 171.983 46.0977 172.053C46.6931 172.144 47.2939 172.181 47.8954 172.163L47.8817 172.124ZM109.315 193.182C106.929 193.182 104.542 193.155 102.156 193.08C101.271 193.058 100.421 192.973 99.5527 192.942C96.4847 192.831 93.4252 192.676 90.3664 192.388C89.0149 192.255 87.6684 192.076 86.329 191.851C85.4741 191.709 84.6199 191.536 83.7695 191.381C83.3309 191.291 82.8874 191.227 82.4412 191.19C81.9454 191.143 81.4451 191.182 80.9626 191.305C80.6267 191.408 80.5199 191.607 80.6046 191.749C80.7557 191.909 80.9336 192.042 81.1313 192.14C81.7505 192.572 82.4509 192.873 83.1901 193.027C86.7261 193.662 90.3038 194.039 93.8947 194.153C96.0512 194.22 98.2779 194.455 100.474 194.543C102.891 194.641 105.313 194.695 107.73 194.726H112.189C114.442 194.726 116.704 194.672 118.94 194.646C120.679 194.646 122.384 194.682 124.111 194.646H125.244C126.661 194.584 127.108 194.433 127.378 194.007C127.447 193.914 127.506 193.814 127.555 193.71C127.661 193.386 127.068 193.164 126.041 193.147C122.986 193.084 119.776 193.147 116.549 193.147C114.144 193.173 111.738 193.173 109.333 193.147L109.315 193.182ZM43.2206 194.415L47.4573 194.313C47.971 194.313 48.4893 194.34 49.0023 194.313L54.4481 194.171C55.2542 194.171 56.0641 194.171 56.8657 194.202C57.8981 194.274 58.9347 194.261 59.9649 194.163C60.2878 194.118 60.2435 193.825 59.9649 193.528C59.6173 193.156 59.1439 192.927 58.6367 192.885C57.5909 192.827 56.5466 192.76 55.5015 192.765C54.4486 192.767 53.396 192.799 52.345 192.863C51.0786 192.938 49.7641 192.836 48.471 192.823H41.5473C40.2191 192.823 38.8909 192.823 37.5626 192.792C37.0489 192.792 36.5443 192.73 36.0397 192.681C35.5351 192.632 35.0305 192.552 34.5252 192.561H33.8573C33.0252 192.592 32.7588 192.711 32.5771 193.066C32.5321 193.143 32.4931 193.223 32.4626 193.306C32.3825 193.572 32.7237 193.808 33.3481 193.94L34.7115 194.229C35.1732 194.303 35.6389 194.35 36.1061 194.371C37.0527 194.422 38.0002 194.454 38.9481 194.464C40.3649 194.495 41.7908 194.464 43.216 194.464L43.2206 194.415Z" fill="#1C1917"/>
<path id="Vector_14" d="M188.628 196.966L191.462 196.864C191.807 196.864 192.153 196.891 192.498 196.864C193.715 196.811 194.937 196.722 196.155 196.634C196.695 196.598 197.244 196.593 197.784 196.585C198.488 196.631 199.194 196.559 199.874 196.372C200.091 196.301 200.007 195.977 199.786 195.666C199.684 195.503 199.546 195.365 199.382 195.263C199.219 195.162 199.034 195.099 198.842 195.081C197.514 195.116 196.119 195.134 194.721 195.289C193.866 195.344 193.008 195.344 192.153 195.289H187.557C186.672 195.289 185.786 195.289 184.901 195.258C184.215 195.227 183.541 195.098 182.847 195.032C182.692 195.032 182.541 194.992 182.404 194.988C181.824 194.988 181.629 195.134 181.563 195.608C181.563 195.719 181.527 195.831 181.523 195.937C181.521 196.113 181.583 196.284 181.698 196.418C181.813 196.552 181.973 196.639 182.147 196.664C183.355 196.886 184.58 196.996 185.808 196.992H188.647L188.628 196.966ZM64.6786 75.8893C63.3061 78.2939 60.1672 78.3336 57.7855 77.7924C56.9 77.584 57.2626 76.1954 58.1657 76.4C59.8878 76.7947 62.4115 76.9588 63.4389 75.1618C63.8817 74.355 65.1389 75.0825 64.6786 75.8893ZM50.6878 65.655C51.0933 65.8121 51.5149 65.9237 51.9451 65.9878C52.4369 66.0713 52.9419 66.0255 53.4107 65.855C53.7866 65.7155 54.112 65.4666 54.3451 65.1405C54.5481 64.8489 54.6603 64.5031 54.668 64.1473C54.6719 63.8355 54.6133 63.5261 54.4954 63.2374C54.2887 62.7455 54.0176 62.2833 53.6893 61.8626C53.4235 61.5021 53.152 61.1458 52.8748 60.7939C52.5469 60.3307 52.1514 59.9192 51.7015 59.5733C51.5557 59.4718 51.4138 59.6489 51.3611 59.9107C51.3253 60.0541 51.3207 60.2035 51.3474 60.3488C51.3741 60.4942 51.4316 60.6321 51.516 60.7534C52.2041 61.5559 52.8271 62.4117 53.3794 63.313C53.5145 63.5389 53.5825 63.7992 53.5741 64.0626C53.5687 64.1572 53.5432 64.2496 53.4993 64.3336L53.3977 64.4802C53.3573 64.5199 53.3267 64.5687 53.287 64.6038C53.0924 64.7718 52.8435 64.8618 52.587 64.8573C52.2556 64.8602 51.9261 64.8059 51.613 64.697C51.1868 64.5606 50.7735 64.3869 50.3779 64.1779C49.7575 63.857 49.1651 63.4847 48.6069 63.0649C48.3947 62.897 48.1901 62.7168 47.9962 62.5283L47.3939 61.9863C47.3075 61.9035 47.2157 61.8264 47.1191 61.7557C46.7435 61.5076 46.5618 61.4855 46.3313 61.6321C46.2825 61.6672 46.2252 61.6985 46.1855 61.7336C46.0527 61.871 46.0878 62.0931 46.2741 62.3771C46.5573 62.8069 46.8847 63.2054 47.2527 63.5657C47.6527 63.9107 48.0741 64.2305 48.5138 64.5244C49.1947 64.9802 49.9183 65.368 50.6741 65.6817L50.6878 65.655ZM81.2901 154.148C81.0534 153.674 80.7939 153.212 80.5107 152.764C80.4092 152.605 80.329 152.427 80.2229 152.267C79.833 151.719 79.4055 151.199 78.9435 150.71C78.7351 150.497 78.5542 150.266 78.3588 150.04C78.1335 149.736 77.8599 149.471 77.5489 149.255C77.4428 149.189 77.3321 149.335 77.2741 149.534C77.2369 149.634 77.2228 149.741 77.2328 149.847C77.2429 149.953 77.2768 150.056 77.3321 150.147C77.7748 150.715 78.2176 151.282 78.7313 151.828C79.0237 152.17 79.2779 152.544 79.4878 152.941C79.7496 153.363 80.0015 153.793 80.2229 154.237C80.3649 154.512 80.4886 154.792 80.6038 155.076C80.7886 155.505 80.9367 155.951 81.0466 156.406C81.1038 156.753 81.1306 157.105 81.126 157.457V157.684C81.126 157.968 81.2099 158.052 81.4313 158.128L81.5825 158.167C81.7504 158.198 81.8878 158.074 81.9451 157.839C82.097 157.125 82.0726 156.385 81.8741 155.683C81.7397 155.159 81.5544 154.65 81.3206 154.162L81.2901 154.148ZM68.784 119.688C67.9036 119.995 66.9669 120.107 66.0389 120.016C65.6915 119.986 65.3457 119.939 65.0031 119.874C63.7609 119.66 62.5422 119.327 61.3634 118.88C60.8321 118.694 60.3099 118.477 59.7878 118.264C59.1242 117.963 58.4353 117.721 57.729 117.54C57.5031 117.492 57.516 117.576 57.6756 117.714C57.929 117.914 58.2054 118.082 58.4993 118.215C59.824 118.883 61.1955 119.454 62.6031 119.923C63.4725 120.22 64.3596 120.46 65.2596 120.642C66.284 120.833 67.3344 120.833 68.3588 120.642C69.0055 120.51 69.6234 120.263 70.1832 119.914C70.609 119.599 70.92 119.153 71.0687 118.645C71.2084 118.162 71.2533 117.656 71.2008 117.155C71.1525 116.399 70.9635 115.659 70.6435 114.973C70.5759 114.818 70.4957 114.67 70.4038 114.528C70.0496 114.005 69.8107 113.93 69.5893 113.969C69.5398 113.975 69.4909 113.985 69.4435 114.001C69.3015 114.067 69.3901 114.311 69.5451 114.679C69.7985 115.217 70.0015 115.777 70.1519 116.352C70.3073 116.906 70.3509 117.485 70.2802 118.056C70.2382 118.421 70.0832 118.766 69.8374 119.04C69.7817 119.112 69.7153 119.173 69.6382 119.222C69.5603 119.283 69.4758 119.335 69.3863 119.377C69.1825 119.466 68.987 119.568 68.7748 119.653L68.784 119.688Z" fill="#1C1917"/>
<path id="Vector_15" d="M108.721 31.674C109.758 30.9216 110.783 30.151 111.793 29.3626C112.156 29.0748 112.555 28.8214 112.914 28.5244C114.183 27.4635 115.406 26.349 116.579 25.184C116.838 24.9226 117.102 24.6668 117.372 24.4168L118.137 23.6489C118.86 23.0291 119.477 22.2949 119.962 21.4756C120.103 21.2092 119.753 21.0321 119.298 20.974C119.057 20.9417 118.812 20.9649 118.582 21.0418C118.352 21.1187 118.142 21.2472 117.969 21.4176C116.792 22.7489 115.503 24.0794 114.215 25.4366C113.383 26.2289 112.495 26.9613 111.559 27.6282C110.565 28.4153 109.554 29.1802 108.526 29.9221C107.897 30.3878 107.251 30.8092 106.605 31.2527C105.621 31.9092 104.634 32.5832 103.611 33.1649C102.819 33.6076 101.992 33.9817 101.177 34.371C100.995 34.4603 100.814 34.5313 100.632 34.6244C99.9725 34.9657 99.8175 35.174 99.8794 35.6137C99.887 35.7122 99.9023 35.8099 99.9236 35.9061C100.017 36.2214 100.406 36.3008 100.934 36.1107C102.52 35.4959 104.042 34.7244 105.476 33.8076C106.573 33.1427 107.64 32.4107 108.712 31.6878L108.721 31.674Z" fill="#FF7C00"/>
<path id="Vector_16" d="M60.4023 117.882C61.1908 118.211 61.9916 118.504 62.8153 118.769C63.1122 118.863 63.4084 118.974 63.7008 119.049C64.8086 119.363 65.9746 119.413 67.1054 119.195C67.6669 119.067 68.1646 118.743 68.5092 118.282C68.7162 117.994 68.856 117.664 68.9181 117.316C68.9802 116.967 68.9631 116.609 68.868 116.268C68.8191 116.068 68.5489 116.144 68.2962 116.321C68.0405 116.485 67.8545 116.738 67.7741 117.031C67.7611 117.14 67.7405 117.248 67.7122 117.354C67.6809 117.452 67.6412 117.537 67.6054 117.621C67.5176 117.775 67.3916 117.903 67.2382 117.993C66.7906 118.223 66.2939 118.34 65.7908 118.335C65.0654 118.315 64.3473 118.185 63.6611 117.949C62.8703 117.728 62.093 117.461 61.3328 117.15C60.858 116.962 60.3895 116.758 59.9283 116.538C59.227 116.211 58.5443 115.845 57.8832 115.443C57.3899 115.117 56.9196 114.759 56.4756 114.369C56.3779 114.285 56.2893 114.196 56.1878 114.116C55.8206 113.819 55.6741 113.779 55.4092 113.925C55.3466 113.956 55.2855 113.99 55.2267 114.027C55.0458 114.156 55.0817 114.436 55.3382 114.719C56.1371 115.54 57.0585 116.231 58.0695 116.769C58.8176 117.212 59.5924 117.567 60.3763 117.922L60.4023 117.882Z" fill="#1C1917"/>
<path id="Vector_17" d="M80.0031 22.7931C80.2863 25.987 80.9328 28.9412 82.6282 31.4389C82.2662 30.1529 82.0262 28.8357 81.9114 27.5046C80.8572 15.5267 90.6015 5.03818 102.485 4.65345C103.135 4.63448 103.785 4.65078 104.433 4.7023C102.147 3.72144 99.6805 3.23472 97.1939 3.27406C94.7664 3.36719 92.3832 3.95345 90.1885 4.9962C87.993 6.03996 86.0325 7.519 84.426 9.34352C82.8183 11.1703 81.5976 13.3039 80.8374 15.6155C80.0773 17.9271 79.7934 20.3688 80.0031 22.7931Z" fill="#FF7C00"/>
<path id="Vector_18" d="M82.0389 10.2786C80.2744 13.147 79.1927 16.3825 78.8771 19.7354C78.5616 23.0883 79.0207 26.4688 80.2191 29.616C81.0707 31.9121 82.3041 34.0477 83.8672 35.9328C86.6359 39.238 90.3404 41.6275 94.4931 42.787C95.5206 43.0718 96.5687 43.2779 97.6275 43.4038C98.1542 43.4832 98.6901 43.497 99.2168 43.5412C99.7435 43.5855 100.279 43.5809 100.811 43.5412C101.872 43.5142 102.929 43.4135 103.976 43.2397L105.539 42.8977C106.056 42.7603 106.557 42.5824 107.066 42.4275C108.838 41.7873 110.531 40.9481 112.113 39.926C113.669 38.8764 115.107 37.6625 116.403 36.3053C118.066 34.5473 119.4 32.5056 120.344 30.2771C121.288 28.034 121.729 25.6113 121.637 23.1794C121.57 21.6618 121.194 21.9328 120.799 23.1794C120.702 23.4809 120.627 23.8443 120.516 24.2573C120.405 24.6695 120.255 25.1176 120.131 25.6099L120.038 25.987C119.998 26.1115 119.954 26.2397 119.91 26.3687C119.821 26.6305 119.737 26.9008 119.653 27.1756C119.52 27.7397 119.259 28.2977 119.069 28.9015C117.532 33.1473 114.344 36.7405 110.462 39.1267C108.523 40.3323 106.39 41.1938 104.157 41.6733C101.896 42.1343 99.574 42.2153 97.2863 41.913C94.4847 41.5243 91.8057 40.5133 89.4458 38.9542C85.5966 36.4099 82.7197 32.64 81.2817 28.2557C79.8414 23.8691 79.9226 19.1249 81.5122 14.7901C82.2059 12.9737 83.1363 11.2568 84.2794 9.68397C85.4651 8.14103 86.8479 6.76007 88.3924 5.57634C90.7529 3.78828 93.4856 2.55424 96.3878 1.96565C97.8326 1.68155 99.3024 1.54472 100.775 1.55725C102.241 1.60741 103.696 1.83084 105.109 2.2229C107.293 2.83367 109.366 3.78423 111.254 5.0397C113.129 6.26223 114.788 7.78666 116.164 9.55115C116.76 10.3107 117.286 11.1229 117.736 11.9779C118.317 13.1131 118.787 14.3015 119.14 15.5267C119.197 15.726 119.254 15.9084 119.317 16.0679C119.379 16.2275 119.414 16.3786 119.463 16.5115C119.556 16.742 119.666 16.9656 119.79 17.1817C119.879 17.3634 119.984 17.5374 120.105 17.7008C120.273 17.8779 120.397 17.5809 120.467 16.8573C120.507 15.7489 120.357 14.6419 120.024 13.584C119.348 11.4841 118.255 9.54212 116.811 7.87405C115.374 6.18472 113.687 4.72599 111.808 3.54886C109.9 2.34197 107.829 1.41569 105.658 0.798473C104.558 0.488382 103.434 0.267313 102.298 0.137405C102.013 0.103249 101.726 0.0780458 101.439 0.0618321C101.151 0.0442748 100.873 0 100.576 0H99.6901L98.8313 0.0534351C95.4159 0.272942 92.1059 1.32378 89.1893 3.1145C86.2836 4.90535 83.822 7.33218 81.9901 10.2122L82.0389 10.2786Z" fill="#FF7C00"/>
<path id="Vector_19" d="M113.446 27.1008C115.418 25.5228 117.337 23.8804 119.201 22.1764C119.882 21.5504 120.586 20.9519 121.242 20.3C122.413 19.1493 123.52 17.935 124.558 16.6626C125.08 16.0169 125.567 15.3445 126.019 14.6481C126.491 13.9353 126.879 13.1702 127.174 12.368C127.486 11.5942 127.563 10.7456 127.395 9.92826C127.288 9.49238 127.072 9.09083 126.767 8.76109C126.619 8.60315 126.461 8.45524 126.293 8.31834C126.121 8.19495 125.941 8.0835 125.753 7.98475C125.265 7.76191 124.74 7.63394 124.204 7.60765C123.696 7.58748 123.187 7.63082 122.689 7.73666C121.719 7.94176 120.804 8.35652 120.011 8.95193C119.759 9.15193 119.723 9.33819 119.83 9.4443C120.015 9.57788 120.235 9.65193 120.463 9.65804C121.242 9.7294 122.028 9.66011 122.782 9.45346C123.472 9.23574 124.208 9.21722 124.908 9.40002C125.181 9.48323 125.428 9.63666 125.624 9.84353C125.798 10.0328 125.908 10.2718 125.939 10.5267C125.957 11.273 125.776 12.0107 125.417 12.6649C125.022 13.4584 124.568 14.2207 124.057 14.9451C122.805 16.7199 121.109 18.3344 119.462 19.8962C117.647 21.6176 115.744 23.2626 113.795 24.8557C112.596 25.8386 111.376 26.797 110.138 27.7306C108.266 29.1458 106.366 30.5428 104.423 31.8298C102.908 32.8321 101.363 33.7107 99.8092 34.5932L98.7824 35.1565C97.5114 35.8886 97.1572 36.1947 97.0779 36.7046C97.0496 36.8191 97.0336 36.9374 97.029 37.0557C97.0511 37.4015 97.7153 37.3481 98.7114 36.8733C101.719 35.3728 104.601 33.6344 107.331 31.6748C109.417 30.2237 111.457 28.684 113.468 27.1138L113.446 27.1008ZM82.942 43.3634C83.9532 43.3467 84.9579 43.1979 85.9305 42.9206C86.2756 42.8313 86.6298 42.7733 86.9618 42.658C88.1239 42.2454 89.2544 41.7487 90.3443 41.1718C90.8267 40.9275 91.3229 40.7061 91.8145 40.4756C92.4677 40.2381 93.0688 39.8765 93.5847 39.4107C93.7397 39.2512 93.4924 38.9405 93.1427 38.7099C92.9848 38.5842 92.7979 38.5001 92.5991 38.4653C92.4002 38.4305 92.1958 38.4461 92.0046 38.5107C90.858 39.1496 89.6893 39.7794 88.5069 40.4573C87.7709 40.8292 86.9938 41.1136 86.1916 41.3046C85.3415 41.5706 84.4661 41.7476 83.5794 41.8328C83.0763 41.8874 82.5676 41.8486 82.0786 41.7183C81.9408 41.6841 81.8139 41.6157 81.7094 41.5195C81.605 41.4234 81.5264 41.3025 81.4809 41.168C81.4145 40.8266 81.4564 40.4729 81.6008 40.1565C81.8678 39.5944 82.2319 39.0838 82.6763 38.6481C82.7695 38.5458 82.8756 38.4573 82.9687 38.355C83.3137 37.9733 83.3496 37.7916 83.1282 37.4283C83.0821 37.3416 83.0317 37.2572 82.9771 37.1756C82.787 36.9176 82.4328 36.9008 82.0916 37.1756C81.5557 37.585 81.0921 38.0812 80.7198 38.6435C80.2548 39.3072 79.9849 40.0878 79.9405 40.897C79.9314 41.3129 80.0305 41.7241 80.2282 42.0901C80.4351 42.4634 80.7412 42.7702 81.1137 42.9779C81.6774 43.265 82.3003 43.4166 82.9328 43.4206L82.942 43.3634ZM134.339 19.5191C133.379 20.2366 132.49 21.0433 131.682 21.9283C131.545 22.0491 131.366 22.1129 131.183 22.1066C131 22.1004 130.827 22.0246 130.698 21.8947C130.568 21.7651 130.492 21.591 130.486 21.4077C130.48 21.2243 130.544 21.0456 130.665 20.9077C131.56 19.9391 132.546 19.0582 133.608 18.2771C134.379 17.758 135.101 19.0046 134.334 19.5191H134.339ZM133.891 29.3321C133.175 28.8503 132.381 28.496 131.544 28.2848C130.66 28.0542 131.031 26.6611 131.93 26.8924C132.886 27.1367 133.795 27.5397 134.617 28.0855C135.383 28.5954 134.666 29.8596 133.891 29.3321Z" fill="#FF7C00"/>
</g>
<defs>
<clipPath id="clip0_1_2038">
<rect width="200" height="197.71" fill="white"/>
</clipPath>
</defs>
</svg>
