<svg width="35" height="42" viewBox="0 0 35 42" fill="none" xmlns="http://www.w3.org/2000/svg">
<g id="Group 5">
<path id="Vector" d="M5.74666 20.3822H7.53678C7.24091 20.6109 6.95894 20.8676 6.70079 21.1605C5.61759 22.3893 5.02187 24.028 5.02187 25.7749C5.02187 29.3688 7.60032 32.2938 10.7685 32.2938H13.1295V34.0812C13.1295 34.3357 13.2805 34.5588 13.4979 34.6252C13.7143 34.6928 13.9437 34.5835 14.0569 34.3628L15.9373 30.6674L17.8178 34.3729C17.9082 34.5509 18.074 34.6556 18.2487 34.6556C18.2914 34.6556 18.3341 34.65 18.3768 34.6365C18.5942 34.5711 18.7451 34.3481 18.7451 34.0925V32.2938H34.2536C34.5276 32.2938 34.75 32.0415 34.75 31.7307V29.9185C34.75 29.8013 34.7113 29.6988 34.6577 29.6099C34.6517 29.5997 34.6537 29.5862 34.6477 29.5761C33.9081 28.4802 33.5169 27.1658 33.5169 25.7749C33.5169 24.3839 33.9081 23.0695 34.6477 21.9737C34.6547 21.9635 34.6517 21.95 34.6577 21.9399C34.7113 21.8498 34.75 21.7473 34.75 21.6313V19.8191C34.75 19.5082 34.5276 19.2559 34.2536 19.2559H29.7281V18.0069C29.7281 17.9956 29.7232 17.9855 29.7222 17.9742C29.7212 17.9506 29.7142 17.9314 29.7103 17.9089C29.6983 17.8334 29.6745 17.767 29.6398 17.705C29.6328 17.6927 29.6338 17.6769 29.6259 17.6645C28.8862 16.5686 28.495 15.2542 28.495 13.8633C28.495 12.4723 28.8862 11.158 29.6259 10.0621C29.6338 10.0497 29.6328 10.0339 29.6398 10.0215C29.6755 9.95959 29.6983 9.89314 29.7103 9.81768C29.7142 9.79515 29.7212 9.77488 29.7222 9.75235C29.7232 9.74109 29.7281 9.73095 29.7281 9.71969V7.9075C29.7281 7.59665 29.5057 7.34436 29.2317 7.34436H5.74666C4.20674 7.34436 2.76213 8.02126 1.67892 9.24891C0.595714 10.4766 0 12.1153 0 13.8633C0 17.4573 2.57845 20.3822 5.74666 20.3822ZM18.7432 26.338H32.5617C32.6322 27.408 32.8963 28.4284 33.3511 29.3553H18.7432V26.338ZM32.5627 25.2117H18.2467H13.626H10.0835C9.80943 25.2117 9.58703 25.464 9.58703 25.7749C9.58703 26.0857 9.80943 26.338 10.0835 26.338H13.1295V29.3553H10.9413C9.20081 29.3553 7.78499 27.7492 7.78499 25.7749C7.78499 24.8164 8.11264 23.9176 8.70537 23.2441C9.31002 22.5672 10.1043 22.1944 10.9403 22.1944H33.3501C32.8963 23.1213 32.6332 24.1406 32.5627 25.2117ZM17.7503 31.9818L16.3653 29.2618C16.2759 29.0884 16.1131 28.9814 15.9364 28.9814C15.7596 28.9814 15.5968 29.0873 15.5074 29.2607L14.1214 31.9796V31.7307V29.9185V26.338H17.7493V29.9185V31.7307L17.7503 31.9818ZM18.7432 31.1675V30.4816H33.7571V31.1675H18.7432ZM33.7571 21.0681H10.9423C9.84319 21.0681 8.80168 21.5558 8.00739 22.4456C7.22403 23.3342 6.79313 24.5157 6.79313 25.7749C6.79313 28.3698 8.65474 30.4816 10.9423 30.4816H13.1305V31.1675H10.7695C8.14838 31.1675 6.01572 28.7483 6.01572 25.7749C6.01572 24.3287 6.50917 22.9738 7.40374 21.9568C8.29929 20.9409 9.4937 20.3822 10.7695 20.3822H29.2327H33.7571V21.0681ZM27.5329 13.3001H5.06159C4.78756 13.3001 4.56516 13.5524 4.56516 13.8633C4.56516 14.1741 4.78756 14.4264 5.06159 14.4264H27.5329C27.6034 15.4953 27.8596 16.5179 28.3133 17.4437H5.92041C4.17993 17.4437 2.76411 15.8377 2.76411 13.8633C2.76411 12.9048 3.09176 12.006 3.68449 11.3325C4.28914 10.6556 5.08343 10.2828 5.91941 10.2828H28.3123C27.8596 11.2075 27.6034 12.2313 27.5329 13.3001ZM2.38087 10.0452C3.27643 9.02928 4.47084 8.47064 5.74666 8.47064H28.7353V9.15655H5.92041C4.82131 9.15655 3.77981 9.64423 2.98552 10.534C2.20216 11.4226 1.77126 12.6041 1.77126 13.8633C1.77126 16.4582 3.63286 18.57 5.92041 18.57H28.7353V19.2559H10.7685H5.74666C3.12551 19.2559 0.992857 16.8367 0.992857 13.8633C0.992857 12.416 1.48631 11.0611 2.38087 10.0452Z" fill="#010101"/>
</g>
</svg>
