<svg width="8" height="7" viewBox="0 0 8 7" fill="none" xmlns="http://www.w3.org/2000/svg">
<g id="XMLID_448_">
<path id="XMLID_449_" d="M6.84215 1.93082L5.44121 1.7399L4.81473 0.549727C4.63745 0.213133 4.27197 0 3.87142 0C3.47115 0 3.10539 0.213133 2.92811 0.549727L2.30149 1.7399L0.900693 1.93082C0.504493 1.98472 0.175191 2.24493 0.0514925 2.6019C-0.0722061 2.95888 0.0310163 3.35069 0.317542 3.61274L1.33125 4.53903L1.09185 5.84715C1.02411 6.21714 1.18638 6.59107 1.51021 6.8117C1.69351 6.93661 1.91034 7.00011 2.12856 7.00011C2.29588 7.00011 2.46403 6.96264 2.61789 6.88691L3.87114 6.26921L5.12439 6.88691C5.27839 6.96277 5.4464 7.00011 5.61372 7.00011C5.6147 7.00011 5.61582 7.00011 5.61666 7.00011C6.19757 6.99998 6.66838 6.5586 6.66838 6.014C6.66838 5.9313 6.65758 5.85083 6.63711 5.77404L6.41103 4.53903L7.42474 3.61274C7.71154 3.35069 7.81463 2.95888 7.69093 2.6019C7.56765 2.24493 7.23835 1.98472 6.84215 1.93082Z" fill="black"/>
</g>
</svg>
