<svg width="37" height="31" viewBox="0 0 37 31" fill="none" xmlns="http://www.w3.org/2000/svg">
<g id="certificate_svgrepo.com" clip-path="url(#clip0_32_200)">
<path id="Vector" d="M35.4583 1.29175V24.5417H30.8333V23.2501H33.9167V2.58341H3.08333V23.2501H15.4167V24.5417H1.54167V1.29175H35.4583ZM24.6667 3.87508H12.3333V5.16675H24.6667V3.87508ZM21.5833 7.75008V6.45841H15.4167V7.75008H21.5833ZM10.7917 14.2084H4.625V15.5001H10.7917V14.2084ZM10.7917 16.7917H4.625V18.0834H10.7917V16.7917ZM4.625 20.6667H7.70833V19.3751H4.625V20.6667ZM26.2083 16.7917C26.2083 17.3027 26.0275 17.8021 25.6887 18.227C25.3499 18.6518 24.8683 18.9829 24.3049 19.1784C23.7415 19.374 23.1216 19.4251 22.5235 19.3254C21.9254 19.2258 21.376 18.9797 20.9448 18.6184C20.5135 18.2572 20.2199 17.7968 20.1009 17.2957C19.9819 16.7946 20.043 16.2752 20.2764 15.8031C20.5097 15.3311 20.9049 14.9276 21.412 14.6438C21.919 14.3599 22.5152 14.2084 23.125 14.2084C23.9425 14.2091 24.7263 14.4815 25.3043 14.9658C25.8824 15.4501 26.2075 16.1068 26.2083 16.7917ZM24.6667 16.7917C24.6667 16.5363 24.5763 16.2865 24.4069 16.0741C24.2375 15.8617 23.9967 15.6962 23.715 15.5984C23.4333 15.5006 23.1233 15.4751 22.8242 15.5249C22.5252 15.5747 22.2505 15.6978 22.0349 15.8784C21.8193 16.059 21.6724 16.2892 21.613 16.5398C21.5535 16.7903 21.584 17.05 21.7007 17.286C21.8174 17.5221 22.015 17.7238 22.2685 17.8657C22.522 18.0077 22.8201 18.0834 23.125 18.0834C23.5338 18.0831 23.9256 17.9469 24.2147 17.7047C24.5037 17.4626 24.6663 17.1342 24.6667 16.7917ZM24.6698 11.2466C24.7393 11.4106 24.8491 11.5605 24.9919 11.6867C25.1348 11.813 25.3076 11.9128 25.4993 11.9797C25.691 12.0466 25.8973 12.0792 26.1049 12.0753C26.3125 12.0714 26.5168 12.0311 26.7048 11.957C27.0119 11.8368 27.3555 11.798 27.6897 11.8458C28.0238 11.8935 28.3326 12.0256 28.5748 12.2244C28.8145 12.4252 28.9743 12.6831 29.0323 12.9629C29.0902 13.2427 29.0435 13.5306 28.8985 13.7873C28.8093 13.9449 28.7605 14.1164 28.7552 14.2907C28.7499 14.465 28.7883 14.6384 28.8679 14.7995C28.9475 14.9607 29.0665 15.106 29.2173 15.2263C29.3681 15.3465 29.5473 15.4389 29.7434 15.4975C30.062 15.5928 30.3376 15.7684 30.5325 16.0001C30.7273 16.2318 30.8319 16.5083 30.8319 16.7917C30.8319 17.0752 30.7273 17.3517 30.5325 17.5834C30.3376 17.8151 30.062 17.9907 29.7434 18.086C29.5473 18.1443 29.3679 18.2365 29.217 18.3565C29.066 18.4766 28.9468 18.6218 28.867 18.7829C28.7873 18.9439 28.7487 19.1172 28.7539 19.2915C28.759 19.4659 28.8078 19.6373 28.897 19.7949C29.0058 19.9819 29.0619 20.1874 29.0607 20.3955C29.0596 20.6036 29.0013 20.8086 28.8904 20.9948C28.7795 21.181 28.619 21.3433 28.4213 21.4692C28.2235 21.5951 27.9938 21.6812 27.75 21.7207V30.8218L23.125 27.5436L18.5 30.8218V21.7207C18.2564 21.6811 18.0269 21.5951 17.8293 21.4693C17.6317 21.3435 17.4713 21.1813 17.3604 20.9953C17.2496 20.8092 17.1913 20.6044 17.19 20.3964C17.1887 20.1885 17.2445 19.9831 17.353 19.7962C17.4425 19.6386 17.4914 19.467 17.4967 19.2925C17.502 19.118 17.4635 18.9446 17.3838 18.7834C17.304 18.6222 17.1847 18.4768 17.0336 18.3567C16.8825 18.2365 16.703 18.1443 16.5066 18.086C16.188 17.9907 15.9124 17.8151 15.7175 17.5834C15.5227 17.3517 15.4181 17.0752 15.4181 16.7917C15.4181 16.5083 15.5227 16.2318 15.7175 16.0001C15.9124 15.7684 16.188 15.5928 16.5066 15.4975C16.7028 15.439 16.8822 15.3467 17.0331 15.2265C17.1841 15.1064 17.3033 14.961 17.3831 14.7999C17.4628 14.6387 17.5013 14.4653 17.4962 14.2909C17.491 14.1165 17.4422 13.945 17.353 13.7873C17.2078 13.5308 17.1609 13.2429 17.2185 12.9631C17.2762 12.6833 17.4357 12.4253 17.6752 12.2244C17.9174 12.0261 18.226 11.8944 18.5599 11.8469C18.8937 11.7993 19.2369 11.8382 19.5437 11.9583C19.7317 12.0324 19.9361 12.0726 20.1438 12.0764C20.3515 12.0802 20.5578 12.0475 20.7495 11.9805C20.9413 11.9135 21.1141 11.8135 21.2569 11.6871C21.3997 11.5607 21.5093 11.4107 21.5787 11.2466C21.6922 10.9792 21.9017 10.7479 22.1784 10.5842C22.4551 10.4206 22.7855 10.3328 23.1242 10.3328C23.4629 10.3328 23.7933 10.4206 24.0701 10.5842C24.3468 10.7479 24.5563 10.9792 24.6698 11.2466ZM26.2083 28.0383V21.5283C25.8801 21.4934 25.5475 21.5548 25.2671 21.7019C24.9867 21.8491 24.7756 22.0729 24.6698 22.3356C24.556 22.6025 24.3464 22.8334 24.0699 22.9967C23.7933 23.16 23.4633 23.2476 23.125 23.2476C22.7867 23.2476 22.4567 23.16 22.1801 22.9967C21.9036 22.8334 21.694 22.6025 21.5803 22.3356C21.4744 22.0729 21.2633 21.8491 20.9829 21.7019C20.7025 21.5548 20.3699 21.4934 20.0417 21.5283V28.037L23.125 25.8515L26.2083 28.0383ZM23.2175 21.9042C23.4273 21.4099 23.8145 20.9822 24.3259 20.6797C24.8374 20.3772 25.4481 20.2148 26.0742 20.2147C26.5378 20.2188 26.995 20.3056 27.4155 20.4691L27.5049 20.3516C27.3227 20.0309 27.2228 19.6818 27.2119 19.3267C27.2009 18.9717 27.279 18.6187 27.4412 18.2905C27.6034 17.9624 27.846 17.6664 28.1534 17.4218C28.4607 17.1772 28.8259 16.9894 29.2254 16.8705V16.713C28.8262 16.5938 28.4613 16.4058 28.1543 16.1611C27.8472 15.9164 27.6048 15.6205 27.4426 15.2925C27.2805 14.9645 27.2023 14.6116 27.213 14.2567C27.2237 13.9017 27.3232 13.5527 27.5049 13.2319L27.3708 13.1234C26.988 13.2756 26.5713 13.3589 26.1477 13.3678C25.7241 13.3766 25.303 13.311 24.9116 13.175C24.5202 13.039 24.1672 12.8358 23.8754 12.5784C23.5835 12.321 23.3594 12.0151 23.2175 11.6806H23.0325C22.8906 12.0151 22.6665 12.321 22.3746 12.5784C22.0828 12.8358 21.7298 13.039 21.3384 13.175C20.947 13.311 20.5259 13.3766 20.1023 13.3678C19.6787 13.3589 19.2621 13.2756 18.8793 13.1234L18.7451 13.2319C18.9269 13.5527 19.0263 13.9017 19.037 14.2567C19.0477 14.6116 18.9695 14.9645 18.8074 15.2925C18.6453 15.6205 18.4028 15.9164 18.0958 16.1611C17.7887 16.4058 17.4238 16.5938 17.0246 16.713V16.8705C17.4241 16.9894 17.7893 17.1772 18.0966 17.4218C18.404 17.6664 18.6466 17.9624 18.8088 18.2905C18.971 18.6187 19.0491 18.9717 19.0381 19.3267C19.0272 19.6818 18.9273 20.0309 18.7451 20.3516L18.8345 20.4678C19.2551 20.3047 19.7123 20.2184 20.1758 20.2147C20.8019 20.2148 21.4126 20.3772 21.9241 20.6797C22.4356 20.9822 22.8227 21.4099 23.0325 21.9042L23.125 21.9584L23.2175 21.9042Z" fill="black"/>
</g>
<defs>
<clipPath id="clip0_32_200">
<rect width="37" height="31" fill="white"/>
</clipPath>
</defs>
</svg>
