<svg width="32" height="30" viewBox="0 0 32 30" fill="none" xmlns="http://www.w3.org/2000/svg">
<g id="ic_fluent_people_community_28_regular">
<path id="&#240;&#159;&#142;&#168;-Color" d="M20.3333 19.6757C21.9902 19.6757 23.3333 21.0914 23.3333 22.8378V24.9487L23.3228 25.1012C22.9085 28.0893 20.362 29.5262 16.0891 29.5262C11.8315 29.5262 9.2444 28.1058 8.68595 25.1519L8.66667 24.9459V22.8378C8.66667 21.0914 10.0098 19.6757 11.6667 19.6757H20.3333ZM20.3333 21.7838H11.6667C11.1144 21.7838 10.6667 22.2557 10.6667 22.8378V24.834C11.0397 26.5211 12.7342 27.4181 16.0891 27.4181C19.4438 27.4181 21.0622 26.5308 21.3333 24.8661V22.8378C21.3333 22.2557 20.8856 21.7838 20.3333 21.7838ZM21.6581 11.2417L29 11.2432C30.6569 11.2432 32 12.659 32 14.4054V16.5163L31.9895 16.6687C31.5751 19.6569 29.0287 21.0938 24.7557 21.0938L24.3359 21.0891C23.9425 20.0862 23.2201 19.265 22.3111 18.7727C22.9976 18.9145 23.8108 18.9857 24.7557 18.9857C28.1105 18.9857 29.7289 18.0984 30 16.4336V14.4054C30 13.8233 29.5523 13.3514 29 13.3514H22C22 12.6116 21.8795 11.9015 21.6581 11.2417ZM3 11.2432L10.3419 11.2417C10.1574 11.7915 10.043 12.3763 10.01 12.984L10 13.3514H3C2.44772 13.3514 2 13.8233 2 14.4054V16.4016C2.37305 18.0887 4.0675 18.9857 7.42239 18.9857C8.25182 18.9857 8.9751 18.9314 9.59813 18.8246C8.73045 19.3213 8.04261 20.1218 7.6618 21.0903L7.42239 21.0938C3.16482 21.0938 0.577735 19.6733 0.0192836 16.7195L0 16.5135V14.4054C0 12.659 1.34315 11.2432 3 11.2432ZM16 8.43243C18.5773 8.43243 20.6667 10.6347 20.6667 13.3514C20.6667 16.068 18.5773 18.2703 16 18.2703C13.4227 18.2703 11.3333 16.068 11.3333 13.3514C11.3333 10.6347 13.4227 8.43243 16 8.43243ZM16 10.5405C14.5272 10.5405 13.3333 11.799 13.3333 13.3514C13.3333 14.9037 14.5272 16.1622 16 16.1622C17.4728 16.1622 18.6667 14.9037 18.6667 13.3514C18.6667 11.799 17.4728 10.5405 16 10.5405ZM24.6667 0C27.244 0 29.3333 2.20228 29.3333 4.91892C29.3333 7.63556 27.244 9.83784 24.6667 9.83784C22.0893 9.83784 20 7.63556 20 4.91892C20 2.20228 22.0893 0 24.6667 0ZM7.33333 0C9.91066 0 12 2.20228 12 4.91892C12 7.63556 9.91066 9.83784 7.33333 9.83784C4.756 9.83784 2.66667 7.63556 2.66667 4.91892C2.66667 2.20228 4.756 0 7.33333 0ZM24.6667 2.10811C23.1939 2.10811 22 3.36655 22 4.91892C22 6.47129 23.1939 7.72973 24.6667 7.72973C26.1394 7.72973 27.3333 6.47129 27.3333 4.91892C27.3333 3.36655 26.1394 2.10811 24.6667 2.10811ZM7.33333 2.10811C5.86057 2.10811 4.66667 3.36655 4.66667 4.91892C4.66667 6.47129 5.86057 7.72973 7.33333 7.72973C8.80609 7.72973 10 6.47129 10 4.91892C10 3.36655 8.80609 2.10811 7.33333 2.10811Z" fill="#212121"/>
</g>
</svg>
