<svg width="188" height="257" viewBox="0 0 188 257" fill="none" xmlns="http://www.w3.org/2000/svg">
<g id="pcRy42hZG97cATXsOBte6pW4qwE.svg" clip-path="url(#clip0_43_431)">
<path id="Vector" d="M131.372 170.546L113.718 161.688C108.87 159.24 104.536 157.71 99.205 155.794C98.024 155.365 99.131 155.09 99.817 155.341C104.781 157.128 109.58 158.824 114.288 161.186L132.407 170.258C133.459 170.785 131.794 170.754 131.372 170.534V170.546ZM146.149 146.44L121.768 150.242C120.923 150.37 119.931 149.183 121.156 149.017L145.543 145.216C146.381 145.082 147.379 146.269 146.155 146.44H146.149Z" fill="#FF7C00"/>
<path id="Vector_2" d="M96.8199 121.068C94.9839 121.821 88.4769 134.027 88.5749 136.108C91.4639 136.634 96.0849 122.219 97.6949 121.417L96.8199 121.068ZM26.5749 33.864C26.6349 33.623 26.6769 33.377 26.7029 33.13V32.689V32.818L26.6729 32.94C26.6488 32.9728 26.6318 33.0103 26.6229 33.05C26.6359 32.64 26.6029 32.23 26.5259 31.826C26.4759 31.569 26.1889 31.556 26.0909 31.826L25.8209 32.646L25.7539 32.848H25.8219L26.0479 32.898H26.1029C25.4119 32.738 25.9129 32.848 25.7599 32.811V32.731C25.7599 32.609 25.7299 32.824 25.6999 32.946C25.6689 33.069 25.3999 34.586 25.1479 36.276C24.8979 37.966 24.5909 39.839 24.4999 40.806C24.281 42.691 24.2214 44.591 24.3219 46.486C24.4014 48.4654 24.8002 50.4189 25.5029 52.271C26.2403 54.1908 27.5001 55.8659 29.1399 57.107C29.5059 57.375 29.8899 57.618 30.2899 57.835C30.4859 57.939 30.6759 58.074 30.9019 58.16L31.5149 58.41C31.8689 58.539 32.2179 58.704 32.5799 58.815L33.6749 59.102C34.3999 59.292 35.1349 59.432 35.8789 59.525C37.4261 59.8 39.0181 59.6712 40.5009 59.151C40.9895 58.9487 41.4657 58.7177 41.9269 58.459C42.4601 58.1526 42.9481 57.7737 43.3769 57.333C44.1446 56.5731 44.8056 55.7126 45.3419 54.775C46.1695 53.3097 46.8486 51.7654 47.3689 50.165C48.1149 47.76 48.8619 45.36 49.5659 42.942C49.6829 42.603 49.7789 42.258 49.8539 41.908C49.9939 41.148 50.1889 40.399 50.4349 39.668C50.7417 38.6329 51.0274 37.5917 51.2919 36.545C51.4209 36.031 51.4939 35.505 51.5799 34.985C51.6659 34.465 51.4149 34.715 51.3529 34.868C51.1699 35.321 51.1939 34.918 51.1329 34.868C51.0719 34.819 51.0839 34.819 51.0599 34.868C50.9979 35.039 48.9659 40.751 48.7399 41.368C48.7399 41.412 48.5439 41.981 48.2619 42.813C47.9809 43.646 47.5949 44.76 47.2089 45.874C46.4189 48.145 45.5749 50.502 45.3729 50.943C45.1709 51.383 44.9929 51.916 44.7919 52.393C44.277 53.5052 43.6271 54.5497 42.8569 55.503C42.3656 56.1134 41.7786 56.6402 41.1189 57.063C40.7997 57.272 40.4616 57.4505 40.1089 57.596C38.8465 58.0718 37.485 58.2234 36.1489 58.037C35.8729 58.037 35.5849 57.957 35.2969 57.909C34.6934 57.8037 34.0985 57.6543 33.5169 57.462C32.9369 57.302 32.3689 57.097 31.8209 56.85C31.5458 56.7323 31.2814 56.5907 31.0309 56.427C30.7739 56.268 30.5109 56.127 30.2599 55.968L29.5679 55.405L29.2249 55.117L28.9249 54.787C28.7229 54.56 28.5089 54.346 28.3129 54.107L27.8109 53.342C27.6357 53.0892 27.4881 52.8183 27.3709 52.534C27.2274 52.2617 27.0986 51.982 26.9849 51.696C26.9109 51.487 26.8199 51.279 26.7399 51.083C26.621 50.8237 26.5289 50.553 26.4649 50.275C25.7845 47.3122 25.6144 44.255 25.9619 41.235C26.0179 40.885 26.0419 39.863 26.1649 38.822C26.2869 37.782 26.3729 36.735 26.4339 36.332C26.4949 35.927 26.4829 34.268 26.5739 33.864H26.5749ZM21.1529 24.573C22.1689 22.669 25.6519 21.175 26.8579 24.732C27.6443 23.5257 28.1699 22.1683 28.4009 20.747C32.0729 20.514 33.7199 18.843 33.9889 18.635C34.2589 18.427 42.8649 28.098 52.6769 32.102C59.5639 34.899 67.1719 31.086 67.9809 22.399C68.4639 17.049 65.9059 12.397 61.9699 9.202C57.8923 5.8878 52.8924 3.91074 47.6509 3.54C43.8069 3.27 39.5339 4.605 35.9349 2.72C31.8699 0.582997 29.8139 -0.800003 25.0949 2.548C18.2269 7.433 16.4329 17.466 21.1529 24.573Z" fill="#1C1917"/>
<path id="Vector_3" d="M53.768 5.93298C57.0458 7.01905 60.0506 8.79995 62.577 11.154C65.0624 13.4804 66.6308 16.6213 66.997 20.006C67.2213 22.4524 66.7345 24.9115 65.595 27.088C64.6051 28.9858 63.0052 30.4952 61.053 31.373C59.0696 32.2217 56.8676 32.4167 54.766 31.93C54.2346 31.824 53.7128 31.6745 53.206 31.483C52.685 31.312 52.158 31.073 51.644 30.871C50.6108 30.4012 49.5998 29.8843 48.614 29.322C46.6323 28.1869 44.7284 26.9211 42.915 25.533C41.3629 24.3483 39.86 23.1006 38.41 21.793C37.682 21.138 36.972 20.471 36.255 19.803L35.147 18.751C34.8947 18.4938 34.6059 18.2751 34.29 18.102C33.978 17.931 33.678 18.102 33.397 18.292L33.072 18.542L32.901 18.672L32.803 18.732C32.1667 19.147 31.4711 19.4629 30.74 19.669C30.37 19.781 29.995 19.869 29.614 19.932L29.326 19.969L28.977 20.018L27.992 20.104H27.869C27.826 20.104 27.777 20.104 27.784 20.159L27.728 20.398L27.618 20.875L27.502 21.352L27.416 21.677C27.361 21.867 27.306 22.057 27.245 22.24L27.165 22.479L27.122 22.595C27.0634 22.7465 26.9939 22.8936 26.914 23.035C26.8729 23.1069 26.8282 23.1766 26.78 23.244C26.749 23.305 26.743 23.244 26.725 23.195L26.682 23.079C26.6389 22.9939 26.5898 22.912 26.535 22.834L26.443 22.73V22.7H26.486L26.302 22.552C25.8055 22.1449 25.1868 21.9163 24.545 21.903C23.9657 21.9032 23.3925 22.0222 22.8611 22.2527C22.3296 22.4832 21.851 22.8202 21.455 23.243C20.842 23.856 20.781 24.37 20.903 24.468C21.026 24.566 21.375 24.346 21.889 24.088C22.5302 23.7431 23.2423 23.5504 23.97 23.525C24.325 23.521 24.67 23.633 24.956 23.844C24.986 23.87 25.019 23.892 25.053 23.911L25.133 24.015L25.182 24.058L25.256 24.15L25.512 24.67C25.843 25.282 26.229 26.384 26.559 27.18L26.982 26.647L27.545 25.877C27.972 25.34 28.335 24.757 28.628 24.137C28.8791 23.5935 29.0861 23.0307 29.247 22.454L29.399 21.891H29.497C30.364 21.771 31.214 21.554 32.032 21.242C32.452 21.082 32.862 20.895 33.256 20.679C33.452 20.569 33.642 20.453 33.831 20.324L33.972 20.232H34.009L34.945 21.095C35.637 21.745 36.347 22.393 37.063 23.03C38.5035 24.3101 39.9923 25.535 41.526 26.702C44.5978 29.1072 47.9652 31.1089 51.546 32.658C52.343 32.988 53.161 33.265 53.995 33.485C54.423 33.571 54.852 33.681 55.28 33.748L56.596 33.877C58.3783 33.9651 60.1575 33.6471 61.799 32.947C63.4478 32.2183 64.8938 31.0978 66.011 29.683C67.1157 28.2913 67.9071 26.6775 68.331 24.952C68.811 23.092 68.934 21.158 68.691 19.252C68.5585 18.3045 68.3416 17.3708 68.043 16.462C67.7286 15.5587 67.3372 14.6842 66.873 13.848C65.9331 12.2039 64.7393 10.7186 63.336 9.44698C61.937 8.20042 60.4031 7.11402 58.763 6.20798C54.7476 3.95281 50.2001 2.81759 45.596 2.92098C43.876 2.98898 42.206 3.19098 40.565 3.17198C39.7552 3.17072 38.9474 3.09102 38.153 2.93398C37.3742 2.7611 36.6226 2.48288 35.919 2.10698C35.172 1.71498 34.425 1.31698 33.635 0.949978C32.8385 0.552388 31.9928 0.262191 31.12 0.0869777C30.2123 -0.066831 29.2818 -0.016616 28.396 0.233978C27.5337 0.477724 26.7094 0.840195 25.947 1.31098C23.6246 2.68011 21.6706 4.59427 20.254 6.88798C18.8677 9.19069 18.0301 11.7816 17.806 14.46C17.703 15.64 17.726 16.828 17.873 18.004C18.037 19.576 18.498 21.104 19.233 22.504C19.429 22.874 19.663 23.225 19.93 23.55C20.13 23.767 20.359 23.956 20.61 24.113C20.8 24.252 21.005 24.369 21.221 24.463C21.479 24.529 21.448 24.15 21.221 23.446C21.154 23.268 21.069 23.073 20.983 22.834C20.897 22.595 20.823 22.356 20.732 22.087C20.512 21.567 20.346 20.93 20.12 20.251C19.5517 18.1094 19.4286 15.874 19.7581 13.683C20.0877 11.4919 20.8629 9.39168 22.036 7.51198C23.2502 5.63651 24.8717 4.05904 26.78 2.89698C27.65 2.32698 28.63 1.94598 29.657 1.77698C30.1339 1.73545 30.6143 1.76409 31.083 1.86198C31.5952 1.98617 32.0952 2.15619 32.577 2.36998C33.336 2.70698 34.125 3.12998 34.927 3.54598C35.3 3.74798 35.79 3.98598 36.274 4.15798L37.008 4.41498L37.755 4.61098C39.66 4.95098 41.604 5.01698 43.527 4.80698C44.44 4.74498 45.333 4.67198 46.19 4.65398H47.463C47.88 4.65398 48.327 4.71398 48.755 4.76398C50.465 4.98898 52.145 5.39498 53.768 5.97598V5.93298Z" fill="#1C1917"/>
<path id="Vector_4" d="M21.9101 23.795C22.0561 23.66 21.9651 23.483 21.7321 23.183C21.6591 23.097 21.3771 22.963 21.3101 22.999C21.1864 23.0566 21.0711 23.1306 20.9671 23.219C20.6912 23.6622 20.4518 24.127 20.2511 24.609C20.1099 24.9367 20.0072 25.2796 19.9451 25.631C19.7831 26.361 19.6831 27.101 19.6451 27.847C19.6404 28.0342 19.6589 28.2213 19.7001 28.404C19.7771 28.72 19.8731 29.031 19.9881 29.334C20.0861 29.622 20.1961 29.904 20.3181 30.186C20.3715 30.2738 20.4069 30.3714 20.4221 30.473C20.5391 30.784 20.7071 31.073 20.9181 31.33C21.1151 31.604 21.3461 31.853 21.6041 32.07C22.0181 32.362 22.4491 32.627 22.8951 32.867C22.9561 32.897 23.0051 32.952 23.0911 32.947C23.2472 32.9392 23.4003 32.9915 23.5191 33.093C23.6991 33.197 23.8871 33.283 24.0831 33.35C24.1923 33.3686 24.3039 33.3686 24.4131 33.35C24.5171 33.35 24.5731 33.154 24.5541 33.124C24.5361 33.094 24.6151 32.983 24.6641 32.916C24.6817 32.8934 24.6962 32.8685 24.7071 32.842C24.7071 32.799 23.9601 31.936 23.8871 31.862L23.6791 31.697C23.5691 31.599 23.4161 31.471 23.2691 31.33C23.0493 31.1224 22.8445 30.8995 22.6561 30.663C22.6029 30.5935 22.5367 30.5351 22.4611 30.491C22.3347 30.3305 22.2239 30.1584 22.1301 29.977C22.0338 29.8017 21.95 29.62 21.8791 29.433C21.7941 29.2162 21.6833 29.0103 21.5491 28.82C21.5185 28.786 21.4989 28.7434 21.4931 28.698C21.4789 28.5989 21.4589 28.5007 21.4331 28.404C21.416 28.3295 21.4033 28.254 21.3951 28.178C21.3661 27.9753 21.354 27.7706 21.3591 27.566C21.3691 27.342 21.3931 27.119 21.4321 26.898C21.435 26.8574 21.435 26.8166 21.4321 26.776C21.4228 26.7231 21.4228 26.6689 21.4321 26.616C21.5002 26.0771 21.615 25.5451 21.7751 25.026C21.8101 24.737 21.8591 24.451 21.9221 24.168C21.9401 24.168 21.8481 23.844 21.9101 23.795ZM50.2251 58.24C50.0591 58.135 49.9061 58.031 49.7351 57.94C49.5394 57.8435 49.3344 57.7674 49.1231 57.713C48.9125 57.6496 48.694 57.6166 48.4741 57.615H48.1371L47.8131 57.676C47.4191 57.768 47.0471 57.936 46.7171 58.172L46.0371 58.655C45.2035 59.254 44.3015 59.7515 43.3501 60.137C41.3951 60.855 39.3001 61.115 37.2301 60.896C35.6883 60.7294 34.1692 60.3947 32.7001 59.898C31.3785 59.4745 30.0843 58.9695 28.8251 58.386C28.2031 58.1213 27.6049 57.8038 27.0371 57.437C26.4561 57.064 25.8681 56.654 25.2321 56.268C24.5843 55.8621 23.8891 55.5374 23.1621 55.301C22.3445 55.0377 21.4648 55.0377 20.6471 55.301C19.863 55.6606 19.2179 56.2667 18.8101 57.027C18.4318 57.6665 18.1025 58.3337 17.8251 59.023C17.3601 60.21 16.8271 61.312 16.3621 62.555C15.8165 63.8352 15.6836 65.2537 15.9821 66.613C16.2399 67.495 16.7231 68.2946 17.3841 68.933C18.0246 69.5358 18.7636 70.0246 19.5691 70.378C21.1121 71.088 22.6611 71.468 23.9641 72.183C24.3681 72.403 24.5771 72.44 24.6811 72.3C24.7851 72.159 24.7171 71.847 24.4481 71.437C24.0744 70.9105 23.6024 70.4612 23.0581 70.114C22.3479 69.6599 21.5958 69.2748 20.8121 68.964C20.1395 68.7067 19.5052 68.3585 18.9271 67.929C18.4244 67.5433 18.0228 67.0412 17.7571 66.466C17.2491 65.401 17.5871 63.981 18.1491 62.53L19.0731 60.26C19.3481 59.53 19.6671 58.819 20.0291 58.129C20.2741 57.584 20.6691 57.119 21.1671 56.789C21.7729 56.6204 22.417 56.6524 23.0031 56.88C23.8711 57.228 24.6931 57.68 25.4521 58.227C25.8681 58.509 26.3021 58.797 26.7561 59.072C26.9821 59.212 27.2331 59.347 27.4781 59.476L28.1761 59.806C30.0461 60.726 32.0081 61.451 34.0281 61.967C35.1501 62.244 36.2921 62.432 37.4431 62.53C38.6061 62.612 39.7731 62.57 40.9261 62.408C43.2497 62.076 45.4498 61.1552 47.3171 59.733L47.5371 59.58L47.7031 59.47C47.8051 59.398 47.9161 59.34 48.0331 59.298C48.2414 59.2208 48.4686 59.2103 48.6831 59.268C49.207 59.4703 49.6557 59.8293 49.9681 60.296C50.7151 61.371 51.2834 62.5597 51.6511 63.816C52.2871 65.729 52.5861 67.738 52.5321 69.753C52.5131 70.211 52.4161 70.663 52.2451 71.088C52.1395 71.3003 52.0188 71.5048 51.8841 71.7C51.7371 71.89 51.5901 72.08 51.4311 72.257C50.7788 72.962 49.9632 73.496 49.0561 73.812C47.599 74.281 46.0637 74.4577 44.5381 74.332C42.9817 74.2364 41.4311 74.0628 39.8921 73.812C39.2061 73.708 38.5271 73.592 37.8231 73.506C35.2031 73.187 34.2601 73.389 33.7331 73.861C33.6097 73.9609 33.4971 74.0735 33.3971 74.197C33.2201 74.571 34.2171 74.644 36.0471 74.877C38.7901 75.22 41.6491 75.881 44.7401 75.972C46.3533 76.0568 47.9686 75.8495 49.5081 75.36C51.1838 74.7989 52.6052 73.66 53.5181 72.147C53.6209 71.9732 53.7127 71.7932 53.7931 71.608C53.8481 71.437 53.9161 71.247 53.9591 71.075C54.0381 70.749 54.0951 70.418 54.1301 70.084C54.1751 69.472 54.1751 68.859 54.1301 68.247C54.0499 67.0681 53.8659 65.8985 53.5801 64.752C53.3049 63.6 52.9256 62.4754 52.4471 61.392C52.2 60.829 51.9049 60.2884 51.5651 59.776C51.2073 59.1957 50.7492 58.6838 50.2121 58.264L50.2251 58.239V58.24Z" fill="#1C1917"/>
<path id="Vector_5" d="M68.4629 99.864C71.3294 102.887 74.3406 105.769 77.4859 108.501C78.6429 109.486 79.7569 110.515 80.9569 111.445C85.1435 114.783 89.5597 117.823 94.1729 120.541C95.1829 121.154 96.2229 121.766 97.2329 122.323L98.7829 123.198L100.349 124.018C101.022 124.367 101.684 124.735 102.363 125.077L104.414 126.051C105.785 126.699 107.196 127.262 108.637 127.734C109.531 128.04 109.555 127.593 108.974 126.914C108.027 125.942 106.894 125.17 105.644 124.643C100.103 122.11 94.7475 119.189 89.6179 115.902C86.4947 113.82 83.4944 111.559 80.6319 109.131C77.4537 106.479 74.408 103.672 71.5059 100.721C70.6113 99.8132 69.7339 98.8887 68.8739 97.948L67.5819 96.534L66.3579 95.084C63.8539 92.157 61.4609 89.048 59.1039 86.017C56.9018 83.1693 54.805 80.2416 52.8179 77.24C51.4529 75.238 50.9809 74.644 50.3079 74.448C50.1661 74.3915 50.0185 74.3506 49.8679 74.326C49.4629 74.326 49.7569 75.306 50.6809 76.842C53.4359 81.427 56.9309 85.84 60.3649 90.235C61.6364 91.8898 62.9366 93.5224 64.2649 95.132L66.3209 97.538L68.4629 99.901V99.864Z" fill="#1C1917"/>
<path id="Vector_6" d="M90.079 129.674L88.187 133.347C88.1502 133.428 88.1074 133.506 88.059 133.58L87.985 133.543L87.832 133.488L87.612 133.378L87.318 133.218L86.143 132.606L83.798 131.351C83.1112 130.97 82.4397 130.561 81.785 130.127C80.9752 129.53 80.1052 129.019 79.189 128.603C78.577 128.377 78.467 130.139 79.452 130.745C81.1962 131.829 83.0056 132.804 84.87 133.665C85.402 133.91 85.922 134.198 86.437 134.498L88.665 135.814L88.836 135.502L89.632 134.033L90.116 133.114L91.083 131.278C91.481 130.519 91.866 129.76 92.307 129.013C92.919 127.881 93.531 126.73 94.192 125.634C94.707 124.777 95.294 123.988 95.845 123.186C95.968 123.008 96.102 122.843 96.219 122.653C96.647 121.968 96.678 121.686 96.389 121.313C96.3292 121.227 96.264 121.145 96.194 121.068C95.937 120.829 95.533 120.976 95.154 121.441C94.0064 122.883 92.9824 124.418 92.093 126.032C91.4059 127.25 90.7306 128.474 90.067 129.705L90.079 129.674Z" fill="#1C1917"/>
<path id="Vector_7" d="M105.42 135.691C105.389 135.482 105.308 135.285 105.183 135.115C105.058 134.945 104.893 134.809 104.703 134.718C104.581 134.651 104.312 134.761 104.318 134.896C104.318 135.153 104.33 135.41 104.355 135.667C104.385 135.82 104.967 138.183 105.107 138.979C105.175 139.364 105.242 139.75 105.297 140.111C105.307 140.256 105.307 140.401 105.297 140.546C105.292 140.67 105.271 140.794 105.236 140.913C105.218 140.981 105.184 141.044 105.138 141.097H105.095C104.889 141.069 104.697 140.979 104.544 140.839C104.029 140.384 103.612 139.828 103.32 139.205L102.855 138.293C102.316 137.204 101.915 136.053 101.661 134.865C101.602 134.666 101.565 134.46 101.551 134.253C101.546 134.15 101.531 134.048 101.508 133.947L101.361 133.139L100.988 132.79L100.602 132.441L99.047 131.774C98.5939 131.584 98.239 131.431 98.111 131.388C97.082 131.027 96.066 130.629 95.051 130.237C94.9126 130.165 94.7633 130.115 94.609 130.091C94.2756 130.038 93.9533 129.93 93.655 129.772C93.22 129.589 92.785 129.411 92.345 129.252C92.1211 129.182 91.8916 129.13 91.659 129.099C91.451 129.056 91.481 129.27 91.537 129.313C91.708 129.454 91.5369 129.46 91.463 129.521C91.4437 129.539 91.4307 129.563 91.426 129.589C91.542 129.681 91.666 129.765 91.794 129.84L92.62 130.354C93.232 130.727 93.881 131.113 94.016 131.168C94.15 131.223 97.6209 132.919 98.031 133.114C98.2459 133.212 98.467 133.296 98.692 133.365L99.837 133.873V133.965L99.892 134.235L99.978 134.688L100.076 135.134C100.219 135.789 100.424 136.429 100.688 137.044C100.745 137.167 100.792 137.294 100.829 137.424C101.183 138.551 101.682 139.628 102.316 140.625C102.512 140.876 102.659 141.146 102.892 141.397L103.222 141.77L103.638 142.107C103.743 142.185 103.856 142.25 103.975 142.302C104.133 142.378 104.297 142.441 104.465 142.492C104.727 142.591 105.01 142.624 105.288 142.587C105.565 142.549 105.829 142.443 106.056 142.278C106.456 141.95 106.714 141.481 106.779 140.968C106.816 140.75 106.828 140.528 106.815 140.307C106.802 140.114 106.777 139.922 106.742 139.732C106.687 139.37 106.613 139.028 106.546 138.685C106.479 138.342 105.934 136.946 105.854 136.597C105.836 136.444 105.444 135.875 105.42 135.691ZM2.08995 108.629C1.87427 107.78 1.72086 106.917 1.63095 106.046C1.60095 105.612 1.63095 105.171 1.58795 104.736C1.57098 104.295 1.5877 103.853 1.63795 103.414C1.77409 101.627 2.12117 99.8618 2.67195 98.156C3.08195 96.894 3.55495 95.654 4.09195 94.44C5.92795 90.107 8.37695 86.018 10.825 81.91L12.472 79.174L14.167 76.499C15.618 74.222 17.142 71.988 18.416 69.6C19.211 68.113 16.763 69.068 15.098 71.718C13.6223 74.0631 12.1755 76.4263 10.758 78.807C9.34995 81.187 7.95395 83.563 6.62595 86.03C4.90211 89.0064 3.36482 92.087 2.02295 95.254C1.30693 97.035 0.761485 98.88 0.393954 100.764C0.00500876 102.664 -0.0981277 104.612 0.0879535 106.542C0.395772 108.884 1.03062 111.171 1.97395 113.337C3.35352 116.561 4.91057 119.706 6.63795 122.757C7.90495 125.132 9.15395 127.465 10.415 129.815L11.229 131.358C12.276 133.274 12.686 133.806 13.292 134.045C13.425 134.1 13.562 134.145 13.702 134.18C14.094 134.216 13.935 133.28 13.243 131.817C11.174 127.489 8.60895 123.186 6.31995 118.754C4.64295 115.467 3.00795 112.1 2.13295 108.623L2.08995 108.629Z" fill="#1C1917"/>
<path id="Vector_8" d="M15.9159 106.677C17.5139 110.141 18.9759 113.667 20.3539 117.224C22.1899 122.066 24.4309 127.391 24.5469 132.655C24.5469 132.906 22.7839 132.655 22.7719 132.178C22.6489 126.767 20.2869 121.227 18.3519 116.263C17.06 112.922 15.666 109.621 14.1719 106.365C14.0549 106.114 15.7079 106.236 15.9159 106.683V106.677ZM16.6229 155.108C15.6229 154.224 14.6679 153.288 13.7639 152.305C13.4339 151.944 13.1519 151.552 12.8219 151.178C11.6769 149.881 10.5689 148.54 9.54688 147.126C9.10437 146.497 8.69546 145.846 8.32188 145.174C7.89824 144.289 7.41166 143.436 6.86588 142.621C6.49788 142.119 5.41488 143.521 5.98388 144.586C6.9771 146.415 8.17659 148.123 9.55888 149.679C10.3849 150.603 11.1139 151.674 11.9459 152.635C12.8657 153.689 13.8361 154.699 14.8539 155.659C15.4659 156.271 16.1269 156.822 16.8069 157.361C17.8291 158.192 18.9227 158.932 20.0749 159.571C20.9709 160.106 21.9349 160.518 22.9399 160.795C23.1729 160.844 23.3999 160.905 23.6439 160.942C24.5499 161.003 24.8679 160.807 24.9599 160.366C24.9909 160.267 25.0139 160.164 25.0269 160.06C25.0269 159.712 24.6909 159.497 24.1889 159.418C22.5959 159.078 21.0889 158.42 19.7569 157.483C18.6603 156.752 17.6246 155.933 16.6599 155.035L16.6229 155.108ZM30.9929 110.815C31.4829 113.171 31.9659 115.534 32.4069 117.903C32.5719 118.766 32.6819 119.641 32.8419 120.504C33.4049 123.565 33.9619 126.626 34.4089 129.686C34.6075 131.047 34.7749 132.412 34.9109 133.781C34.9959 134.651 35.0569 135.526 35.1189 136.395C35.1789 137.264 35.2719 138.152 35.3019 138.905C35.2945 138.945 35.2945 138.987 35.3019 139.027C35.3019 139.027 35.3319 139.027 35.3569 139.07C35.4074 139.138 35.4762 139.19 35.5554 139.221C35.6345 139.251 35.7207 139.259 35.8039 139.242C35.9415 139.202 36.0648 139.123 36.1589 139.015C36.4426 138.679 36.6555 138.288 36.7849 137.868C36.9142 137.447 36.9574 137.005 36.9119 136.567C36.7779 134.73 36.5389 132.949 36.2629 131.162C35.9879 129.374 35.6999 127.599 35.3389 125.824C34.8989 123.694 34.6349 121.453 34.2429 119.268C33.8343 116.864 33.3776 114.468 32.8729 112.082C32.5667 110.613 32.2643 109.144 31.9659 107.674C31.4949 105.452 31.0169 103.224 30.5519 101.014C30.2029 99.3 29.9399 97.599 29.6159 95.891C29.5419 95.517 29.4869 95.144 29.4069 94.765C29.0949 93.369 28.8749 92.959 28.3789 92.763C28.2708 92.711 28.158 92.6698 28.0419 92.64C27.6869 92.591 27.5519 93.253 27.7059 94.257C28.1529 97.317 28.8139 100.494 29.4689 103.689C29.9519 106.064 30.4659 108.446 30.9319 110.833L30.9929 110.815ZM48.3179 106.524C48.6359 108.67 48.9379 110.823 49.2239 112.982C49.3279 113.765 49.3769 114.561 49.4869 115.344C49.8539 118.117 50.2269 120.884 50.5519 123.663C50.6919 124.888 50.7909 126.142 50.8639 127.367C50.9029 128.951 51.0399 130.531 51.2739 132.098C51.4579 133.078 52.9339 131.707 52.8039 129.882C52.568 126.644 52.1923 123.417 51.6779 120.211C51.3539 118.277 51.2249 116.25 50.9799 114.267C50.7074 112.09 50.4198 109.915 50.1169 107.742L49.5479 103.726C49.2479 101.7 48.9359 99.668 48.6539 97.66C48.4339 96.093 48.3119 94.544 48.1459 92.99C48.1099 92.647 48.0859 92.31 48.0419 91.967C47.8769 90.688 47.7059 90.302 47.2339 90.131C47.1311 90.0759 47.0224 90.0327 46.9099 90.002C46.5599 89.935 46.3649 90.504 46.4139 91.447C46.5919 94.318 46.9149 97.178 47.3809 100.017C47.6809 102.178 47.9929 104.357 48.2749 106.524H48.3179ZM44.2729 243.487V243.554L44.3099 243.683L44.4809 244.203C44.7105 244.901 44.97 245.59 45.2589 246.266L45.3869 246.541L45.4789 246.713L45.5709 246.854C45.6869 247.034 45.8139 247.208 45.9509 247.374C47.0038 248.493 48.2713 249.388 49.6779 250.006C50.6209 250.477 51.5449 250.937 52.4509 251.365C52.8489 251.555 53.2469 251.745 53.6079 251.947C53.9689 252.149 54.3669 252.4 54.7279 252.626C55.0889 252.852 55.4629 253.103 55.8059 253.354C55.9829 253.483 56.1479 253.612 56.3079 253.746C56.4669 253.881 56.6499 254.046 56.7049 254.095C56.7768 254.146 56.837 254.211 56.8813 254.288C56.9256 254.364 56.9531 254.448 56.9619 254.536C56.9259 254.719 56.7179 254.781 56.5459 254.817C56.4219 254.833 56.2959 254.833 56.1729 254.817C55.9709 254.817 55.7569 254.762 55.5299 254.732L54.1769 254.542C52.5991 254.331 51.031 254.053 49.4769 253.709C47.545 253.264 45.6561 252.649 43.8319 251.873C43.2939 251.628 43.1099 252.008 43.3849 252.638C43.8784 253.526 44.7006 254.186 45.6749 254.475C47.721 255.12 49.8207 255.581 51.9489 255.852C52.9959 256.005 54.0359 256.133 55.0649 256.262L55.8729 256.366C56.0319 256.366 56.1539 256.366 56.4109 256.397C56.6479 256.401 56.8839 256.381 57.1149 256.335C57.5394 256.253 57.9357 256.064 58.2659 255.785C58.4181 255.652 58.5384 255.487 58.618 255.301C58.6977 255.116 58.7345 254.915 58.7259 254.713C58.6781 254.208 58.4622 253.734 58.1129 253.367C58.0297 253.265 57.942 253.167 57.8499 253.073L57.6169 252.846L57.2189 252.504C56.6959 252.082 56.1526 251.685 55.5909 251.316L54.7589 250.777C54.4709 250.6 54.1469 250.422 53.8709 250.263C53.2589 249.951 52.6899 249.651 52.1019 249.394C50.8401 248.85 49.6242 248.205 48.4659 247.466C47.935 247.12 47.4639 246.69 47.0709 246.193C46.9868 246.079 46.9091 245.96 46.8379 245.838C46.7699 245.709 46.7029 245.55 46.6359 245.397C46.5011 245.08 46.3786 244.757 46.2689 244.43C46.1519 244.075 46.0359 243.762 45.9259 243.426L45.8519 243.169L45.7539 242.85L45.5399 242.055L43.7039 241.669C43.2019 241.565 42.6999 241.467 42.2289 241.357C41.6163 241.216 41.0163 241.026 40.4349 240.787L40.2269 240.69L40.0919 240.628L39.9329 240.543C39.7175 240.424 39.5127 240.287 39.3209 240.133C38.8685 239.759 38.4276 239.37 37.9989 238.969C37.9619 239.037 37.9309 239.037 37.8949 239.074V242.679C37.8949 243.016 37.8949 243.352 37.9439 243.689C37.9506 245.823 38.532 247.917 39.6269 249.749C39.8789 250.152 40.1669 250.533 40.4839 250.888C41.7079 252.179 42.3199 252.32 42.8589 252.173C42.9839 252.148 43.1059 252.107 43.2199 252.051C43.3729 251.953 43.3489 251.751 43.1769 251.487C42.9108 251.133 42.6161 250.802 42.2959 250.496C41.1079 249.324 40.2779 247.837 39.9029 246.211C39.7049 245.361 39.5838 244.494 39.5409 243.622C39.5409 243.175 39.4989 242.722 39.4919 242.257V242.116L39.5839 242.159C40.1789 242.422 40.7929 242.639 41.4199 242.808C42.0329 242.973 42.6449 243.089 43.1959 243.205L44.0459 243.389L44.2299 243.426H44.2599L44.2729 243.487ZM20.7159 240.377C20.8629 241.038 21.0279 241.687 21.2239 242.342C21.3279 242.679 21.4199 242.985 21.5729 243.364L21.6459 243.536L21.7139 243.658L21.8539 243.915C21.9469 244.08 22.0489 244.24 22.1609 244.393C23.0283 245.516 24.0872 246.478 25.2889 247.233C26.1029 247.784 26.8989 248.316 27.6819 248.818C28.3619 249.253 29.0219 249.73 29.6649 250.232C29.9899 250.483 30.2779 250.734 30.5899 251.004C30.8289 251.217 31.0559 251.444 31.2699 251.683C31.3302 251.738 31.3764 251.807 31.405 251.884C31.4335 251.96 31.4434 252.043 31.4339 252.124C31.3609 252.277 31.1709 252.314 31.0059 252.332C30.8959 252.344 30.7859 252.344 30.6759 252.332C30.4919 252.301 30.2959 252.252 30.0939 252.21L28.8699 251.928C27.4312 251.606 26.0109 251.208 24.6149 250.734C22.8842 250.101 21.2057 249.334 19.5949 248.439C19.0999 248.17 18.8979 248.543 19.0879 249.167C19.255 249.608 19.5075 250.011 19.831 250.353C20.1545 250.696 20.5426 250.971 20.9729 251.163C22.7995 251.994 24.7047 252.639 26.6599 253.091C27.6199 253.324 28.5759 253.532 29.5249 253.703C29.7629 253.752 29.9949 253.807 30.2779 253.856C30.6651 253.929 31.0606 253.947 31.4529 253.911C31.8529 253.869 32.2359 253.732 32.5729 253.513C32.7322 253.41 32.8687 253.275 32.974 253.117C33.0793 252.959 33.151 252.782 33.1849 252.595C33.2318 252.136 33.1173 251.675 32.8609 251.291C32.7374 251.074 32.5938 250.869 32.4319 250.679L32.3219 250.551L32.2359 250.459L32.0649 250.281C31.6215 249.833 31.1534 249.41 30.6629 249.014C29.7172 248.231 28.7192 247.513 27.6759 246.866C26.5809 246.212 25.539 245.473 24.5599 244.656C24.1085 244.263 23.7131 243.81 23.3849 243.309C23.3033 243.188 23.2298 243.061 23.1649 242.93C23.1315 242.877 23.1027 242.822 23.0789 242.764L22.9989 242.562C22.8997 242.264 22.806 241.964 22.7179 241.663C22.5964 241.235 22.4864 240.805 22.3879 240.371L22.3139 240.047L22.2279 239.636L22.0499 238.62L21.2359 238.565L20.8449 238.522L20.5939 238.486C20.2639 238.431 19.9259 238.357 19.5899 238.278L17.8079 237.837C17.1573 237.655 16.4879 237.548 15.8129 237.519L14.6679 237.439C14.4109 237.653 14.4049 238.051 14.3929 238.504V239.636L14.4479 240.555C14.4779 241.026 14.5089 241.503 14.5339 241.975C14.5579 242.446 14.5759 242.887 14.6679 243.438C14.839 244.43 15.1808 245.385 15.6779 246.26C15.8959 246.656 16.1479 247.033 16.4309 247.386C16.7839 247.857 17.2219 248.258 17.7229 248.567C17.8483 248.648 17.9894 248.702 18.137 248.726C18.2847 248.749 18.4355 248.741 18.5799 248.702C18.7019 248.678 18.8199 248.641 18.9349 248.592C19.2529 248.396 18.8849 247.845 18.2119 247.055C17.2041 245.907 16.5291 244.506 16.2599 243.003L16.2049 242.44L16.1549 241.797L16.0639 240.506L15.9899 239.214V239.141L16.2839 239.19C16.7919 239.275 17.3239 239.41 17.8759 239.551C18.4259 239.692 18.9899 239.845 19.5899 239.973C19.8839 240.041 20.2019 240.096 20.5079 240.145H20.6179V240.175L20.6549 240.365L20.7159 240.377Z" fill="#1C1917"/>
<path id="Vector_9" d="M103.59 154.918C102.234 154.177 100.763 153.673 99.2379 153.425C98.8089 153.357 98.7179 153.712 99.1579 153.976C100.024 154.487 100.897 154.984 101.778 155.469C102.323 155.763 111.156 160.011 114.149 161.468C117.142 162.925 119.977 164.235 122.909 165.582L133.878 170.644L137.949 161.811C138.56 160.49 139.153 159.162 139.73 157.826C141.713 153.247 143.794 148.705 145.906 144.176C146.304 143.337 146.702 142.48 147.094 141.641L146.023 141.109L144.743 140.497L143.035 139.689L138.279 137.479C134.857 135.9 131.374 134.308 130.566 133.959L118.569 128.732C117.999 128.481 117.406 128.187 116.861 128.009C115.61 127.556 114.384 127.037 113.188 126.455L110.232 125.132L109.479 127.024L108.952 128.395C108.622 129.258 108.34 130.133 108.065 131.003C107.789 131.872 108.187 131.462 108.322 131.198C108.713 130.452 108.548 131.125 108.603 131.229C108.658 131.333 108.652 131.315 108.689 131.284C108.772 131.137 108.848 130.986 108.915 130.831L109.46 129.668L110.225 128.015L110.648 127.103L110.856 126.712L111.235 126.926L112.123 127.373L113.819 128.224C114.847 128.738 115.655 129.123 115.894 129.246L131.968 136.818C132.807 137.222 133.676 137.583 134.533 137.95L139.558 140.313C140.741 140.905 141.938 141.47 143.146 142.009L144.437 142.621L144.4 142.7L144.272 142.97C143.201 145.339 142.056 147.683 141.095 150.089C140.911 150.56 140.679 151.037 140.483 151.509C138.591 155.561 136.767 159.644 134.931 163.721L132.96 168.006L132.678 167.871C132.305 167.7 131.919 167.547 131.54 167.381C131.068 167.179 130.585 166.977 130.113 166.769C125.216 164.492 120.264 162.301 115.379 159.981C114.253 159.442 108.787 157.11 107.495 156.485C106.712 156.13 104.22 155.255 103.59 154.918Z" fill="#FF7C00"/>
<path id="Vector_10" d="M101.925 145.375C102.041 145.277 101.98 145.118 101.802 144.922C101.747 144.861 101.533 144.763 101.484 144.788C101.396 144.829 101.312 144.879 101.233 144.935C101.19 144.965 100.768 145.626 100.621 145.847C100.481 146.061 100.358 146.286 100.254 146.52C100.04 146.991 99.807 147.457 99.593 147.928C99.545 148.033 99.5059 148.141 99.476 148.252C99.3716 148.635 99.2239 149.005 99.036 149.354C99.0126 149.417 98.975 149.474 98.926 149.52C98.696 149.894 98.501 150.29 98.344 150.701C98.264 151.044 98.16 151.38 98.069 151.711C98.069 151.76 98.019 151.803 98.069 151.864C98.083 151.919 98.0858 151.975 98.0773 152.031C98.0687 152.087 98.0488 152.14 98.019 152.188C97.965 152.328 97.92 152.471 97.885 152.617C97.8733 152.698 97.8733 152.781 97.885 152.862C97.885 152.935 98.038 152.966 98.062 152.954C98.087 152.941 98.172 152.99 98.228 153.021H98.283C98.5267 152.796 98.7478 152.548 98.943 152.28C98.943 152.28 99.556 151.166 99.623 151.056C99.6608 150.99 99.6859 150.917 99.697 150.842C99.697 150.811 100.199 149.942 100.217 149.905C100.319 149.725 100.387 149.528 100.419 149.324C100.424 149.282 100.439 149.242 100.462 149.207C100.616 148.888 100.753 148.561 100.872 148.228C100.939 148.057 101.025 147.903 101.105 147.738C101.108 147.705 101.108 147.673 101.105 147.64C101.113 147.598 101.125 147.557 101.141 147.518C101.331 147.138 101.466 146.728 101.686 146.361C101.735 146.275 101.839 145.804 101.9 145.706C101.962 145.608 101.876 145.412 101.925 145.375ZM144.979 144.837C145.664 144.785 146.317 144.527 146.852 144.096C146.889 144.067 146.916 144.027 146.929 143.982C146.939 143.948 146.94 143.913 146.934 143.878C146.927 143.844 146.913 143.811 146.892 143.783C146.871 143.755 146.843 143.732 146.812 143.716C146.781 143.701 146.746 143.692 146.711 143.692C146.27 143.692 145.829 143.692 145.389 143.735C145.119 143.735 140.932 144.426 139.506 144.647C138.128 144.863 136.755 145.108 135.387 145.381L127.031 146.997C126.416 147.115 125.804 147.248 125.195 147.395C124.583 147.542 123.817 147.714 123.126 147.861L121.571 148.185L120.738 146.685C120.557 146.374 120.394 146.053 120.249 145.724C120.028 145.192 117.145 140.08 116.741 139.438L113.785 134.602C113.657 134.365 113.512 134.138 113.35 133.922C112.986 133.47 112.668 132.982 112.401 132.466C111.991 131.768 111.575 131.07 111.177 130.39C110.958 130.055 110.721 129.733 110.467 129.423C110.247 129.136 110.185 129.423 110.228 129.515C110.363 129.858 110.142 129.644 110.057 129.65C109.971 129.656 109.996 129.65 109.983 129.68C109.971 129.711 110.014 129.76 110.069 129.882L110.289 130.378L111.006 131.89C111.532 133.004 112.101 134.167 112.23 134.388C112.291 134.498 115.523 140.466 115.903 141.152C116.092 141.507 116.313 141.849 116.515 142.192L119.269 147.316L119.881 148.369L120.787 149.942L121.724 149.74L121.957 149.685L122.085 149.648L122.318 149.587C122.522 149.526 122.731 149.479 122.942 149.446C124.846 149.097 126.737 148.687 128.629 148.295C129.602 148.093 130.575 147.922 131.542 147.738C131.72 147.701 131.891 147.652 132.063 147.61C132.234 147.567 132.503 147.499 132.724 147.463C135.025 147.028 137.309 146.526 139.616 146.134C140.149 146.043 142.677 145.424 143.289 145.326C143.601 145.271 144.679 144.861 144.979 144.837Z" fill="#FF7C00"/>
<path id="Vector_11" d="M125.493 165.612H125.5" stroke="#1C1917" stroke-width="1.62" stroke-miterlimit="10"/>
<path id="Vector_12" d="M116.709 166.751C117.009 166.756 117.307 166.697 117.582 166.577C117.858 166.458 118.104 166.281 118.306 166.059C118.441 165.918 118.367 165.563 118.178 165.539C117.802 165.486 117.424 165.451 117.045 165.435C116.819 165.435 113.232 165.759 112.013 165.863C110.832 165.969 109.655 166.108 108.482 166.279C106.1 166.616 103.713 166.934 101.326 167.265C100.799 167.338 100.267 167.43 99.7459 167.54C97.9459 167.908 96.1349 168.152 94.3109 168.397C94.0096 168.448 93.7046 168.475 93.3989 168.477C92.9089 168.477 87.9809 169.15 87.3509 169.285C85.7779 169.615 84.2049 169.897 82.6249 170.209C82.4002 170.237 82.179 170.288 81.9649 170.362C81.5041 170.546 81.0191 170.661 80.5249 170.705C79.8459 170.815 79.1669 170.938 78.4999 171.085C78.1676 171.166 77.8419 171.272 77.5259 171.403C77.2329 171.507 77.4279 171.709 77.5259 171.715C77.8389 171.746 77.6059 171.886 77.5879 171.978C77.5689 172.07 77.5879 172.058 77.5879 172.082C77.5879 172.107 81.5849 171.972 82.0129 171.911C82.1169 171.911 87.8409 171.219 88.4959 171.158C88.8319 171.121 89.1689 171.042 89.5059 170.974C89.6649 170.938 94.2499 170.43 94.4329 170.405C95.3824 170.297 96.3246 170.133 97.2549 169.915C97.4399 169.867 97.6279 169.834 97.8179 169.817C99.4469 169.615 101.063 169.34 102.685 169.077C103.511 168.942 104.344 168.85 105.176 168.734C105.323 168.734 105.47 168.667 105.623 168.642C105.776 168.618 105.996 168.556 106.18 168.532C108.151 168.275 110.11 167.92 112.081 167.712C112.54 167.669 114.676 167.198 115.203 167.149C115.521 167.124 116.439 166.745 116.709 166.751ZM176.867 181.154C177.119 181.314 177.403 181.418 177.699 181.457C177.995 181.496 178.296 181.47 178.581 181.381C178.771 181.332 178.887 180.989 178.734 180.872C178.446 180.64 178.122 180.407 177.834 180.199C177.638 180.077 174.425 178.522 173.335 177.983C172.28 177.469 171.21 176.985 170.128 176.532C167.93 175.602 165.739 174.647 163.541 173.711C163.053 173.505 162.559 173.312 162.06 173.135C160.34 172.523 158.669 171.825 157.004 171.085C156.72 170.976 156.447 170.841 156.189 170.681C155.779 170.411 151.237 168.483 150.631 168.275C149.132 167.755 147.644 167.191 146.151 166.647C145.944 166.552 145.726 166.482 145.502 166.439C145.018 166.357 144.548 166.206 144.106 165.992C143.475 165.734 142.836 165.495 142.19 165.275C141.865 165.18 141.534 165.106 141.199 165.055C140.899 164.994 140.96 165.263 141.052 165.331C141.303 165.514 141.052 165.514 140.972 165.588C140.945 165.612 140.928 165.644 140.923 165.679C140.923 165.741 144.382 167.638 144.773 167.804C146.741 168.685 148.704 169.576 150.662 170.479C150.973 170.617 151.292 170.738 151.617 170.84C151.77 170.895 155.902 172.811 156.092 172.878C156.951 173.276 157.834 173.619 158.736 173.906C158.919 173.961 159.097 174.031 159.268 174.115C160.756 174.776 162.274 175.339 163.78 175.951C164.551 176.257 165.31 176.606 166.075 176.93C166.216 176.992 166.357 177.028 166.498 177.077C166.638 177.126 166.859 177.2 167.03 177.273C168.836 178.063 170.703 178.767 172.466 179.599C172.876 179.789 174.914 180.487 175.404 180.713C175.667 180.866 176.641 181.013 176.867 181.154ZM106.562 233.748C106.518 233.989 106.537 234.238 106.617 234.47C106.697 234.701 106.837 234.908 107.021 235.07C107.137 235.193 107.499 235.174 107.554 235.027C107.656 234.742 107.744 234.452 107.817 234.158C107.854 233.981 108.025 231.146 108.092 230.185C108.16 229.224 108.172 228.349 108.172 227.388V221.701C108.172 221.279 108.172 220.857 108.123 220.434C108.019 218.994 107.988 217.55 108.031 216.107C108.023 215.865 108.039 215.623 108.08 215.384C108.172 215.005 108.172 211.099 108.123 210.579C108.019 209.318 107.952 208.057 107.866 206.796C107.873 206.615 107.854 206.433 107.811 206.257C107.694 205.884 107.646 205.492 107.67 205.101C107.67 204.562 107.627 204.017 107.578 203.478C107.54 203.209 107.481 202.943 107.401 202.683C107.339 202.444 107.113 202.572 107.088 202.683C107.015 202.927 106.911 202.732 106.813 202.683C106.781 202.674 106.747 202.674 106.715 202.683C106.66 202.683 106.268 205.817 106.268 206.153C106.268 206.239 106.14 210.775 106.109 211.289C106.103 211.561 106.115 211.833 106.146 212.103C106.146 212.226 106.023 215.856 106.023 216.002C105.996 216.755 106.026 217.508 106.115 218.255C106.131 218.406 106.131 218.557 106.115 218.708C106.115 220 106.115 221.291 106.17 222.583V224.921C106.17 225.037 106.201 225.221 106.201 225.374C106.201 226.935 106.25 228.496 106.201 230.063C106.201 230.424 106.354 232.138 106.329 232.554C106.354 232.781 106.599 233.54 106.562 233.748Z" fill="#1C1917"/>
<path id="Vector_13" d="M83.6749 177.604C81.3271 175.989 78.8356 174.593 76.2319 173.435C75.5099 173.123 75.4239 173.496 76.1949 174.047C77.7127 175.131 79.2411 176.201 80.7799 177.255L102.204 191.162L106.899 194.131L119.944 192.136L156.096 186.528C158.771 186.112 161.445 185.679 164.115 185.231L177.178 183.113V195.57C177.178 197.112 177.178 198.698 177.129 200.197C177.098 201.066 177.074 204.807 177.061 209.379V222.846L170.689 224.125L146.816 228.888C145.678 229.114 144.459 229.322 143.437 229.579C141.056 230.191 138.601 230.62 136.135 231.097C132.719 231.758 129.297 232.432 125.9 233.123C124.216 233.466 122.564 233.864 120.917 234.244C119.417 234.593 120.305 234.66 120.813 234.58C122.368 234.36 121.137 234.703 121.009 234.819C120.88 234.935 120.917 234.911 121.009 234.923C121.101 234.935 121.352 234.88 121.915 234.788L124.216 234.415L131.28 233.24C136.496 232.364 141.962 231.434 143.033 231.226L175.525 225.264L179.112 224.578V221.389C179.112 220.575 179.228 197.228 179.234 196.292V185.586L179.173 180.879L178.683 180.964L176.357 181.344L174.919 181.564C166.698 182.788 158.496 184.147 150.287 185.457L137.634 187.398L135.369 187.783L132.511 188.255L107.322 192.184L103.924 190.011C101.978 188.787 92.5509 182.99 90.3039 181.546C89.0379 180.744 84.7769 178.338 83.6749 177.604ZM105.448 234.672C105.649 234.868 105.891 235.016 106.158 235.104C106.424 235.192 106.707 235.218 106.985 235.18C107.175 235.18 107.358 234.856 107.248 234.715C107.028 234.44 106.807 234.17 106.562 233.919C106.416 233.766 103.783 231.728 102.89 231.024C102.029 230.352 101.146 229.707 100.245 229.09C98.4089 227.816 96.6089 226.531 94.7849 225.258C94.3841 224.98 93.9759 224.712 93.5609 224.456C92.1039 223.58 90.7139 222.619 89.3369 221.628C89.1013 221.475 88.8804 221.301 88.6769 221.107C88.3569 220.777 84.5869 218.151 84.0729 217.851C82.7999 217.092 81.5509 216.302 80.2829 215.531C80.1164 215.403 79.9335 215.298 79.7389 215.219C79.3096 215.058 78.9071 214.833 78.5449 214.552C78.0159 214.2 77.477 213.863 76.9289 213.542C76.65 213.395 76.3617 213.266 76.0659 213.156C75.7969 213.052 75.7969 213.321 75.8579 213.401C76.0539 213.621 75.8029 213.572 75.7299 213.633C75.6559 213.695 75.6679 213.682 75.6679 213.713C75.6679 213.744 78.4229 216.161 78.7289 216.406C78.8089 216.461 83.0989 219.608 83.5769 219.981C83.8279 220.171 84.1099 220.324 84.3789 220.489C84.5079 220.563 87.9229 223.109 88.0519 223.201C88.7578 223.732 89.5003 224.213 90.2739 224.639C90.4269 224.725 90.5739 224.821 90.7139 224.927C91.9389 225.815 93.2119 226.641 94.4729 227.48C95.1219 227.908 95.7459 228.367 96.3769 228.814C96.4929 228.894 96.6219 228.955 96.7369 229.028C96.8539 229.102 97.0439 229.2 97.1909 229.304C98.6779 230.369 100.251 231.354 101.696 232.456C102.033 232.713 103.777 233.729 104.145 234.023C104.402 234.195 105.277 234.531 105.448 234.672Z" fill="#1C1917"/>
<path id="Vector_14" d="M137.264 183.535C137.564 183.89 138.005 183.841 138.556 183.566C138.727 183.474 138.978 183.033 138.911 182.911C138.783 182.668 138.638 182.435 138.476 182.213C138.378 182.091 136.462 180.646 135.826 180.144C135.204 179.663 134.552 179.224 133.873 178.828C132.514 177.995 131.161 177.145 129.802 176.312C129.5 176.127 129.185 175.964 128.86 175.822C127.754 175.314 126.692 174.716 125.683 174.035C125.503 173.939 125.342 173.813 125.205 173.662C124.115 172.866 122.972 172.146 121.783 171.507C120.798 171.084 119.843 170.613 118.876 170.166C118.748 170.079 118.601 170.022 118.447 170.001C118.11 169.979 117.787 169.86 117.517 169.658C117.115 169.442 116.707 169.238 116.293 169.046C116.065 168.975 115.828 168.932 115.589 168.918C115.374 168.887 115.301 169.211 115.344 169.279C115.466 169.468 115.246 169.511 115.16 169.615C115.13 169.65 115.105 169.69 115.087 169.732C115.76 170.466 116.484 171.151 117.254 171.782C117.315 171.819 120.48 173.961 120.822 174.231C121.013 174.357 121.219 174.46 121.434 174.537C121.532 174.586 124.042 176.33 124.146 176.373C124.668 176.741 125.236 177.038 125.836 177.255C125.956 177.293 126.068 177.353 126.166 177.432C127.078 178.044 128.039 178.534 128.994 179.06C129.478 179.33 129.937 179.642 130.414 179.93C130.503 179.978 130.595 180.019 130.69 180.052C130.808 180.1 130.922 180.155 131.033 180.217C132.141 180.921 133.316 181.515 134.393 182.28C134.638 182.458 135.991 183.015 136.272 183.223C136.407 183.358 137.148 183.4 137.264 183.535ZM64.661 147.254C64.5388 145.1 64.2977 142.954 63.939 140.827C63.816 140.062 63.731 139.285 63.584 138.526C63.07 135.838 62.482 133.176 61.925 130.507C61.6849 129.326 61.4808 128.138 61.313 126.944C61.1426 125.42 60.8912 123.906 60.56 122.408C60.321 121.472 58.907 122.892 59.183 124.673C59.6729 127.797 60.3103 130.896 61.093 133.959C61.558 135.795 61.827 137.748 62.158 139.646C62.5308 141.725 62.8064 143.821 62.984 145.926C63.0971 147.206 63.1155 148.493 63.039 149.776C62.9824 150.738 62.8287 151.692 62.58 152.623C62.3487 153.54 61.9838 154.419 61.497 155.23C61.1758 155.792 60.6692 156.225 60.064 156.455C59.7184 156.479 59.372 156.421 59.053 156.286C58.734 156.15 58.4514 155.942 58.228 155.677C58.1257 155.575 58.0295 155.467 57.94 155.353C57.242 154.484 57.016 154.178 56.496 154.171C56.3795 154.162 56.2625 154.162 56.146 154.171C55.963 154.171 55.877 154.355 55.889 154.618C55.926 155.001 56.051 155.37 56.257 155.696C56.6424 156.402 57.1743 157.017 57.817 157.501C58.015 157.629 58.219 157.745 58.43 157.85C58.663 157.946 58.902 158.026 59.146 158.089C59.411 158.129 59.68 158.141 59.948 158.126C60.216 158.105 60.48 158.045 60.731 157.948C61.5987 157.58 62.3305 156.951 62.825 156.149C63.25 155.468 63.595 154.741 63.853 153.982C64.5711 151.814 64.8664 149.528 64.723 147.248L64.661 147.254Z" fill="#1C1917"/>
<path id="Vector_15" d="M9.99202 236.827C23.459 242.642 24.12 239.747 25.142 238.988C27.725 237.078 30.4 217.068 31.429 211.375C33.518 199.832 35.4911 188.269 37.348 176.686C38.468 195.521 34.024 237.378 35.45 238.859C36.613 240.084 49.627 244.534 50.141 240.426C51.635 228.08 52.461 215.654 53 203.227C53.643 188.475 53.184 140.178 51.776 130.335C47.026 134.688 39.258 133.261 35.714 132.784C36.326 140.742 35.959 161.523 22.375 160.06C20.595 174.531 18.635 189.51 17.478 195.766C17.044 197.957 8.13102 236.025 9.99202 236.827Z" fill="#1C1917" stroke="#1C1917" stroke-width="3" stroke-miterlimit="10" stroke-linecap="round"/>
<path id="Vector_16" d="M36.8381 133.616C43.0081 134.229 49.0801 133.078 53.2481 128.254C53.6281 127.826 55.3241 128.45 54.9021 128.934C50.3721 134.143 43.6941 135.214 37.0951 134.529C36.2621 134.443 35.6011 133.488 36.8381 133.616ZM185.599 217.784C187.557 219.265 188.194 222.173 187.435 224.517C186.131 228.374 181.632 229.983 177.641 230.877C160.71 234.672 143.178 234.617 125.831 234.232C139.676 230.194 153.878 227.494 168.239 226.17C171.335 225.882 174.382 225.208 177.31 224.162C181.399 222.822 173.846 208.877 185.599 217.784ZM38.6261 29.151C38.6261 29.298 38.7981 29.286 39.1161 29.231C39.2141 29.231 39.4711 29.077 39.4831 29.016C39.4951 28.9023 39.4951 28.7877 39.4831 28.674C39.4185 28.4974 39.33 28.3305 39.2201 28.178C39.0879 27.9666 38.9447 27.7623 38.7911 27.566C38.6036 27.3459 38.3853 27.1539 38.1431 26.996C37.6683 26.6736 37.1616 26.4009 36.6311 26.182C36.511 26.1324 36.3855 26.0975 36.2571 26.078C35.8181 26.008 35.3831 25.916 34.9531 25.803C34.8793 25.7931 34.8085 25.7679 34.7451 25.729C34.5084 25.6497 34.2607 25.6085 34.0111 25.607C33.7465 25.5889 33.4806 25.6074 33.2211 25.662C32.8275 25.782 32.4463 25.9397 32.0831 26.133C32.0331 26.133 31.9731 26.176 31.9421 26.243C31.9121 26.311 31.7641 26.433 31.6601 26.494C31.5154 26.5794 31.3852 26.687 31.2741 26.813C31.221 26.8889 31.1818 26.9735 31.1581 27.063C31.1581 27.137 31.2741 27.26 31.3051 27.266C31.3351 27.272 31.4031 27.37 31.4451 27.431L31.4891 27.498C31.6391 27.494 31.7891 27.476 31.9361 27.443C32.1381 27.4 32.3641 27.443 32.3951 27.394L32.5601 27.339L32.9271 27.272C33.1311 27.258 33.3361 27.258 33.5391 27.272C33.6025 27.2745 33.6656 27.2618 33.7231 27.235C34.0311 27.265 34.3371 27.323 34.6351 27.406C34.8111 27.464 34.9971 27.48 35.1801 27.456C35.2157 27.444 35.2544 27.444 35.2901 27.456L36.2081 27.743C36.3601 27.807 36.5081 27.88 36.6491 27.963H36.7411C36.78 27.967 36.8176 27.9796 36.8511 28C37.2191 28.176 37.5571 28.407 37.8551 28.686C37.9161 28.747 38.3081 28.936 38.3511 29.029C38.3941 29.12 38.6201 29.089 38.6261 29.151ZM43.6171 28.655C43.4881 28.606 43.4451 28.784 43.4701 29.084C43.4961 29.226 43.5461 29.362 43.6171 29.488C43.6807 29.5455 43.7482 29.5986 43.8191 29.647C43.8491 29.647 44.3331 29.69 44.4921 29.739C44.6481 29.76 44.8071 29.76 44.9631 29.739C45.2831 29.718 45.6041 29.718 45.9241 29.739C45.9969 29.7511 46.0712 29.7511 46.1441 29.739C46.3941 29.681 46.6541 29.692 46.8981 29.769C46.9401 29.769 46.9831 29.769 47.0141 29.831C47.2641 29.947 47.5301 30.025 47.8041 30.063C48.0251 30.039 48.2491 30.039 48.4711 30.063H48.5751C48.6241 30.063 48.7341 30.026 48.7951 30.063L49.0711 30.131C49.139 30.1237 49.2052 30.1051 49.2671 30.076C49.3271 30.076 49.4131 29.892 49.4071 29.867C49.4011 29.843 49.4751 29.745 49.5241 29.684C49.5401 29.6648 49.5542 29.644 49.5661 29.622C49.5239 29.4975 49.4595 29.3816 49.3761 29.28C49.2956 29.1627 49.2035 29.0538 49.1011 28.955L48.9611 28.882L48.6541 28.717L48.1341 28.477C48.0801 28.4616 48.023 28.4616 47.9691 28.477C47.9691 28.477 47.2401 28.202 47.2091 28.209C47.0571 28.209 46.9091 28.123 46.7441 28.209C46.7124 28.218 46.6788 28.218 46.6471 28.209C46.3868 28.1754 46.1233 28.1754 45.8631 28.209H45.4591C45.4348 28.2064 45.4103 28.2064 45.3861 28.209C45.3557 28.2149 45.3245 28.2149 45.2941 28.209C44.9751 28.209 44.6821 28.269 44.3331 28.258C44.2531 28.258 43.9171 28.441 43.8311 28.448C43.7451 28.453 43.6661 28.674 43.6171 28.655ZM42.6171 44.773C42.8421 44.5234 42.9928 44.2158 43.0521 43.885C43.0798 43.7646 43.0938 43.6415 43.0941 43.518C43.1035 43.4099 43.1035 43.3011 43.0941 43.193C43.0664 42.8224 43.0027 42.4553 42.9041 42.097C42.8371 41.859 42.8071 41.614 42.7271 41.4C42.5931 41.07 42.4821 40.665 42.3471 40.267L41.9621 39.086C41.8521 38.736 41.7721 38.376 41.6741 38.026C41.5634 37.5679 41.4097 37.1213 41.2151 36.692C41.1551 36.558 41.2151 36.57 41.1851 36.692C41.1551 36.815 41.0621 37.06 41.0011 37.342C40.7931 38.2874 40.7931 39.2667 41.0011 40.212C41.0681 40.494 41.1131 40.78 41.1361 41.069V41.289L41.1721 41.547C41.1721 41.7 41.2281 41.84 41.2581 41.981C41.4171 42.489 41.5081 43.016 41.5281 43.548V43.695C41.5281 43.701 41.4601 43.763 41.2761 43.75C40.7256 43.7376 40.1837 43.6106 39.6851 43.377C39.3037 43.1692 38.9393 42.9318 38.5951 42.667L38.3511 42.501C38.0451 42.287 37.9161 42.232 37.8551 42.183L37.8181 42.14C37.8811 42.263 37.9341 42.39 37.9781 42.52C38.1551 42.953 38.3831 43.364 38.6571 43.744C38.9621 44.14 39.3401 44.474 39.7711 44.73C40.1011 44.929 40.4611 45.077 40.8361 45.17L41.1241 45.238C41.1871 45.243 41.2501 45.243 41.3141 45.238H41.5281C41.9403 45.2263 42.3332 45.0604 42.6291 44.773H42.6171ZM35.0271 49.67C35.2141 49.992 35.4641 50.273 35.7621 50.496C35.8641 50.593 35.9771 50.68 36.0981 50.753C36.5481 50.953 37.0511 51 37.5311 50.888C37.7158 50.8555 37.8978 50.8084 38.0751 50.747C38.1851 50.701 38.2881 50.641 38.3821 50.569C38.431 50.5333 38.4759 50.4924 38.5161 50.447L38.5461 50.41V50.288C38.5461 50.269 38.5161 50.288 38.5041 50.288C38.4686 50.3031 38.4356 50.3233 38.4061 50.348C38.3761 50.373 38.3571 50.348 38.4061 50.38C38.4241 50.3754 38.443 50.3754 38.4611 50.38C38.4611 50.38 38.4611 50.422 38.4611 50.38C38.4558 50.3662 38.4558 50.3509 38.4611 50.337V50.307C38.4627 50.2986 38.4647 50.2903 38.4671 50.282C38.4168 50.2404 38.3613 50.2055 38.3021 50.178C37.8671 49.945 37.6471 49.755 37.3961 49.768C37.1461 49.78 37.1331 49.614 37.0101 49.523C36.8414 49.4068 36.6819 49.2777 36.5331 49.137C36.4261 49.0324 36.3296 48.9175 36.2451 48.794C36.0926 48.6085 35.967 48.4025 35.8721 48.182C35.8323 48.0959 35.8034 48.0052 35.7861 47.912C35.7542 47.8186 35.7133 47.7285 35.6641 47.643C35.6462 47.6012 35.6258 47.5604 35.6031 47.521C35.5466 47.442 35.483 47.3684 35.4131 47.301C35.391 47.3671 35.3579 47.429 35.3151 47.484C35.2231 47.674 35.0951 47.882 34.9851 48.096C34.8751 48.3621 34.8221 48.6483 34.8296 48.9361C34.837 49.2239 34.9046 49.5069 35.0281 49.767V49.669L35.0271 49.67ZM37.1891 58.24C38.2421 57.627 44.1981 62.708 37.9971 62.322C26.1221 61.587 28.1291 54.977 28.1291 54.977C28.1291 54.977 34.7651 59.702 37.1891 58.239V58.24ZM30.1501 97.348C31.4601 103.549 32.9301 109.713 34.3261 115.889C35.5501 121.355 37.3001 127.011 37.8581 132.606C37.9251 133.286 36.1441 132.949 36.0821 132.374C35.5321 126.779 33.7811 121.129 32.5501 115.657C31.1601 109.48 29.6861 103.316 28.3821 97.115C28.2471 96.503 30.0271 96.76 30.1501 97.348ZM50.3931 75.618C48.3103 76.6847 46 77.2306 43.6601 77.209C41.4801 77.111 39.4301 76.321 37.2321 76.364C36.6691 76.364 35.6281 75.544 36.6201 75.526C38.1331 75.546 39.6401 75.731 41.1131 76.076C44.0331 76.646 46.4691 76.126 49.1631 74.896C49.5971 74.699 50.9991 75.336 50.3871 75.618H50.3931ZM45.7271 38.443C45.3351 38.443 45.0171 37.75 45.0171 36.894C45.0171 36.039 45.3351 35.346 45.7271 35.346C46.1201 35.346 46.4371 36.039 46.4371 36.894C46.4371 37.75 46.1201 38.443 45.7271 38.443Z" fill="#1C1917"/>
<path id="Vector_17" d="M45.7819 36.43C45.7917 36.4272 45.8021 36.4272 45.8119 36.43C45.8119 36.503 45.8489 36.576 45.8669 36.656C45.8939 36.811 45.9079 36.969 45.9099 37.126C45.9159 37.1812 45.9159 37.2368 45.9099 37.292V37.359C45.9255 37.45 45.9151 37.5436 45.8799 37.629C45.8489 37.739 45.7139 37.819 45.6229 37.757C45.5828 37.7254 45.55 37.6856 45.5267 37.6402C45.5034 37.5948 45.4902 37.545 45.4879 37.494V37.274C45.4843 37.1516 45.4571 37.0311 45.4079 36.919C45.3479 36.759 44.3799 36.956 44.4169 37.366C44.4439 37.608 44.5019 37.847 44.5879 38.076C44.6719 38.304 44.8039 38.513 44.9739 38.688C45.1229 38.834 45.3129 38.932 45.5189 38.969C45.6243 38.9891 45.7326 38.9882 45.8377 38.9662C45.9427 38.9442 46.0424 38.9017 46.1309 38.841C46.3394 38.6806 46.5135 38.4798 46.6427 38.2506C46.7719 38.0214 46.8536 37.7685 46.8829 37.507C46.9369 37.077 46.9099 36.641 46.8039 36.221C46.7359 35.8968 46.5935 35.5928 46.3879 35.333C46.321 35.2479 46.2378 35.1771 46.1432 35.1245C46.0486 35.072 45.9445 35.0388 45.8369 35.027C45.7281 35.0264 45.6205 35.0491 45.5212 35.0934C45.4218 35.1377 45.3331 35.2027 45.2609 35.284C45.0018 35.555 44.8129 35.8852 44.7109 36.246C44.6855 36.3115 44.6648 36.3786 44.6489 36.447C44.6059 36.692 44.6789 36.778 44.9369 36.833L45.1149 36.863C45.1984 36.8763 45.2839 36.8649 45.361 36.8303C45.4381 36.7956 45.5034 36.7392 45.5489 36.668C45.5889 36.581 45.6369 36.497 45.6889 36.417C45.7092 36.4114 45.7306 36.4114 45.7509 36.417C45.7809 36.417 45.7809 36.447 45.7809 36.447C45.7809 36.447 45.7809 36.411 45.8119 36.447L45.7819 36.43ZM37.7979 36.87C37.4059 36.87 37.0879 36.176 37.0879 35.321C37.0879 34.466 37.4059 33.773 37.7979 33.773C38.1899 33.773 38.5079 34.466 38.5079 35.321C38.5079 36.176 38.1899 36.87 37.7979 36.87Z" fill="#1C1917"/>
<path id="Vector_18" d="M37.8561 34.862H37.8861C37.9524 35.0866 37.9854 35.3198 37.9841 35.554C37.9904 35.6108 37.9904 35.6682 37.9841 35.725C37.9787 35.747 37.9787 35.77 37.9841 35.792C37.9942 35.8831 37.9839 35.9753 37.9541 36.062C37.9171 36.172 37.7831 36.252 37.6971 36.19C37.6564 36.1586 37.6229 36.119 37.5987 36.0736C37.5746 36.0282 37.5604 35.9783 37.5571 35.927V35.707C37.5481 35.5847 37.5191 35.4648 37.4711 35.352C37.4091 35.192 36.4481 35.388 36.4851 35.799C36.5071 36.039 36.5631 36.277 36.6501 36.502C36.7361 36.732 36.8701 36.941 37.0421 37.115C37.1881 37.262 37.3761 37.36 37.5811 37.396C37.794 37.4338 38.0132 37.3879 38.1931 37.268C38.4024 37.1074 38.5773 36.9066 38.7077 36.6773C38.838 36.448 38.9211 36.1949 38.9521 35.933C39.0031 35.503 38.9741 35.067 38.8661 34.648C38.8008 34.3228 38.6581 34.0182 38.4501 33.76C38.3843 33.674 38.3016 33.6024 38.2069 33.5498C38.1123 33.4971 38.0079 33.4645 37.9001 33.454C37.7924 33.4543 37.6859 33.4773 37.5877 33.5216C37.4894 33.5659 37.4017 33.6304 37.3301 33.711C37.0667 33.9795 36.8752 34.31 36.7731 34.672C36.7731 34.746 36.7231 34.801 36.7121 34.874C36.6691 35.119 36.7421 35.204 36.9991 35.254L37.1771 35.291C37.2616 35.3053 37.3484 35.2943 37.4267 35.2594C37.505 35.2246 37.5712 35.1674 37.6171 35.095C37.6531 35.006 37.6971 34.922 37.7521 34.844C37.7736 34.8356 37.7976 34.8356 37.8191 34.844C37.8212 34.8487 37.8223 34.8538 37.8223 34.859C37.8223 34.8641 37.8212 34.8693 37.8191 34.874C37.8191 34.874 37.8191 34.837 37.8561 34.874V34.862ZM9.24011 131.321C5.75011 132.172 11.0761 134.027 12.2391 134.076C12.5091 134.076 12.8511 134.045 12.9551 133.806C13.2001 133.298 12.1711 132.196 11.7801 131.878C11.4234 131.605 11.011 131.413 10.5721 131.317C10.1331 131.221 9.67844 131.222 9.24011 131.321ZM26.1261 127.624C25.8021 127.639 25.4842 127.718 25.1909 127.856C24.8977 127.995 24.635 128.191 24.4181 128.432C24.2111 128.737 24.0732 129.084 24.0141 129.448C23.9541 129.748 23.6961 130.476 24.0691 130.672C24.4431 130.868 24.8161 130.378 25.0121 130.183C25.4081 129.741 25.7121 129.225 25.9061 128.664C26.0101 128.432 26.7441 127.514 26.1261 127.624Z" fill="#1C1917"/>
<path id="Vector_19" d="M16.1751 135.624C17.4516 135.683 18.7305 135.582 19.9821 135.324C20.448 135.23 20.9081 135.11 21.3601 134.963C22.9289 134.361 24.2984 133.333 25.3141 131.994C25.7541 131.425 26.1631 130.833 26.5381 130.219C27.0512 129.477 27.4246 128.647 27.6401 127.771C27.7441 127.214 26.0241 127.293 25.6321 128.15C25.0076 129.642 24.1273 131.013 23.0311 132.202C22.8605 132.375 22.6717 132.529 22.4681 132.661C22.2825 132.814 22.0761 132.94 21.8551 133.035L21.1701 133.341C20.9311 133.427 20.6861 133.482 20.4471 133.561C19.3563 133.883 18.2244 134.044 17.0871 134.039C16.3771 134.039 15.6551 133.959 14.9381 133.91C13.8459 133.763 12.7672 133.53 11.7121 133.212C11.3089 133.085 10.911 132.942 10.5191 132.784C10.1271 132.631 9.75407 132.417 9.37407 132.239C9.20307 132.16 9.04407 132.068 8.87207 131.994C8.22907 131.731 7.98507 131.762 7.64807 132.111C7.57607 132.188 7.50807 132.27 7.44607 132.355C7.25607 132.643 7.44607 132.998 7.88107 133.274C8.57107 133.69 9.29407 134.05 10.0411 134.351C10.8191 134.626 11.6151 134.877 12.4231 135.104C13.0334 135.231 13.6454 135.349 14.2591 135.459C14.8711 135.569 15.5261 135.587 16.1501 135.661L16.1751 135.624Z" fill="#1C1917"/>
</g>
<defs>
<clipPath id="clip0_43_431">
<rect width="188" height="257" fill="white"/>
</clipPath>
</defs>
</svg>
