<svg width="493" height="470" viewBox="0 0 493 470" fill="none" xmlns="http://www.w3.org/2000/svg">
<g id="discover_svgrepo.com">
<path id="Vector" d="M239.66 353.625C307.039 353.625 361.66 302.138 361.66 238.625C361.66 175.112 307.039 123.625 239.66 123.625C172.281 123.625 117.66 175.112 117.66 238.625C117.66 302.138 172.281 353.625 239.66 353.625Z" fill="url(#paint0_linear_43_570)"/>
<path id="Vector_2" d="M312.909 142.523C343.193 163.776 362.848 198.034 362.848 236.676C362.848 301.163 308.108 353.44 240.584 353.44C173.06 353.44 118.32 301.163 118.32 236.676C118.32 190.468 146.425 150.529 187.201 131.6" stroke="#3F3F3F" stroke-width="1.44" stroke-linecap="round"/>
<path id="Vector_3" d="M119.044 212.44C79.3572 226.039 58.5088 241.278 60.6425 253.771C64.372 275.608 147.47 280.88 246.247 265.547C345.024 250.213 422.075 220.081 418.344 198.244C416.167 185.501 388.662 176.908 345.084 176.25" stroke="#3F3F3F" stroke-width="0.96" stroke-linecap="round"/>
<path id="Vector_4" d="M327.82 251.112C328.884 249.3 328.206 247.008 326.305 245.994L295.334 229.461C293.434 228.446 291.03 229.093 289.966 230.905C288.902 232.716 289.58 235.008 291.48 236.022L319.01 250.718L303.595 276.964C302.531 278.776 303.209 281.067 305.109 282.082C307.01 283.096 309.413 282.45 310.478 280.638L327.82 251.112ZM323.308 245.656C300.126 251.89 273.766 257.466 245.613 261.836L246.881 269.258C275.304 264.846 301.957 259.211 325.449 252.894L323.308 245.656Z" fill="#3F3F3F"/>
</g>
<defs>
<linearGradient id="paint0_linear_43_570" x1="239.66" y1="195.964" x2="94.9363" y2="430.101" gradientUnits="userSpaceOnUse">
<stop stop-color="#FFE4CC" stop-opacity="0"/>
<stop offset="0.490385" stop-color="#FFC893" stop-opacity="0.7"/>
</linearGradient>
</defs>
</svg>
