<svg width="51" height="33" viewBox="0 0 51 33" fill="none" xmlns="http://www.w3.org/2000/svg">
<g id="svg27179790_1079" clip-path="url(#clip0_82_729)">
<path id="Vector" fill-rule="evenodd" clip-rule="evenodd" d="M34.4195 32.2083C43.3141 32.2083 50.5247 24.9982 50.5247 16.1042C50.5247 7.21007 43.3141 0 34.4195 0C25.5247 0 18.3142 7.21007 18.3142 16.1042C18.3142 24.9982 25.5247 32.2083 34.4195 32.2083ZM34.4185 29.6315C41.89 29.6315 47.9469 23.575 47.9469 16.1041C47.9469 8.63302 41.89 2.57656 34.4185 2.57656C26.9469 2.57656 20.8901 8.63302 20.8901 16.1041C20.8901 23.575 26.9469 29.6315 34.4185 29.6315Z" fill="#1C1917"/>
<path id="Vector_2" d="M27.3449 27.6375C30.3461 24.7124 32.2098 20.6259 32.2098 16.1042C32.2098 11.5826 30.3461 7.49607 27.3449 4.57101C23.4725 6.95081 20.8901 11.2259 20.8901 16.1042C20.8901 20.9825 23.4725 25.2577 27.3449 27.6375Z" fill="#1C1917"/>
<path id="Vector_3" fill-rule="evenodd" clip-rule="evenodd" d="M23.5535 1.82193C21.3261 0.658108 18.7925 0 16.1053 0C7.21057 0 0 7.21007 0 16.1042C0 24.9982 7.21057 32.2083 16.1053 32.2083C18.7925 32.2083 21.3261 31.5502 23.5535 30.3864C19.2509 27.1083 16.474 21.9305 16.474 16.1042C16.474 10.2778 19.2509 5.10005 23.5535 1.82193Z" fill="#1C1917"/>
</g>
<defs>
<clipPath id="clip0_82_729">
<rect width="51" height="32.2083" fill="white"/>
</clipPath>
</defs>
</svg>
