<svg width="30" height="30" viewBox="0 0 30 30" fill="none" xmlns="http://www.w3.org/2000/svg">
<g id="whatsapp_svgrepo.com">
<path id="Vector" d="M7.5175 10.0077C7.66034 8.878 9.12847 7.34268 10.2936 7.51304L10.2917 7.51118C11.4256 7.72665 12.3232 9.67826 12.8294 10.5558C13.188 11.1925 12.9551 11.8376 12.6206 12.1098C12.1694 12.4735 11.4637 12.9754 11.6118 13.4792C11.875 14.375 15 17.5 16.537 18.3884C17.1188 18.7246 17.5406 17.8377 17.9009 17.3834C18.1626 17.0339 18.8083 16.825 19.4435 17.17C20.3923 17.7225 21.286 18.3646 22.1125 19.0875C22.5253 19.4325 22.6221 19.9424 22.3361 20.4812C21.8324 21.4304 20.3754 22.682 19.3178 22.4276C17.4705 21.9835 10 19.0875 7.60041 10.6975C7.46546 10.3006 7.49944 10.1506 7.5175 10.0077Z" fill="#0F0F0F"/>
<path id="Vector_2" fill-rule="evenodd" clip-rule="evenodd" d="M15 28.75C13.4705 28.75 12.6242 28.5859 11.25 28.125L8.61804 29.441C6.95577 30.2721 5 29.0634 5 27.2049V24.375C2.30819 21.865 1.25 18.9709 1.25 15C1.25 7.40609 7.40609 1.25 15 1.25C22.5939 1.25 28.75 7.40609 28.75 15C28.75 22.5939 22.5939 28.75 15 28.75ZM7.5 23.2879L6.70494 22.5465C4.61359 20.5965 3.75 18.4164 3.75 15C3.75 8.7868 8.7868 3.75 15 3.75C21.2132 3.75 26.25 8.7868 26.25 15C26.25 21.2132 21.2132 26.25 15 26.25C13.7679 26.25 13.19 26.1388 12.0449 25.7547L11.0606 25.4246L7.5 27.2049V23.2879Z" fill="#0F0F0F"/>
</g>
</svg>
